<?xml version="1.0" encoding="utf-8"?>
<!-- Generator: Adobe Illustrator 24.3.0, SVG Export Plug-In . SVG Version: 6.00 Build 0)  -->
<svg version="1.1" id="OBJECTS" xmlns="http://www.w3.org/2000/svg" xmlns:xlink="http://www.w3.org/1999/xlink" x="0px" y="0px"
	 viewBox="0 0 224.5 131.4" style="enable-background:new 0 0 224.5 131.4;" xml:space="preserve">
<style type="text/css">
	.st0{fill:none;stroke:#9A8B97;stroke-miterlimit:10;}
	.st1{opacity:0.2;enable-background:new    ;}
	.st2{fill:url(#SVGID_1_);}
	.st3{opacity:0.1;enable-background:new    ;}
	.st4{fill:url(#SVGID_2_);}
	.st5{fill:url(#SVGID_3_);}
	.st6{fill:url(#SVGID_4_);}
	.st7{fill:none;}
	.st8{fill:url(#SVGID_5_);}
	.st9{fill:url(#SVGID_6_);}
	.st10{fill:url(#SVGID_7_);}
	.st11{fill:url(#SVGID_8_);}
	.st12{fill:#F1E9E3;}
	.st13{fill:#494E69;}
	.st14{fill-rule:evenodd;clip-rule:evenodd;fill:#9A8C98;}
	.st15{fill:#9A8C98;}
</style>
<g>
	<g>
		<path class="st0" d="M148.8,69.5l-72.1,6.1c-3.8,0.3-7-2.8-6.8-6.6l1.7-30.1c0.2-3.4,3-6,6.3-5.9l67.4,4.4c3.1,0,5.7,2.3,6.2,5.4
			l2.9,19.6C155.1,65.9,152.5,69.2,148.8,69.5z"/>
		<g>
			<path class="st1" d="M150.8,46.3L150.8,46.3l-2.1,25.5l-12.4,1.1l2.2-28.4c0-0.1,0-0.2,0-0.3l12.2,1.4L150.8,46.3z"/>
			<path class="st1" d="M90.3,57.4L90.3,57.4l-2,19.3l-11.9,0.8L78.4,56c0-0.1,0-0.1,0-0.2l11.7,1.1L90.3,57.4z"/>
			<polygon class="st1" points="130.9,37.1 128.6,73.3 116.2,74.6 118.7,35.4 			"/>
			<path class="st1" d="M108.6,75.2l-12.3,1.1l1.9-25.2l8.1-10.6l4.8,0.6C111,42.5,108.6,75.2,108.6,75.2z"/>
			
				<linearGradient id="SVGID_1_" gradientUnits="userSpaceOnUse" x1="141.7302" y1="382.9617" x2="141.7302" y2="424.4477" gradientTransform="matrix(1 0 0 1 0 -342)">
				<stop  offset="0" style="stop-color:#7581D4"/>
				<stop  offset="0.9897" style="stop-color:#6247B0"/>
			</linearGradient>
			<polygon class="st2" points="147.9,39.2 147.9,71.9 141.7,72.4 136.2,72.9 135.6,72.9 135.6,43.1 141.7,41.2 			"/>
			<polygon class="st3" points="147.9,39.2 147.9,71.9 141.7,72.4 141.7,41.2 			"/>
			
				<linearGradient id="SVGID_2_" gradientUnits="userSpaceOnUse" x1="121.8622" y1="375.7956" x2="121.8622" y2="418.7957" gradientTransform="matrix(1 0 0 1 0 -342)">
				<stop  offset="0" style="stop-color:#338BA8"/>
				<stop  offset="1" style="stop-color:#3360A8"/>
			</linearGradient>
			<path class="st4" d="M128,26.6v46.9l-6.1,0.5l-5.6,0.5l-0.5,0V30l6.1-1.9l6.1-1.9l0,0v0c0,0.1,0,0.2,0,0.2
				C128,26.4,128,26.5,128,26.6z"/>
			<path class="st3" d="M128,26.6v46.9l-6.1,0.5V28l6.1-1.9v0c0,0.1,0,0.2,0,0.2C128,26.4,128,26.5,128,26.6z"/>
			
				<linearGradient id="SVGID_3_" gradientUnits="userSpaceOnUse" x1="101.9943" y1="386.6778" x2="101.9943" y2="417.8498" gradientTransform="matrix(1 0 0 1 0 -342)">
				<stop  offset="0" style="stop-color:#5EC2CC"/>
				<stop  offset="1" style="stop-color:#338BA8"/>
			</linearGradient>
			<polygon class="st5" points="108.1,38.2 108.1,75.3 102,75.8 96.2,76.3 95.9,76.3 95.9,42.1 102,40.1 102.3,40 108.1,38.2 			"/>
			<path class="st3" d="M108.1,39.1v36.1l-6.1,0.5V40.1l0.3-0.1l5.8-1.8C108.1,38.5,108.1,38.8,108.1,39.1z"/>
			
				<linearGradient id="SVGID_4_" gradientUnits="userSpaceOnUse" x1="82.1264" y1="394.2685" x2="82.1264" y2="420.6776" gradientTransform="matrix(1 0 0 1 0 -342)">
				<stop  offset="0" style="stop-color:#8CDBB3"/>
				<stop  offset="1" style="stop-color:#5EC2CC"/>
			</linearGradient>
			<path class="st6" d="M88.3,50.6v25.7c0,0.2,0,0.5,0,0.7h-0.1l-5.9,0.5L76.3,78h-0.1c-0.2-0.6-0.3-1.1-0.3-1.8V54.4l4.4-1.4
				l1.8-0.6L88.3,50.6z"/>
			<path class="st3" d="M88.3,50.6v25.7c0,0.2,0,0.5,0,0.7h-0.1l-5.9,0.5v-25L88.3,50.6z"/>
			<line class="st7" x1="108.1" y1="38.2" x2="108.1" y2="38.2"/>
			
				<linearGradient id="SVGID_5_" gradientUnits="userSpaceOnUse" x1="141.7302" y1="382.414" x2="141.7302" y2="388.9892" gradientTransform="matrix(1 0 0 1 0 -342)">
				<stop  offset="1.030930e-02" style="stop-color:#808DE8"/>
				<stop  offset="1" style="stop-color:#6E6BC7"/>
			</linearGradient>
			<polygon class="st8" points="147.9,39.2 135.6,43.1 141.7,46.7 			"/>
			
				<linearGradient id="SVGID_6_" gradientUnits="userSpaceOnUse" x1="121.8622" y1="369.2583" x2="121.8622" y2="375.8335" gradientTransform="matrix(1 0 0 1 0 -342)">
				<stop  offset="0" style="stop-color:#41AED4"/>
				<stop  offset="1" style="stop-color:#3360A8"/>
			</linearGradient>
			<polygon class="st9" points="128,26.1 115.7,30 121.9,33.5 			"/>
			
				<linearGradient id="SVGID_7_" gradientUnits="userSpaceOnUse" x1="101.9943" y1="381.3477" x2="101.9943" y2="387.9229" gradientTransform="matrix(1 0 0 1 0 -342)">
				<stop  offset="0" style="stop-color:#6FDBE8"/>
				<stop  offset="1" style="stop-color:#338BA8"/>
			</linearGradient>
			<polygon class="st10" points="108.1,38.2 95.9,42.1 102,45.6 			"/>
			
				<linearGradient id="SVGID_8_" gradientUnits="userSpaceOnUse" x1="82.1264" y1="393.7582" x2="82.1264" y2="400.3335" gradientTransform="matrix(1 0 0 1 0 -342)">
				<stop  offset="0" style="stop-color:#B5F7D6"/>
				<stop  offset="1" style="stop-color:#82D8D0"/>
			</linearGradient>
			<polygon class="st11" points="88.3,50.6 76,54.5 82.1,58 			"/>
		</g>
	</g>
	<path class="st13" d="M105.2,83.5H104c-0.4,0-0.7-0.1-1-0.3c-0.2-0.2-0.4-0.4-0.4-0.7s0.1-0.4,0.3-0.6c0.2-0.1,0.4-0.2,0.7-0.2
		s0.7,0.1,1.1,0.2l-0.3-1.2c-0.4-0.2-0.8-0.3-1.3-0.3c-0.4,0-0.8,0.1-1.1,0.3c-0.4,0.2-0.6,0.4-0.7,0.7c-0.1,0.3-0.2,0.6-0.2,1
		c0,0.5,0.1,0.9,0.4,1.2h-0.7v1.2h4.3L105.2,83.5L105.2,83.5z"/>
	<g>
		<path class="st13" d="M160.9,85.8c0.6,0,1.1-0.2,1.6-0.7c0.4-0.4,0.7-1,0.7-1.7c0-0.7-0.2-1.2-0.7-1.7c-0.4-0.4-1-0.7-1.6-0.7
			s-1.1,0.2-1.6,0.7c-0.4,0.4-0.7,1-0.7,1.7c0,0.7,0.2,1.2,0.7,1.7C159.7,85.5,160.2,85.8,160.9,85.8z"/>
		<path class="st13" d="M155.7,85.8c0.6,0,1.1-0.2,1.6-0.7c0.4-0.4,0.7-1,0.7-1.7c0-0.7-0.2-1.2-0.7-1.7c-0.4-0.4-1-0.7-1.6-0.7
			c-0.6,0-1.1,0.2-1.6,0.7c-0.4,0.4-0.7,1-0.7,1.7c0,0.7,0.2,1.2,0.7,1.7C154.6,85.5,155.1,85.8,155.7,85.8z"/>
		<path class="st13" d="M81.8,85.8c0.6,0,1.1-0.2,1.6-0.7c0.4-0.4,0.7-1,0.7-1.7c0-0.7-0.2-1.2-0.7-1.7c-0.4-0.4-1-0.7-1.6-0.7
			c-0.6,0-1.1,0.2-1.6,0.7c-0.4,0.4-0.7,1-0.7,1.7c0,0.7,0.2,1.2,0.7,1.7C80.7,85.5,81.2,85.8,81.8,85.8z"/>
		<path class="st13" d="M76.7,85.8c0.6,0,1.1-0.2,1.6-0.7c0.4-0.4,0.7-1,0.7-1.7c0-0.7-0.2-1.2-0.7-1.7c-0.4-0.4-1-0.7-1.6-0.7
			c-0.6,0-1.1,0.2-1.6,0.7c-0.4,0.4-0.7,1-0.7,1.7c0,0.7,0.2,1.2,0.7,1.7C75.5,85.5,76.1,85.8,76.7,85.8z"/>
		<path class="st13" d="M58,85.8c0.6,0,1.1-0.2,1.6-0.7c0.4-0.4,0.7-1,0.7-1.7c0-0.7-0.2-1.2-0.7-1.7c-0.4-0.4-1-0.7-1.6-0.7
			c-0.6,0-1.1,0.2-1.6,0.7c-0.4,0.4-0.7,1-0.7,1.7c0,0.7,0.2,1.2,0.7,1.7C56.8,85.5,57.4,85.8,58,85.8z"/>
		<path class="st13" d="M148.4,85.8c0.6,0,1.1-0.2,1.6-0.7c0.4-0.4,0.7-1,0.7-1.7c0-0.7-0.2-1.2-0.7-1.7c-0.4-0.4-1-0.7-1.6-0.7
			c-0.6,0-1.1,0.2-1.6,0.7c-0.4,0.4-0.7,1-0.7,1.7c0,0.7,0.2,1.2,0.7,1.7C147.2,85.5,147.7,85.8,148.4,85.8z"/>
		<path class="st13" d="M143.2,85.8c0.6,0,1.1-0.2,1.6-0.7c0.4-0.4,0.7-1,0.7-1.7c0-0.7-0.2-1.2-0.7-1.7c-0.4-0.4-1-0.7-1.6-0.7
			s-1.1,0.2-1.6,0.7c-0.4,0.4-0.7,1-0.7,1.7c0,0.7,0.2,1.2,0.7,1.7C142.1,85.5,142.6,85.8,143.2,85.8z"/>
	</g>
	<path class="st13" d="M45.1,99.4h16.8l0-5.6c0-1.5-0.1-3.2-0.3-5.1c-1.5-0.5-3.2-0.7-5-0.7c-1.4,0-2.5,0.2-3.3,0.7
		c-0.9,0.4-1.5,1.1-2,1.8c-0.4,0.7-0.7,1.7-0.7,2.7c0,1.8,0.6,3,1.8,3.7h-6.3c-1.3,0-2.2-0.4-2.8-1.1c-0.6-0.7-0.9-1.8-0.9-3.4v-1.2
		l-2.9,1v0.4c0,2.3,0.5,4,1.5,5.2C41.9,98.8,43.3,99.4,45.1,99.4z M56.9,90.5c0.9,0,1.6,0.1,2.1,0.3c0,0.4,0,1.3,0,2.9v3.1h-2.2
		c-1,0-1.7-0.3-2.2-0.8c-0.5-0.5-0.7-1.3-0.7-2.4C53.8,91.5,54.8,90.5,56.9,90.5z"/>
	<path class="st13" d="M66.6,98.1c0.4,0.4,1,0.7,1.7,1c0.7,0.2,1.5,0.3,2.4,0.3h0.4h0h13l0-5.6c0-1.7-0.1-3.4-0.3-5.1
		c-1.5-0.5-3.2-0.7-5-0.7c-1.4,0-2.5,0.2-3.3,0.7c-0.9,0.4-1.5,1.1-2,1.8c-0.4,0.7-0.7,1.7-0.7,2.7c0,1.8,0.6,3,1.8,3.7h-3.6
		c-0.9,0-1.6-0.2-2.2-0.6s-0.8-1.2-0.8-2.5V81.1l-3,0.6v11.9c0,1.1,0.1,1.9,0.4,2.7C65.8,97.1,66.2,97.7,66.6,98.1z M79.1,90.5
		c0.8,0,1.5,0.1,2.1,0.3c0,0.4,0,1.5,0,3.2v2.9H79c-2,0-3-1.1-3-3.1C76,91.5,77,90.5,79.1,90.5z"/>
	<path class="st13" d="M96.2,102.2c0.5-0.7,1-1.4,1.2-2.2c0.3-0.7,0.4-1.5,0.4-2.2v-4.1c0-1.5-0.1-3.2-0.3-5.1
		c-1.5-0.5-3.2-0.7-5.1-0.7c-1,0-1.8,0.1-2.6,0.4c-0.7,0.3-1.4,0.7-1.8,1.1c-0.5,0.5-0.9,1.1-1.1,1.8c-0.3,0.7-0.4,1.5-0.4,2.4
		c0,1.8,0.5,3.2,1.4,4.2c0.9,1,2.3,1.5,4.1,1.5h2.8v0.7c-0.5,0.5-1.2,1.1-2.2,1.7c-0.9,0.6-1.7,1.1-2.3,1.5l1.4,2.1
		c0.9-0.3,1.8-0.7,2.6-1.3C95,103.5,95.6,102.9,96.2,102.2z M94.8,96.8h-2.2c-1,0-1.7-0.3-2.2-0.8c-0.5-0.5-0.7-1.3-0.7-2.4
		c0-1,0.3-1.8,0.7-2.4c0.5-0.5,1.3-0.8,2.2-0.8c0.9,0,1.6,0.1,2.2,0.3c0,0.4,0,1.3,0,3V96.8z"/>
	<polygon class="st13" points="111.7,81.2 108.8,81.8 108.8,96.8 105.1,96.8 105.1,85.5 102.1,86.1 102.1,96.8 100.1,96.8 
		100.1,99.4 111.7,99.4 	"/>
	<polygon class="st13" points="118.3,81.2 115.4,81.8 115.4,99.4 118.3,99.4 	"/>
	<path class="st13" d="M184.6,88.7c-1.5-0.5-3-0.7-4.7-0.7c-1,0-1.8,0.2-2.6,0.5c-0.7,0.4-1.3,0.9-1.7,1.6c-0.5,0.7-0.9,1.7-1.3,3
		c-0.3,1.2-0.6,2.1-0.8,2.5c-0.2,0.4-0.5,0.7-0.8,0.9c-0.3,0.2-0.7,0.3-1.1,0.3c-0.9,0-1.6-0.2-2.2-0.6c-0.5-0.4-0.8-1.2-0.8-2.5
		V81.1l-3,0.7v11.9c0,1.1-0.3,1.8-0.7,2.4c-0.5,0.5-1.2,0.7-2.2,0.7c-0.9,0-1.6-0.2-2.1-0.6c-0.5-0.4-0.8-1.2-0.8-2.5v-3.7l-3,0.7
		v3.1c0,2.1-1,3.1-3,3.1h-2.8l0-3c0-1.6-0.1-3.3-0.3-5.1c-0.7-0.2-1.5-0.4-2.4-0.5c-0.9-0.1-1.7-0.2-2.5-0.2c-1.5,0-2.6,0.2-3.5,0.6
		c-0.9,0.4-1.5,1-1.9,1.7c-0.4,0.7-0.6,1.7-0.6,2.8c0,1.8,0.5,3.1,1.4,3.8h-3.3c-1.1,0-1.8-0.3-2.2-0.8c-0.4-0.5-0.7-1.4-0.7-2.6
		c0-1.1-0.1-2.6-0.3-4.3c-1-0.2-2-0.4-3-0.5c-1-0.1-1.8-0.2-2.5-0.1c-0.8,0-1.6,0.1-2.3,0.3c-0.7,0.2-1.4,0.4-2,0.8
		c-0.6,0.4-1,0.8-1.3,1.4s-0.5,1.1-0.5,1.8c0,0.4,0.1,0.8,0.2,1.1c0.1,0.4,0.4,0.7,0.7,1.1c0.3,0.4,0.9,0.9,1.9,1.6
		c0.9,0.7,1.5,1.2,1.8,1.4c0.2,0.2,0.4,0.5,0.5,0.7c0.1,0.2,0.1,0.4,0.1,0.6c0,0.4-0.2,0.9-0.6,1.2c-0.4,0.4-0.9,0.7-1.5,0.8
		c-0.5,0.2-1.1,0.2-1.5,0.2H97.8c-0.2,0.4-0.5,0.9-0.8,1.3c-0.4,0.5-0.8,0.9-1.3,1.3c15.8,0,28.9,0,29.3,0c0.9,0,1.8-0.1,2.6-0.4
		c0.8-0.3,1.5-0.6,2.1-1.1s1-1,1.3-1.6s0.5-1.2,0.5-1.9c0-0.4-0.1-0.8-0.2-1.2c-0.1-0.4-0.3-0.7-0.5-1c-0.2-0.3-0.4-0.6-0.7-0.8
		c-0.3-0.3-0.8-0.7-1.5-1.1c-0.7-0.5-1.1-0.8-1.4-1s-0.4-0.4-0.6-0.6c-0.1-0.2-0.2-0.4-0.2-0.7c0-0.4,0.2-0.7,0.4-0.9
		c0.3-0.2,0.7-0.4,1.3-0.6c0.5-0.2,1.1-0.2,1.6-0.2c1,0,1.9,0.1,2.7,0.3v2.6c0,0.9,0.1,1.8,0.4,2.5c0.3,0.7,0.7,1.3,1.2,1.8
		c0.5,0.4,1.1,0.8,1.8,1c0.7,0.2,1.5,0.4,2.4,0.4h15.9c1.7,0,2.9-0.9,3.5-2.6c0.4,0.8,1.1,1.5,2,1.9c0.9,0.4,2,0.7,3.3,0.7h0
		c0,0,0,0,0,0c1.7,0,2.9-0.9,3.5-2.6c0.4,0.8,1.1,1.5,1.9,1.9c0.9,0.4,2,0.7,3.3,0.7c0,0,0,0,0.1,0h0.2c1,0,1.8-0.2,2.5-0.5
		c0.7-0.4,1.2-0.9,1.7-1.7c0.5-0.7,0.9-1.9,1.3-3.4c0.2-0.8,0.4-1.4,0.6-1.8c0.2-0.4,0.5-0.8,0.8-1c0.4-0.3,0.8-0.4,1.4-0.4
		c0.7,0,1.3,0.1,1.7,0.3l0,3v2.8c-0.5,0.1-1.1,0.2-1.8,0.2c-0.8,0-1.6-0.2-2.6-0.5l-1.1,2.2c0.5,0.3,1.1,0.5,1.8,0.6
		c0.7,0.2,1.3,0.2,1.9,0.2c0.8,0,1.6-0.1,2.4-0.4c0.8-0.2,1.6-0.5,2.3-0.9l0.1-4.3C184.9,92.3,184.9,90.6,184.6,88.7z M148.4,96.8
		h-2.4c-0.9,0-1.6-0.3-2.1-0.8c-0.4-0.5-0.7-1.3-0.7-2.4c0-1.1,0.3-1.9,0.7-2.4c0.5-0.5,1.3-0.7,2.3-0.7c0.8,0,1.5,0.1,2,0.3
		c0,0.4,0,1.4,0,3L148.4,96.8L148.4,96.8z"/>
	<g>
		<path class="st14" d="M177.6,83c0,1.2-0.5,2.3-1.5,3.3c-0.5,0.5-1.3,0.9-2.3,1.3c-1,0.4-1.7,0.6-2.3,0.6c-0.1,0-0.2,0-0.2-0.2
			c0-0.2,0.2-0.4,0.6-0.6c0.7-0.3,1.4-0.6,2-1c1.8-0.9,2.7-1.8,2.7-2.7c0-0.7-0.2-1.1-0.7-1.1c-0.1,0-0.3,0-0.5,0.2
			c-0.2,0.1-0.4,0.2-0.4,0.3c0,0.1,0.2,0.2,0.4,0.5c0.3,0.2,0.4,0.4,0.4,0.6c0,0.2-0.1,0.4-0.2,0.6c-0.2,0.2-0.4,0.4-0.5,0.4
			c-0.2,0-0.4-0.2-0.7-0.5c-0.4-0.4-0.6-0.7-0.6-1.1c0-0.4,0.3-0.8,0.9-1.4c0.6-0.5,1.1-0.8,1.6-0.8c0.4,0,0.6,0.2,0.9,0.5
			C177.5,82.2,177.6,82.6,177.6,83"/>
		<path class="st14" d="M93.9,85.2c-0.7,0.4-2.2,0.7-3.7,0.4c-0.1,0-0.2,0-0.2-0.1c0-0.1,0-0.2,0.1-0.2c0.9-0.5,2.3-0.6,3.8-1.5
			c0.2-0.1,0.1-0.4,0-0.4c-0.4-0.1-1-0.1-1.8-0.1c-1.2,0-1.9,0.1-2.2,0.2c-0.1,0-0.2,0.1-0.3,0s0-0.1,0-0.2c0.3-0.7,0.8-1.4,1.3-2.1
			c0,0,0.1-0.1,0.1-0.1c1.1-0.3,2.6-0.3,4.4,0c0.4,0.1,0.7,0.3,0.7,0.7c0,0.4-0.2,1-0.7,1.8C94.7,84.5,94.2,85,93.9,85.2"/>
		<path class="st15" d="M46.8,81.7c0.5,0,1,0.3,1.4,0.9c0.4,0.6,0.7,1.4,0.9,2.4c0,0.1,0,0.1,0,0.2c0,0,0,0,0,0c0,0,0-0.1,0-0.2
			c0.1-0.6,0.4-1.5,0.6-2.6c0.4-0.8,0.7-1.2,1.2-1.2c0.2,0,0.4,0.1,0.6,0.4c0.2,0.2,0.3,0.4,0.3,0.6c0,0.1,0,0.3-0.1,0.5
			c-0.1,0.3-0.2,0.4-0.3,0.4c0,0-0.1-0.1-0.4-0.3c-0.1-0.2-0.3-0.3-0.5-0.3c-0.4,0-0.7,0.8-1.1,2.6c-0.1,0.7-0.3,1.3-0.4,1.6
			c-0.1,0.2-0.2,0.4-0.4,0.4c0,0-0.1-0.1-0.1-0.4c0-0.3-0.2-0.8-0.5-1.8c-0.4-0.8-0.6-1.3-0.7-1.3c-0.1,0-0.1,0-0.2,0.1
			c0,0-0.1,0.1-0.2,0.1c-0.2,0-0.4-0.1-0.6-0.4c-0.3-0.2-0.4-0.4-0.4-0.6c0,0,0.1-0.2,0.3-0.6C46.6,81.9,46.7,81.7,46.8,81.7
			L46.8,81.7z"/>
		<path class="st15" d="M139.2,87c0-0.1,0.1-0.2,0.2-0.3c0.1-0.1,0.1-0.1,0.2-0.1c0,0,0,0,0.1,0c0,0,0,2.6-1.5,2.7
			c-0.9,0-1.1-1.2-1.1-1.5c0-1,0.9-2.9,1-3c0.1-0.1,0.2-0.2,0.3-0.2c0.1,0,0.1,0.1,0.1,0.2c0,0.1,0,0.3-0.1,0.6
			c-0.2,0.5-0.3,0.9-0.4,1.5c0,0.1-0.1,1.1,0.4,1.1C138.7,88,139,87.3,139.2,87L139.2,87L139.2,87L139.2,87z"/>
		<path class="st15" d="M127.7,84.5c0.3-0.1,0.8-0.3,1.5-0.5c0.7-0.2,1.4-0.4,2.1-0.6c0.8-0.2,1.6-0.4,2.4-0.7
			c0.8-0.2,1.6-0.4,2.2-0.6c0.7-0.2,1.3-0.4,1.8-0.5c0.5-0.1,0.8-0.2,0.9-0.3c0.2,0,0.4-0.1,0.4,0c0,0,0,0.1,0,0.3
			c-0.1,0.3-0.3,0.5-0.4,0.7c-0.1,0.1-0.2,0.2-0.2,0.3c0,0-0.4,0.1-0.8,0.3c-0.5,0.2-1.1,0.4-1.8,0.6s-1.5,0.4-2.4,0.7
			s-1.7,0.5-2.6,0.7s-1.5,0.5-2.2,0.7s-1.1,0.4-1.4,0.5c0.1-0.3,0.2-0.5,0.2-0.7c0.1-0.2,0.2-0.4,0.3-0.5
			C127.5,84.6,127.6,84.5,127.7,84.5L127.7,84.5L127.7,84.5L127.7,84.5z"/>
		<path class="st15" d="M123.5,86.7L123.5,86.7c-0.1,0.3-0.2,0.4-0.4,0.5c0,0,0,0,0-0.1c0,0,0,0,0-0.1c0.1-0.4,0.1-0.7,0.1-0.9
			c0-1.3-0.7-2.5-2.2-3.5c0-0.1,0.1-0.4,0.3-0.7c0.2-0.3,0.4-0.5,0.5-0.5c0.3,0.1,0.6,0.4,0.9,0.7c0.8,1,1.2,2,1.2,3.2
			C123.9,85.8,123.7,86.3,123.5,86.7L123.5,86.7z"/>
		<path class="st15" d="M72.8,86.7L72.8,86.7c-0.1,0.3-0.2,0.4-0.4,0.5c0,0,0,0,0-0.1c0,0,0,0,0-0.1c0.1-0.4,0.1-0.7,0.1-0.9
			c0-1.3-0.7-2.5-2.2-3.5c0-0.1,0.1-0.4,0.3-0.7c0.2-0.3,0.4-0.5,0.5-0.5c0.3,0.1,0.6,0.4,0.9,0.7c0.8,1,1.2,2,1.2,3.2
			C73.1,85.8,73,86.3,72.8,86.7L72.8,86.7z"/>
	</g>
</g>
</svg>
