<?xml version="1.0" encoding="UTF-8"?>
<svg id="Layer_1" data-name="Layer 1" xmlns="http://www.w3.org/2000/svg" viewBox="0 0 841.89 250.34">
  <defs>
    <style>
      .cls-1 {
        fill: #d3b489;
      }

      .cls-2 {
        fill: #005c5d;
      }

      .cls-3 {
        fill: #686868;
      }
    </style>
  </defs>
  <g>
    <rect class="cls-2" x="591.55" width="250.34" height="250.34"/>
    <polygon class="cls-1" points="789.56 224.97 789.56 211.72 789.56 198.48 789.56 185.23 789.56 171.99 789.56 158.73 789.56 145.49 789.56 132.24 789.56 119 789.56 105.75 776.31 105.75 776.31 119 776.31 132.24 776.31 145.49 776.31 158.73 776.31 171.99 776.31 185.23 776.31 198.48 776.31 211.72 763.07 211.72 763.07 198.48 749.83 198.48 749.83 211.72 749.83 224.97 763.07 224.97 776.31 224.97 789.56 224.97"/>
    <polygon class="cls-1" points="763.07 171.99 763.07 158.73 763.07 145.49 763.07 132.24 763.07 119 763.07 105.75 749.83 105.75 749.83 119 749.83 132.24 749.83 145.49 749.83 158.73 749.83 171.99 749.83 185.23 763.07 185.23 763.07 171.99"/>
    <polygon class="cls-1" points="802.8 105.75 802.8 119 802.8 132.24 802.8 145.49 802.8 158.73 802.8 171.99 802.8 185.23 802.8 198.48 802.8 211.72 802.8 224.97 816.05 224.97 816.05 211.72 816.05 198.48 816.05 185.23 816.05 171.99 816.05 158.73 816.05 145.49 816.05 132.24 816.05 119 816.05 105.75 802.8 105.75"/>
    <path class="cls-1" d="M710.09,211.72h-13.25v13.25h39.73v-66.24h-39.73v39.75h26.49v13.25h-13.25,0ZM710.09,185.23v-13.25h13.25v13.25h-13.25Z"/>
    <path class="cls-1" d="M643.88,224.97h39.73v-66.24h-39.73v39.75h26.49v13.25h-39.73v-105.97h-13.25v119.22h26.49,0ZM657.12,185.23v-13.25h13.25v13.25h-13.25Z"/>
    <path class="cls-1" d="M670.37,145.49h66.22v-39.74h-39.73v26.49h-39.73v-13.25h26.49v-13.25h-39.73v39.74h26.49-.02ZM710.09,119h13.25v13.25h-13.25v-13.25Z"/>
    <path class="cls-1" d="M789.56,25.81h-13.25v39.74h26.49v13.25h-26.49v13.25h39.73V25.81h-26.49,0ZM802.8,52.3h-13.25v-13.25h13.25v13.25Z"/>
    <path class="cls-1" d="M736.59,25.81h-13.25v39.74h26.49v13.25h-39.73v-26.49h-39.73v26.49h-39.73v-13.25h26.49v-13.25h-39.73v39.74h145.68V25.81h-26.51ZM683.61,78.8v-13.25h13.25v13.25h-13.25ZM749.83,52.31h-13.25v-13.25h13.25v13.25Z"/>
    <polygon class="cls-1" points="643.88 39.06 657.12 39.06 670.37 39.06 683.61 39.06 696.85 39.06 710.09 39.06 710.09 25.81 696.85 25.81 683.61 25.81 670.37 25.81 657.12 25.81 643.88 25.81 630.63 25.81 617.39 25.81 617.39 39.06 630.63 39.06 643.88 39.06"/>
  </g>
  <g>
    <g>
      <polygon class="cls-2" points="83.87 82.26 91.24 87.6 96.49 80.04 89.02 74.79 83.87 82.26"/>
      <polygon class="cls-2" points="120.91 21.5 127.77 26.45 132.92 18.88 125.55 13.63 122.12 18.58 115.26 13.63 110.01 21.1 117.48 26.45 120.91 21.5"/>
      <polygon class="cls-2" points="148.36 24.13 155.32 29.17 160.47 21.61 153.1 16.36 149.67 21.3 142.71 16.36 137.46 23.83 144.93 29.17 148.36 24.13"/>
      <path class="cls-2" d="M267.43,10.3l-.81-.1-2.02,2.62c-4.64,5.45-5.65,9.89-1.21,14.23v29.97h-12.92l-6.56-19.88h-.91c-10.49,0-16.15,7.97-19.58,16.15l-.4,1.01c-.4,1.01-.61,1.92-.71,2.72h-3.33c-8.27,0-8.58-2.22-8.58-5.95v-6.46l-1.51-.1v.1h-.1l-4.64,13.73-9.49-1.92,2.52-8.98-2.12-.71-4.14,11.51-16.45-2.62,3.43-6.16-1.82-1.31-5.55,8.88h-7.37c-6.56,0-9.38-1.72-9.38-6.46v-13.42h-.91l-4.54,7.67v12.21h-20.69c3.63-2.93,6.15-7.37,6.15-12.21,0-6.46-3.73-10.4-9.89-10.4-5.75,0-12.52,4.44-14.63,14.94-.61,2.52-.81,5.15-.81,7.67h-4.54s0,0,0,0h0c-8.27,0-8.58-2.22-8.58-5.95v-6.46l-1.51-.1-4.24,12.51h-7.06c-.53,0-1,.07-1.43.19v-.19h-34.18c-6.76,0-9.38-1.61-9.38-7.87V10.81h-.81l-5.35,9.08v48.44c-3.23,3.73-9.38,6.06-15.24,6.06-6.56,0-12.41-2.93-12.41-11.2,0-3.83,1.31-7.97,2.32-12.01l-1.11-.4c-1.82,4.24-3.73,10.8-3.73,17.46,0,9.08,3.63,16.96,13.22,16.96s17.76-7.87,20.99-19.28c1.92,1.82,4.54,2.72,7.47,2.72h0s19.52,0,19.52,0h23.15l3.83-9.38c0,6.86,3.83,9.38,10.5,9.38h9.08l8.48-5.15,5.04,3.53c1.51,1.11,3.13,1.61,5.04,1.61h17.36l3.63-8.78c1.11,6.76,5.45,8.78,10.59,8.78h0s2.93,0,2.93,0c3.23,0,5.75-1.21,7.47-3.94l13.52,3.53c.71.2,1.31.3,1.92.3,2.12,0,3.73-1.11,4.94-3.03l11.4,2.93,3.13-8.38v.1c0,5.05,3.23,8.48,10.49,8.48h0s7.06,0,7.06,0l2.62-6.46c.5.4,1.11.71,1.82,1.11l15.74,7.06,3.43-8.17,1.11,2.93c.81,2.32,2.42,3.53,4.94,3.53h12.21c2.42-4.14,5.04-10.29,5.04-18.87v-19.58l5.65-8.07-7.17-5.75v-6.05ZM117.58,57.03l-7.47-6.66c2.72-3.43,7.26-5.95,11.1-5.95s6.86,2.42,7.06,8.68l-10.7,3.94ZM225.56,51.28c2.42-2.93,8.27-4.54,13.93-5.05l5.25,13.52-19.17-8.48Z"/>
      <path class="cls-2" d="M281.66,20.39v49.75h.81l3.63-8.28c1.21-2.52,1.82-5.04,1.82-7.87V11.31h-.81l-5.45,9.08Z"/>
      <path class="cls-2" d="M318.19,35.93l-3.94,9.79c6.46,5.96,9.39,10.3,9.39,15.85,0,5.85-3.63,12.11-22.4,18.17v.71l11.71,6.76c8.27-9.19,14.53-19.78,14.53-31.39,0-6.76-2.22-13.82-8.48-19.88h-.81Z"/>
      <polygon class="cls-2" points="428.49 32.4 435.36 37.35 440.6 29.78 433.14 24.53 429.71 29.38 422.84 24.53 417.6 32 425.06 37.35 428.49 32.4"/>
      <polygon class="cls-2" points="434.65 18.58 427.28 13.33 422.04 20.8 429.5 26.15 434.65 18.58"/>
      <polygon class="cls-2" points="450.69 24.13 457.66 29.17 462.8 21.61 455.44 16.36 452.01 21.3 445.04 16.36 439.79 23.83 447.26 29.17 450.69 24.13"/>
      <path class="cls-2" d="M509.63,35.83l-3.83,9.18,7.37,12.11-15.34-3.03,1.92-6.66-2.12-.71-4.14,11.51-16.55-2.62,3.33-6.16-1.82-1.31-5.55,8.88h-7.37c-6.56,0-9.38-1.72-9.38-6.46v-13.42h-.91l-4.54,7.67v12.21h-9.18c-8.27,0-8.58-2.22-8.58-5.95v-6.46l-1.51-.1-4.24,12.51h-16.15l-6.56-19.88h-.91c-10.49,0-16.15,7.97-19.58,16.15l-.4,1.01c-.4,1.01-.61,1.92-.71,2.72h-38.35V11.31h-.71l-5.45,9.08v48.24h44.2l2.62-6.46c.5.4,1.11.71,1.82,1.11l15.74,7.06,3.43-8.17,1.11,2.93c.81,2.32,2.42,3.53,4.94,3.53h10.8l3.94-9.59c0,6.93,3.6,9.56,10.39,9.58h0s9.89,0,9.89,0l3.63-8.78c1.11,6.76,5.45,8.78,10.59,8.78h0s2.93,0,2.93,0c3.33,0,5.75-1.21,7.47-3.94l13.73,3.53c.71.2,1.31.2,1.82.2,2.93,0,4.84-1.92,6.05-5.15l18.27,4.54c2.72-6.66,4.54-11.71,4.54-17.06,0-3.83-.91-8.98-5.85-14.94h-.81ZM386.11,51.28c2.42-2.93,8.27-4.54,13.93-5.05l5.25,13.52-19.17-8.48Z"/>
      <path class="cls-2" d="M532.74,11.31l-5.45,9.08v49.75h.81l3.63-8.28c1.21-2.52,1.82-5.04,1.82-7.87V11.31h-.81Z"/>
    </g>
    <g>
      <polygon class="cls-2" points="310.17 104.51 316.54 109.08 321.31 102.09 314.48 97.24 311.29 101.81 304.93 97.24 300.06 104.14 306.99 109.08 310.17 104.51"/>
      <polygon class="cls-2" points="398.57 114.11 391.64 109.27 386.87 116.16 393.7 121.1 398.57 114.11"/>
      <polygon class="cls-2" points="430.69 164.16 437.53 169.1 442.4 162.11 435.47 157.26 430.69 164.16"/>
      <path class="cls-2" d="M440.43,120.82l-3.74,8.86,6.65,11.18h-10.77s0,0,0,0h0s-7.77,0-7.77,0c.38-1.31.56-2.61.56-4.01,0-7.64-5.52-15.1-14.14-15.1-10.21,0-17.04,10.53-23.13,19.01-5.81-.56-7.12-3.45-7.12-6.24v-4.29l-1.03-.19-4.03,10.63v.19h-51.7v-32.62l-.47-.09-4.59,7.83v3.92l-11.7,6.9c-4.87,2.89-6.18,3.17-7.49,6.52l-3.09,8.2,14.51,6.15c.56.19,1.03.28,1.5.28,1.12,0,1.96-.56,2.53-1.86l3.74-7.36v.28c0,9.11,3.59,12.42,10.04,12.57h0s.45.01.45.01h34.94c.5,0,.96-.05,1.41-.12v.12h6.55l3.09-7.45c.28,4.75,3.56,7.45,10.95,7.45h42.23s0,0,0,0h0s13.58,0,13.58,0c2.81-6.24,4.59-11.18,4.59-16.12,0-4.47-1.59-8.95-5.8-14.63h-.75ZM319.16,136.01l-.37.75c-.66,1.12-1.5,1.77-2.53,1.77-.38,0-.84-.19-1.4-.37l-12.45-5.03,7.96-2.33c3.28-.93,5.62-2.8,7.12-5.87l1.68-3.45v14.54ZM390.33,140.86h-1.12c5.9-6.62,11.14-10.44,17.04-10.44,6.46,0,12.73,4.57,16.11,10.44h-32.02Z"/>
      <polygon class="cls-2" points="487.53 108.05 493.9 112.62 498.68 105.63 491.84 100.78 488.65 105.35 482.29 100.78 477.42 107.68 484.35 112.62 487.53 108.05"/>
      <path class="cls-2" d="M514.41,97.71l-.75-.09-1.87,2.42c-4.31,5.03-5.24,9.13-1.12,13.14v27.68h-6.18s0,0,0,0h0s-10.67,0-10.67,0c3.37-2.7,5.71-6.8,5.71-11.28,0-5.96-3.47-9.6-9.18-9.6-5.34,0-11.61,4.1-13.58,13.79-.56,2.33-.75,4.75-.75,7.08h-13.02v-42.22h-.66l-5.06,8.39v44.55h10.77s0,0,0,0h0s8.43,0,8.43,0l7.86-4.75,4.68,3.26c1.4,1.02,2.9,1.49,4.68,1.49h17.42c2.25-3.82,4.68-9.51,4.68-17.43v-18.08l5.24-7.46-6.65-5.31v-5.59ZM484.44,140.86l-6.93-6.15c2.53-3.17,6.74-5.5,10.3-5.5s6.37,2.24,6.55,8.02l-9.92,3.64Z"/>
      <path class="cls-2" d="M532.67,98.64l-5.06,8.39v45.95h.75l3.37-7.64c1.12-2.33,1.69-4.66,1.69-7.27v-39.42h-.75Z"/>
    </g>
    <g>
      <path class="cls-3" d="M33.97,109.32c-.16,1.88-.27,3.69-.33,5.44-.06,1.76-.09,3.09-.09,4.01,0,.8.02,1.58.06,2.33.04.76.08,1.38.12,1.85h-1.38c-.44-3.11-1.15-5.56-2.12-7.36-.98-1.79-2.17-3.06-3.59-3.8-1.42-.74-2.98-1.11-4.7-1.11h-1.62c-1.08,0-1.91.09-2.48.27-.58.18-.96.55-1.14,1.11-.18.56-.27,1.44-.27,2.63v31.59c0,1.16.09,2.03.27,2.6.18.58.56.96,1.14,1.14.58.18,1.41.27,2.48.27h2.45c1.56,0,3.04-.41,4.46-1.23,1.42-.82,2.68-2.21,3.8-4.19,1.12-1.97,1.95-4.66,2.51-8.05h1.38c-.12,1.36-.18,3.11-.18,5.26,0,.96.02,2.31.06,4.07.04,1.76.16,3.59.36,5.5-2.03-.08-4.33-.13-6.88-.15-2.55-.02-4.83-.03-6.82-.03h-3.95c-1.6,0-3.33.01-5.2.03-1.88.02-3.77.04-5.68.06-1.91.02-3.71.05-5.38.09v-1.2c1.24-.08,2.16-.24,2.78-.48.62-.24,1.04-.72,1.26-1.44.22-.72.33-1.79.33-3.23v-29.67c0-1.47-.11-2.56-.33-3.26-.22-.7-.64-1.18-1.26-1.44-.62-.26-1.55-.41-2.78-.45v-1.2c1.71.04,3.52.07,5.41.09,1.89.02,3.77.04,5.62.06,1.85.02,3.59.03,5.21.03h3.98c1.83,0,3.92,0,6.25-.03,2.33-.02,4.42-.07,6.25-.15ZM24.93,129.79v1.2h-10.29v-1.2h10.29ZM26.67,121.89c-.16,2.27-.23,4.01-.21,5.2.02,1.2.03,2.29.03,3.29s.02,2.09.06,3.29c.04,1.2.14,2.93.3,5.2h-1.38c-.2-1.44-.62-2.75-1.26-3.95-.64-1.2-1.5-2.15-2.57-2.87-1.08-.72-2.39-1.08-3.95-1.08v-1.2c1.16,0,2.17-.25,3.05-.75.88-.5,1.62-1.15,2.24-1.94.62-.8,1.13-1.65,1.53-2.57.4-.92.66-1.8.78-2.63h1.38Z"/>
      <path class="cls-3" d="M51.5,119.85c1.75,0,3.27.2,4.55.6,1.28.4,2.21.78,2.81,1.14,1.4.88,2.23.32,2.51-1.68h1.26c-.08,1.16-.14,2.54-.18,4.16-.04,1.62-.06,3.78-.06,6.49h-1.26c-.16-1.47-.51-2.93-1.05-4.37-.54-1.44-1.33-2.62-2.36-3.56-1.04-.94-2.39-1.41-4.07-1.41-1.08,0-1.98.32-2.72.96-.74.64-1.11,1.52-1.11,2.63,0,1.2.36,2.25,1.08,3.17.72.92,1.64,1.8,2.78,2.63,1.14.84,2.28,1.74,3.44,2.69,1.28.96,2.42,1.92,3.44,2.9,1.02.98,1.83,2.03,2.45,3.17.62,1.14.93,2.5.93,4.1,0,1.8-.54,3.37-1.62,4.73-1.08,1.36-2.49,2.41-4.25,3.17-1.76.76-3.71,1.14-5.86,1.14-1.32,0-2.46-.13-3.44-.39-.98-.26-1.79-.59-2.42-.99-.6-.28-1.13-.52-1.59-.72-.46-.2-.91-.34-1.35-.42-.4-.04-.74.14-1.02.54-.28.4-.5.92-.66,1.55h-1.26c.08-1.28.14-2.83.18-4.67.04-1.83.06-4.27.06-7.3h1.26c.24,2.15.69,4.05,1.35,5.68.66,1.64,1.55,2.92,2.66,3.86,1.12.94,2.43,1.41,3.95,1.41.68,0,1.31-.13,1.88-.39.58-.26,1.06-.67,1.44-1.23.38-.56.57-1.28.57-2.15,0-1.75-.56-3.22-1.68-4.4-1.12-1.18-2.49-2.46-4.13-3.86-1.28-1.08-2.46-2.13-3.56-3.17-1.1-1.04-1.99-2.17-2.69-3.41-.7-1.24-1.05-2.63-1.05-4.19,0-1.79.51-3.32,1.53-4.58,1.02-1.26,2.34-2.21,3.98-2.87,1.63-.66,3.39-.99,5.26-.99Z"/>
      <path class="cls-3" d="M80.45,110.94v9.75h6.46v1.2h-6.46v24.47c0,1,.18,1.7.54,2.12.36.42.9.63,1.62.63.6,0,1.23-.2,1.88-.6.66-.4,1.27-1.08,1.82-2.03l.96.6c-.76,1.64-1.81,2.95-3.14,3.95-1.34,1-3.08,1.5-5.24,1.5-1.32,0-2.48-.17-3.5-.51-1.02-.34-1.87-.85-2.54-1.53-.88-.88-1.45-1.96-1.71-3.26-.26-1.3-.39-2.98-.39-5.06v-20.28h-4.79v-1.2h4.79v-7.48c1.87,0,3.6-.18,5.18-.54,1.57-.36,3.08-.94,4.52-1.74Z"/>
      <path class="cls-3" d="M101.93,120.03v26.08c0,1.68.27,2.81.81,3.41.54.6,1.47.9,2.78.9v1.26c-.8-.04-1.97-.09-3.53-.15s-3.13-.09-4.73-.09-3.22.03-4.88.09c-1.66.06-2.9.11-3.74.15v-1.26c1.32,0,2.24-.3,2.78-.9.54-.6.81-1.74.81-3.41v-18.91c0-1.79-.26-3.12-.78-3.98-.52-.86-1.46-1.29-2.81-1.29v-1.26c1.28.12,2.51.18,3.71.18,1.79,0,3.5-.07,5.12-.21,1.62-.14,3.1-.35,4.46-.63ZM96.67,105.08c1.87,0,3.34.42,4.4,1.26,1.06.84,1.59,2.05,1.59,3.65s-.53,2.81-1.59,3.65c-1.06.84-2.52,1.26-4.4,1.26s-3.34-.42-4.4-1.26c-1.06-.84-1.59-2.05-1.59-3.65s.53-2.81,1.59-3.65c1.06-.84,2.52-1.26,4.4-1.26Z"/>
      <path class="cls-3" d="M121.14,110.94v9.75h6.46v1.2h-6.46v24.47c0,1,.18,1.7.54,2.12.36.42.9.63,1.62.63.6,0,1.23-.2,1.88-.6.66-.4,1.27-1.08,1.82-2.03l.96.6c-.76,1.64-1.81,2.95-3.14,3.95-1.34,1-3.08,1.5-5.24,1.5-1.32,0-2.48-.17-3.5-.51-1.02-.34-1.87-.85-2.54-1.53-.88-.88-1.45-1.96-1.71-3.26-.26-1.3-.39-2.98-.39-5.06v-20.28h-4.79v-1.2h4.79v-7.48c1.87,0,3.6-.18,5.18-.54,1.57-.36,3.08-.94,4.52-1.74Z"/>
      <path class="cls-3" d="M142.32,104.9v19.98c1-1.83,2.32-3.13,3.98-3.89,1.65-.76,3.56-1.14,5.71-1.14,1.75,0,3.16.22,4.22.66,1.06.44,1.86,1,2.42,1.68.64.76,1.1,1.74,1.38,2.93.28,1.2.42,2.81.42,4.85v16.15c0,1.68.27,2.81.81,3.41.54.6,1.47.9,2.78.9v1.26c-.76-.04-1.92-.09-3.5-.15-1.58-.06-3.12-.09-4.64-.09-1.6,0-3.15.03-4.67.09-1.52.06-2.67.11-3.47.15v-1.26c1.12,0,1.89-.3,2.33-.9.44-.6.66-1.74.66-3.41v-19.02c0-.92-.1-1.71-.3-2.36-.2-.66-.53-1.16-.99-1.5-.46-.34-1.13-.51-2-.51s-1.77.23-2.54.69c-.78.46-1.41,1.12-1.88,1.97-.48.86-.72,1.85-.72,2.96v17.77c0,1.68.23,2.81.69,3.41.46.6,1.23.9,2.3.9v1.26c-.72-.04-1.79-.09-3.23-.15-1.44-.06-2.91-.09-4.43-.09-1.6,0-3.22.03-4.88.09-1.66.06-2.9.11-3.74.15v-1.26c1.32,0,2.24-.3,2.78-.9.54-.6.81-1.74.81-3.41v-34.04c0-1.79-.25-3.12-.75-3.98-.5-.86-1.45-1.29-2.84-1.29v-1.26c1.28.12,2.51.18,3.71.18,1.83,0,3.55-.07,5.15-.21,1.59-.14,3.07-.35,4.43-.63Z"/>
      <path class="cls-3" d="M188.68,119.85c1.71,0,3.1.22,4.16.66,1.06.44,1.88,1,2.48,1.68.64.76,1.1,1.75,1.38,2.96.28,1.22.42,2.82.42,4.82v16.15c0,1.68.23,2.81.69,3.41.46.6,1.27.9,2.42.9v1.26c-.76-.04-1.88-.09-3.35-.15-1.48-.06-2.91-.09-4.31-.09-1.52,0-2.99.03-4.43.09-1.44.06-2.51.11-3.23.15v-1.26c.92,0,1.56-.3,1.94-.9.38-.6.57-1.74.57-3.41v-19.02c0-.92-.08-1.71-.24-2.36-.16-.66-.44-1.16-.84-1.5-.4-.34-.98-.51-1.73-.51-.88,0-1.71.24-2.48.72-.78.48-1.4,1.15-1.85,2-.46.86-.69,1.82-.69,2.9v17.77c0,1.68.18,2.81.54,3.41.36.6,1.02.9,1.97.9v1.26c-.68-.04-1.7-.09-3.05-.15-1.36-.06-2.73-.09-4.13-.09-1.64,0-3.27.03-4.91.09-1.64.06-2.87.11-3.71.15v-1.26c1.32,0,2.24-.3,2.78-.9.54-.6.81-1.74.81-3.41v-18.91c0-1.79-.26-3.12-.78-3.98-.52-.86-1.46-1.29-2.81-1.29v-1.26c1.28.12,2.51.18,3.71.18,1.79,0,3.5-.07,5.12-.21,1.62-.14,3.1-.35,4.46-.63v4.85c.92-1.8,2.16-3.08,3.74-3.86,1.58-.78,3.36-1.17,5.35-1.17ZM206.69,119.85c1.71,0,3.1.22,4.16.66,1.06.44,1.88,1,2.48,1.68.64.76,1.1,1.75,1.38,2.96.28,1.22.42,2.82.42,4.82v16.15c0,1.68.27,2.81.81,3.41.54.6,1.47.9,2.78.9v1.26c-.8-.04-1.98-.09-3.56-.15-1.58-.06-3.1-.09-4.58-.09s-2.99.03-4.43.09-2.51.11-3.23.15v-1.26c.92,0,1.57-.3,1.94-.9.38-.6.57-1.74.57-3.41v-19.02c0-.92-.1-1.71-.3-2.36-.2-.66-.53-1.16-.99-1.5-.46-.34-1.13-.51-2-.51s-1.71.27-2.48.81c-.78.54-1.4,1.25-1.85,2.12-.46.88-.73,1.85-.81,2.93l-.36-2.99c1.08-2.23,2.49-3.75,4.25-4.55,1.75-.8,3.69-1.2,5.8-1.2Z"/>
      <path class="cls-3" d="M229.07,152.1c-1.83,0-3.35-.35-4.55-1.05-1.2-.7-2.07-1.62-2.63-2.78-.56-1.16-.84-2.39-.84-3.71,0-1.68.39-3.05,1.17-4.13.78-1.08,1.78-1.94,3.02-2.6,1.24-.66,2.53-1.21,3.89-1.64,1.36-.44,2.65-.87,3.89-1.29,1.24-.42,2.23-.92,2.99-1.5.76-.58,1.14-1.33,1.14-2.24v-4.96c0-.88-.13-1.71-.39-2.48-.26-.78-.72-1.41-1.38-1.91-.66-.5-1.57-.75-2.72-.75-.72,0-1.42.1-2.09.3-.68.2-1.28.52-1.79.96,1.28.44,2.22,1.1,2.84,1.97.62.88.93,1.85.93,2.93,0,1.48-.51,2.64-1.53,3.5-1.02.86-2.22,1.29-3.62,1.29-1.52,0-2.68-.48-3.5-1.44-.82-.96-1.23-2.11-1.23-3.47,0-1.2.3-2.2.9-3.02.6-.82,1.47-1.56,2.63-2.24,1.16-.68,2.55-1.18,4.19-1.5,1.63-.32,3.37-.48,5.2-.48s3.6.19,5.18.57c1.58.38,2.92,1.13,4.04,2.24.88.92,1.44,2.03,1.68,3.35.24,1.32.36,2.99.36,5.03v16.15c0,1,.09,1.69.27,2.06.18.38.47.57.87.57.36,0,.7-.1,1.02-.3.32-.2.64-.42.96-.66l.66,1.02c-.88.72-1.91,1.27-3.11,1.64-1.2.38-2.49.57-3.89.57-1.6,0-2.84-.21-3.74-.63-.9-.42-1.54-.99-1.91-1.71-.38-.72-.59-1.52-.63-2.39-.88,1.44-1.97,2.58-3.29,3.44-1.32.86-2.97,1.29-4.97,1.29ZM234.03,147.79c.64,0,1.21-.13,1.71-.39.5-.26.97-.71,1.41-1.35v-12.44c-.32.56-.75,1.09-1.29,1.59-.54.5-1.11,1-1.7,1.5-.6.5-1.17,1.05-1.71,1.64-.54.6-.98,1.31-1.32,2.12-.34.82-.51,1.81-.51,2.96,0,1.56.32,2.67.96,3.35.64.68,1.46,1.02,2.45,1.02Z"/>
      <path class="cls-3" d="M273.64,119.85c1.36,0,2.43.29,3.23.87.8.58,1.38,1.32,1.74,2.21.36.9.54,1.79.54,2.66,0,1.64-.47,2.95-1.41,3.95-.94,1-2.16,1.5-3.68,1.5-1.6,0-2.81-.37-3.65-1.11-.84-.74-1.26-1.73-1.26-2.96s.27-2.25.81-3.05c.54-.8,1.21-1.48,2-2.03-.6-.08-1.18,0-1.74.24-.64.16-1.24.46-1.79.9-.56.44-1.04.96-1.44,1.56-.4.6-.71,1.25-.93,1.94-.22.7-.33,1.41-.33,2.12v16.87c0,1.91.43,3.21,1.29,3.89.86.68,2.22,1.02,4.1,1.02v1.26c-.92-.04-2.27-.09-4.07-.15-1.79-.06-3.65-.09-5.56-.09-1.72,0-3.44.03-5.18.09-1.73.06-3.02.11-3.86.15v-1.26c1.32,0,2.24-.3,2.78-.9.54-.6.81-1.74.81-3.41v-18.91c0-1.79-.26-3.12-.78-3.98-.52-.86-1.46-1.29-2.81-1.29v-1.26c1.28.12,2.51.18,3.71.18,1.79,0,3.5-.07,5.12-.21,1.62-.14,3.1-.35,4.46-.63v4.91c.48-1.04,1.11-1.93,1.88-2.69.78-.76,1.68-1.35,2.69-1.76,1.02-.42,2.12-.63,3.32-.63Z"/>
      <path class="cls-3" d="M25.23,186.47l14.48,37.39c.6,1.4,1.23,2.37,1.88,2.93.66.56,1.25.86,1.76.9v1.2c-1.28-.08-2.8-.13-4.58-.15-1.77-.02-3.58-.03-5.41-.03s-3.73.01-5.44.03c-1.72.02-3.09.07-4.13.15v-1.2c2.03-.08,3.33-.43,3.89-1.05.56-.62.44-1.94-.36-3.98l-9.93-27.16,1.2-1.79-8.73,22.55c-.92,2.39-1.48,4.33-1.68,5.8-.2,1.48-.1,2.61.3,3.41.4.8,1.03,1.36,1.88,1.67.86.32,1.88.5,3.08.54v1.2c-1.4-.08-2.68-.13-3.86-.15-1.18-.02-2.44-.03-3.8-.03-.8,0-1.61.01-2.42.03-.82.02-1.53.07-2.12.15v-1.2c.88-.16,1.76-.72,2.66-1.67.9-.96,1.78-2.61,2.66-4.97l13.46-34.58c.8.08,1.67.12,2.6.12s1.8-.04,2.6-.12ZM28.34,211.66v1.2H10.52l.6-1.2h17.23Z"/>
      <path class="cls-3" d="M57.6,182.1v41.22c0,1.68.27,2.81.81,3.41.54.6,1.47.9,2.78.9v1.26c-.76-.04-1.91-.09-3.47-.15-1.56-.06-3.15-.09-4.79-.09s-3.22.03-4.88.09c-1.66.06-2.9.11-3.74.15v-1.26c1.32,0,2.24-.3,2.78-.9.54-.6.81-1.74.81-3.41v-34.1c0-1.76-.25-3.06-.75-3.92-.5-.86-1.45-1.29-2.84-1.29v-1.26c1.28.12,2.51.18,3.71.18,1.83,0,3.55-.07,5.14-.21,1.59-.14,3.07-.35,4.43-.63Z"/>
      <path class="cls-3" d="M86.26,197.06c1.71,0,3.1.22,4.16.66,1.06.44,1.88,1,2.48,1.68.64.76,1.1,1.74,1.38,2.96.28,1.22.42,2.82.42,4.82v16.15c0,1.68.23,2.81.69,3.41.46.6,1.27.9,2.42.9v1.26c-.76-.04-1.88-.09-3.35-.15-1.48-.06-2.91-.09-4.31-.09-1.52,0-2.99.03-4.43.09-1.44.06-2.51.11-3.23.15v-1.26c.92,0,1.56-.3,1.94-.9.38-.6.57-1.74.57-3.41v-19.03c0-.92-.08-1.7-.24-2.36-.16-.66-.44-1.16-.84-1.5-.4-.34-.98-.51-1.73-.51-.88,0-1.71.24-2.48.72-.78.48-1.4,1.15-1.85,2-.46.86-.69,1.82-.69,2.9v17.77c0,1.68.18,2.81.54,3.41.36.6,1.02.9,1.97.9v1.26c-.68-.04-1.7-.09-3.05-.15-1.36-.06-2.73-.09-4.13-.09-1.64,0-3.27.03-4.91.09-1.64.06-2.87.11-3.71.15v-1.26c1.32,0,2.24-.3,2.78-.9.54-.6.81-1.74.81-3.41v-18.91c0-1.79-.26-3.12-.78-3.98-.52-.86-1.46-1.29-2.81-1.29v-1.26c1.28.12,2.51.18,3.71.18,1.79,0,3.5-.07,5.12-.21,1.62-.14,3.1-.35,4.46-.63v4.85c.92-1.79,2.16-3.08,3.74-3.86,1.58-.78,3.36-1.17,5.35-1.17ZM104.26,197.06c1.71,0,3.1.22,4.16.66,1.06.44,1.88,1,2.48,1.68.64.76,1.1,1.74,1.38,2.96.28,1.22.42,2.82.42,4.82v16.15c0,1.68.27,2.81.81,3.41.54.6,1.47.9,2.78.9v1.26c-.8-.04-1.98-.09-3.56-.15-1.58-.06-3.1-.09-4.58-.09s-2.99.03-4.43.09c-1.44.06-2.51.11-3.23.15v-1.26c.92,0,1.57-.3,1.94-.9.38-.6.57-1.74.57-3.41v-19.03c0-.92-.1-1.7-.3-2.36-.2-.66-.53-1.16-.99-1.5-.46-.34-1.13-.51-2-.51s-1.71.27-2.48.81c-.78.54-1.4,1.25-1.85,2.12-.46.88-.73,1.86-.81,2.93l-.36-2.99c1.08-2.23,2.49-3.75,4.25-4.55,1.75-.8,3.69-1.2,5.8-1.2Z"/>
      <path class="cls-3" d="M149.14,197.24v25.13c0,1.79.27,3.12.81,3.98.54.86,1.47,1.29,2.78,1.29v1.26c-1.24-.12-2.47-.18-3.71-.18-1.83,0-3.54.06-5.12.18-1.58.12-3.06.34-4.46.66v-4.85c-.96,1.79-2.26,3.08-3.92,3.86-1.66.78-3.54,1.17-5.65,1.17-1.76,0-3.16-.22-4.22-.66-1.06-.44-1.87-1.02-2.42-1.74-.64-.72-1.1-1.68-1.38-2.9-.28-1.22-.42-2.82-.42-4.82v-15.2c0-1.79-.26-3.12-.78-3.98-.52-.86-1.46-1.29-2.81-1.29v-1.26c1.28.12,2.51.18,3.71.18,1.83,0,3.55-.07,5.15-.21,1.59-.14,3.07-.35,4.43-.63v25.25c0,.92.1,1.7.3,2.33.2.64.54,1.14,1.02,1.5.48.36,1.12.54,1.91.54.92,0,1.75-.24,2.51-.72.76-.48,1.38-1.15,1.85-2,.48-.86.72-1.82.72-2.9v-16.81c0-1.79-.26-3.12-.78-3.98-.52-.86-1.46-1.29-2.81-1.29v-1.26c1.28.12,2.51.18,3.71.18,1.83,0,3.55-.07,5.14-.21,1.59-.14,3.07-.35,4.43-.63Z"/>
      <path class="cls-3" d="M167.56,197.06c1.75,0,3.27.2,4.55.6,1.28.4,2.21.78,2.81,1.14,1.4.88,2.23.32,2.51-1.67h1.26c-.08,1.16-.14,2.54-.18,4.16-.04,1.62-.06,3.78-.06,6.49h-1.26c-.16-1.47-.51-2.93-1.05-4.37-.54-1.44-1.33-2.62-2.36-3.56-1.04-.94-2.39-1.41-4.07-1.41-1.08,0-1.98.32-2.72.96-.74.64-1.11,1.52-1.11,2.63,0,1.2.36,2.25,1.08,3.17.72.92,1.64,1.8,2.78,2.63,1.14.84,2.28,1.74,3.44,2.69,1.28.96,2.42,1.92,3.44,2.9,1.02.98,1.83,2.03,2.45,3.17.62,1.14.93,2.5.93,4.1,0,1.8-.54,3.37-1.62,4.73-1.08,1.36-2.49,2.41-4.25,3.17-1.76.76-3.71,1.14-5.86,1.14-1.32,0-2.46-.13-3.44-.39-.98-.26-1.79-.59-2.42-.99-.6-.28-1.13-.52-1.59-.72-.46-.2-.91-.34-1.35-.42-.4-.04-.74.14-1.02.54-.28.4-.5.92-.66,1.55h-1.26c.08-1.28.14-2.83.18-4.67.04-1.83.06-4.27.06-7.3h1.26c.24,2.15.69,4.05,1.35,5.68.66,1.64,1.55,2.92,2.66,3.86,1.12.94,2.43,1.41,3.95,1.41.68,0,1.31-.13,1.88-.39.58-.26,1.06-.67,1.44-1.23.38-.56.57-1.28.57-2.15,0-1.75-.56-3.22-1.68-4.4-1.12-1.18-2.49-2.46-4.13-3.86-1.28-1.08-2.46-2.13-3.56-3.17-1.1-1.04-1.99-2.17-2.69-3.41-.7-1.24-1.05-2.63-1.05-4.19,0-1.79.51-3.32,1.53-4.58,1.02-1.26,2.34-2.21,3.98-2.87,1.63-.66,3.39-.99,5.26-.99Z"/>
      <path class="cls-3" d="M196.52,188.15v9.75h6.46v1.2h-6.46v24.47c0,1,.18,1.7.54,2.12.36.42.9.63,1.62.63.6,0,1.23-.2,1.88-.6.66-.4,1.27-1.08,1.82-2.03l.96.6c-.76,1.64-1.81,2.95-3.14,3.95-1.34,1-3.08,1.5-5.24,1.5-1.32,0-2.48-.17-3.5-.51-1.02-.34-1.87-.85-2.54-1.53-.88-.88-1.45-1.96-1.71-3.26-.26-1.3-.39-2.98-.39-5.06v-20.28h-4.79v-1.2h4.79v-7.48c1.87,0,3.6-.18,5.18-.54,1.57-.36,3.08-.94,4.52-1.73Z"/>
      <path class="cls-3" d="M218.3,197.06c1.64,0,3.1.16,4.4.48,1.3.32,2.48.98,3.56,1.97l-.78.66c-.56-.68-1.23-1.17-2-1.47-.78-.3-1.57-.45-2.36-.45-1.95,0-3.43,1.26-4.43,3.77-1,2.51-1.5,6.3-1.5,11.37,0,3.43.21,6.13.63,8.11.42,1.97,1,3.36,1.74,4.16.74.8,1.56,1.2,2.48,1.2,1.24,0,2.34-.49,3.32-1.47.98-.98,1.5-2.28,1.59-3.92l.12,2.51c-.68,1.91-1.67,3.35-2.96,4.31-1.3.96-2.88,1.44-4.76,1.44-2.27,0-4.35-.57-6.22-1.71-1.88-1.14-3.35-2.92-4.43-5.35-1.08-2.43-1.62-5.58-1.62-9.45,0-3.63.56-6.63,1.68-9,1.12-2.37,2.66-4.16,4.64-5.36,1.97-1.2,4.28-1.79,6.91-1.79ZM234.09,196.94l.84.54c-.16.52-.27,1.07-.33,1.64-.06.58-.09,1.15-.09,1.71v33.44c0,1.63.26,2.74.78,3.32.52.58,1.42.87,2.69.87v1.26c-.76-.04-1.88-.09-3.35-.15-1.48-.06-2.99-.09-4.55-.09-2.07,0-4.08.03-6.01.09-1.94.06-3.44.11-4.52.15v-1.26c1.68,0,2.97-.32,3.89-.96.92-.64,1.38-1.91,1.38-3.83v-35c1.16.28,2.34.38,3.56.3,1.22-.08,2.33-.31,3.35-.69,1.02-.38,1.8-.83,2.36-1.35Z"/>
      <path class="cls-3" d="M252.34,182.1v46.25c-1.16-.36-2.33-.51-3.53-.45-1.2.06-2.29.26-3.29.6-1,.34-1.79.79-2.39,1.35l-.9-.54c.2-.56.32-1.12.36-1.67.04-.56.06-1.12.06-1.68v-36.67c0-1.79-.25-3.12-.75-3.98-.5-.86-1.45-1.29-2.84-1.29v-1.26c1.28.12,2.51.18,3.71.18,1.83,0,3.55-.07,5.15-.21,1.59-.14,3.07-.35,4.43-.63ZM261.49,197.06c3.03,0,5.55,1.25,7.57,3.74,2.01,2.49,3.02,6.33,3.02,11.52,0,4.31-.63,7.75-1.88,10.32-1.26,2.57-2.93,4.4-5.03,5.48-2.09,1.08-4.4,1.62-6.91,1.62-1.48,0-2.84-.18-4.1-.54-1.26-.36-2.4-1.02-3.44-1.98l.78-.6c.64.64,1.36,1.11,2.15,1.41.8.3,1.58.45,2.33.45,2.03,0,3.54-1.25,4.52-3.74.98-2.49,1.47-6.27,1.47-11.34,0-3.47-.19-6.18-.57-8.14-.38-1.95-.92-3.34-1.62-4.16-.7-.82-1.53-1.23-2.48-1.23-1.24,0-2.36.49-3.38,1.47-1.02.98-1.57,2.3-1.65,3.98l-.12-2.51c.8-1.91,2.01-3.35,3.65-4.31,1.64-.96,3.53-1.44,5.68-1.44Z"/>
      <path class="cls-3" d="M288.17,182.1v41.22c0,1.68.27,2.81.81,3.41.54.6,1.47.9,2.78.9v1.26c-.76-.04-1.91-.09-3.47-.15-1.56-.06-3.15-.09-4.79-.09s-3.22.03-4.88.09c-1.66.06-2.9.11-3.74.15v-1.26c1.32,0,2.24-.3,2.78-.9.54-.6.81-1.74.81-3.41v-34.1c0-1.76-.25-3.06-.75-3.92-.5-.86-1.45-1.29-2.84-1.29v-1.26c1.28.12,2.51.18,3.71.18,1.83,0,3.55-.07,5.14-.21,1.59-.14,3.07-.35,4.43-.63Z"/>
      <path class="cls-3" d="M308.75,228.89v-1.2c1.24-.08,2.16-.24,2.78-.48.62-.24,1.04-.72,1.26-1.44.22-.72.33-1.79.33-3.23v-29.67c0-1.47-.11-2.56-.33-3.26-.22-.7-.64-1.18-1.26-1.44-.62-.26-1.55-.41-2.78-.45v-1.2c1.08.04,2.51.08,4.31.12,1.79.04,3.71.06,5.74.06,1.75,0,3.5-.02,5.24-.06,1.73-.04,3.16-.08,4.28-.12v1.2c-1.24.04-2.17.19-2.81.45-.64.26-1.06.74-1.26,1.44-.2.7-.3,1.79-.3,3.26v29.67c0,1.44.11,2.51.33,3.23.22.72.64,1.2,1.26,1.44.62.24,1.55.4,2.78.48v1.2c-1.12-.08-2.54-.13-4.28-.15-1.74-.02-3.48-.03-5.24-.03-2.03,0-3.95.01-5.74.03-1.79.02-3.23.07-4.31.15ZM319.46,208.89v-2.6h23.63v2.6h-23.63ZM334.24,228.89v-1.2c1.24-.08,2.16-.24,2.78-.48.62-.24,1.04-.72,1.26-1.44.22-.72.33-1.79.33-3.23v-29.67c0-1.47-.11-2.56-.33-3.26-.22-.7-.64-1.18-1.26-1.44-.62-.26-1.55-.41-2.78-.45v-1.2c1.16.04,2.65.08,4.49.12,1.83.04,3.67.06,5.5.06,1.95,0,3.78-.02,5.47-.06,1.69-.04,3.06-.08,4.1-.12v1.2c-1.24.04-2.17.19-2.81.45-.64.26-1.06.74-1.26,1.44-.2.7-.3,1.79-.3,3.26v29.67c0,1.44.11,2.51.33,3.23.22.72.64,1.2,1.26,1.44.62.24,1.55.4,2.78.48v1.2c-1.04-.08-2.4-.13-4.1-.15-1.7-.02-3.52-.03-5.47-.03-1.83,0-3.67.01-5.5.03-1.83.02-3.33.07-4.49.15Z"/>
      <path class="cls-3" d="M371.69,197.06c2.99,0,5.61.53,7.87,1.59,2.25,1.06,4.01,2.78,5.26,5.18,1.26,2.39,1.88,5.58,1.88,9.57s-.63,7.18-1.88,9.57c-1.26,2.39-3.01,4.12-5.26,5.18-2.25,1.06-4.88,1.59-7.87,1.59s-5.55-.53-7.81-1.59c-2.25-1.06-4.02-2.78-5.29-5.18-1.28-2.39-1.91-5.58-1.91-9.57s.64-7.18,1.91-9.57c1.28-2.39,3.04-4.12,5.29-5.18,2.25-1.06,4.86-1.59,7.81-1.59ZM371.69,198.26c-1.4,0-2.56,1.19-3.5,3.56-.94,2.37-1.41,6.23-1.41,11.58s.47,9.2,1.41,11.58c.94,2.37,2.1,3.56,3.5,3.56s2.61-1.19,3.53-3.56c.92-2.37,1.38-6.23,1.38-11.58s-.46-9.2-1.38-11.58c-.92-2.37-2.09-3.56-3.53-3.56Z"/>
      <path class="cls-3" d="M402.74,182.1v41.22c0,1.68.27,2.81.81,3.41.54.6,1.47.9,2.78.9v1.26c-.76-.04-1.91-.09-3.47-.15-1.56-.06-3.15-.09-4.79-.09s-3.22.03-4.88.09c-1.66.06-2.9.11-3.74.15v-1.26c1.32,0,2.24-.3,2.78-.9.54-.6.81-1.74.81-3.41v-34.1c0-1.76-.25-3.06-.75-3.92-.5-.86-1.45-1.29-2.84-1.29v-1.26c1.28.12,2.51.18,3.71.18,1.83,0,3.55-.07,5.14-.21,1.59-.14,3.07-.35,4.43-.63Z"/>
      <path class="cls-3" d="M422.43,197.06c1.76,0,3.27.25,4.55.75,1.28.5,2.33,1.33,3.17,2.48l-.72.6c-.52-.68-1.15-1.18-1.88-1.5-.74-.32-1.51-.48-2.3-.48-1.91,0-3.4,1.19-4.46,3.56-1.06,2.37-1.59,6.01-1.59,10.92,0,3.43.21,6.13.63,8.11.42,1.97,1,3.36,1.73,4.16.74.8,1.57,1.2,2.48,1.2,1.24,0,2.34-.47,3.32-1.41.98-.94,1.49-2.18,1.53-3.74l.18,2.51c-.72,1.83-1.71,3.21-2.96,4.13-1.26.92-2.86,1.38-4.82,1.38-2.31,0-4.4-.58-6.25-1.74-1.85-1.16-3.31-2.94-4.37-5.36-1.06-2.41-1.59-5.55-1.59-9.42,0-3.63.57-6.63,1.7-9,1.14-2.37,2.71-4.16,4.73-5.36,2.01-1.2,4.32-1.79,6.91-1.79ZM438.52,182.1v40.2c0,1.79.27,3.12.81,3.98.54.86,1.47,1.29,2.78,1.29v1.26c-1.24-.12-2.47-.18-3.71-.18-1.79,0-3.49.06-5.09.18-1.6.12-3.09.34-4.49.66v-40.2c0-1.79-.25-3.12-.75-3.98-.5-.86-1.45-1.29-2.84-1.29v-1.26c1.28.12,2.51.18,3.71.18,1.83,0,3.55-.07,5.15-.21,1.59-.14,3.07-.35,4.43-.63Z"/>
      <path class="cls-3" d="M457.96,197.24v26.08c0,1.68.27,2.81.81,3.41.54.6,1.47.9,2.78.9v1.26c-.8-.04-1.98-.09-3.53-.15-1.56-.06-3.13-.09-4.73-.09s-3.22.03-4.88.09c-1.66.06-2.9.11-3.74.15v-1.26c1.32,0,2.24-.3,2.78-.9.54-.6.81-1.74.81-3.41v-18.91c0-1.79-.26-3.12-.78-3.98-.52-.86-1.46-1.29-2.81-1.29v-1.26c1.28.12,2.51.18,3.71.18,1.79,0,3.5-.07,5.12-.21,1.62-.14,3.1-.35,4.46-.63ZM452.7,182.28c1.87,0,3.34.42,4.4,1.26,1.06.84,1.59,2.05,1.59,3.65s-.53,2.81-1.59,3.65c-1.06.84-2.52,1.26-4.4,1.26s-3.34-.42-4.4-1.26c-1.06-.84-1.59-2.05-1.59-3.65s.53-2.81,1.59-3.65c1.06-.84,2.52-1.26,4.4-1.26Z"/>
      <path class="cls-3" d="M487.1,197.06c1.75,0,3.16.22,4.22.66,1.06.44,1.86,1,2.42,1.68.64.76,1.11,1.73,1.41,2.93.3,1.2.45,2.81.45,4.85v16.15c0,1.68.27,2.81.81,3.41.54.6,1.47.9,2.78.9v1.26c-.8-.04-1.98-.09-3.56-.15-1.58-.06-3.1-.09-4.58-.09-1.64,0-3.21.03-4.73.09-1.52.06-2.65.11-3.41.15v-1.26c1.12,0,1.89-.3,2.33-.9.44-.6.66-1.74.66-3.41v-19.03c0-.92-.1-1.7-.3-2.36s-.54-1.16-1.02-1.5c-.48-.34-1.16-.51-2.03-.51s-1.76.24-2.54.72c-.78.48-1.4,1.15-1.86,2-.46.86-.69,1.82-.69,2.9v17.77c0,1.68.22,2.81.66,3.41.44.6,1.22.9,2.33.9v1.26c-.76-.04-1.85-.09-3.29-.15-1.44-.06-2.89-.09-4.37-.09-1.64,0-3.27.03-4.91.09-1.64.06-2.87.11-3.71.15v-1.26c1.32,0,2.24-.3,2.78-.9.54-.6.81-1.74.81-3.41v-18.91c0-1.79-.26-3.12-.78-3.98-.52-.86-1.46-1.29-2.81-1.29v-1.26c1.28.12,2.51.18,3.71.18,1.79,0,3.5-.07,5.12-.21,1.62-.14,3.1-.35,4.46-.63v4.85c.96-1.83,2.26-3.13,3.92-3.89,1.66-.76,3.56-1.14,5.71-1.14Z"/>
      <path class="cls-3" d="M513.2,240.14c-2.59,0-4.87-.21-6.82-.63-1.95-.42-3.47-1.04-4.55-1.85-1.08-.82-1.62-1.81-1.62-2.96s.56-2.28,1.67-3.26c1.12-.98,2.83-1.74,5.14-2.3l.54.96c-.68.68-1.16,1.35-1.44,2s-.42,1.31-.42,1.94c0,1.64.74,2.89,2.21,3.77,1.47.88,3.51,1.32,6.1,1.32,1.79,0,3.35-.25,4.67-.75,1.32-.5,2.33-1.21,3.05-2.12.72-.92,1.08-2,1.08-3.23,0-1.16-.43-2.13-1.29-2.93-.86-.8-2.58-1.2-5.18-1.2h-3.47c-1.72,0-3.19-.22-4.43-.66-1.24-.44-2.18-1.06-2.84-1.85-.66-.8-.99-1.79-.99-2.99,0-1.79.7-3.32,2.09-4.58,1.4-1.26,3.33-2.42,5.8-3.5l.54.48c-.6.36-1.17.78-1.71,1.26-.54.48-.81,1.12-.81,1.91,0,1.28.76,1.91,2.27,1.91h6.16c2.39,0,4.51.27,6.34.81,1.83.54,3.28,1.42,4.34,2.63,1.06,1.22,1.59,2.8,1.59,4.76s-.64,3.83-1.91,5.5c-1.28,1.68-3.24,3.02-5.89,4.04-2.65,1.02-6.07,1.53-10.26,1.53ZM513.98,216.14c-2.39,0-4.52-.34-6.37-1.02-1.86-.68-3.32-1.72-4.4-3.14-1.08-1.42-1.62-3.22-1.62-5.41s.54-3.99,1.62-5.38c1.08-1.4,2.54-2.43,4.4-3.11,1.85-.68,3.98-1.02,6.37-1.02s4.47.34,6.34,1.02c1.87.68,3.35,1.71,4.43,3.11,1.08,1.4,1.62,3.19,1.62,5.38s-.54,4-1.62,5.41c-1.08,1.42-2.55,2.46-4.43,3.14-1.88.68-3.99,1.02-6.34,1.02ZM513.98,215.07c.88,0,1.59-.62,2.12-1.86.54-1.24.81-3.45.81-6.64s-.27-5.39-.81-6.61c-.54-1.22-1.25-1.83-2.12-1.83s-1.64.61-2.15,1.83c-.52,1.22-.78,3.42-.78,6.61s.26,5.41.78,6.64c.52,1.24,1.23,1.86,2.15,1.86ZM523.49,202.26l-1.26-.42c.64-1.63,1.62-2.96,2.96-3.98,1.33-1.02,2.8-1.53,4.4-1.53,1.32,0,2.3.36,2.96,1.08.66.72.99,1.66.99,2.81s-.31,2.04-.93,2.66c-.62.62-1.35.93-2.18.93-.72,0-1.38-.25-1.97-.75-.6-.5-.94-1.26-1.02-2.27-.08-1.02.28-2.3,1.08-3.86l.36.36c-1.48.52-2.6,1.16-3.38,1.91-.78.76-1.45,1.78-2,3.05Z"/>
    </g>
  </g>
</svg>