<?xml version="1.0" encoding="UTF-8"?>
<svg id="Layer_1" data-name="Layer 1" xmlns="http://www.w3.org/2000/svg" viewBox="0 0 491.95 28.36">
  <defs>
    <style>
      .cls-1 {
        fill: #c8a977;
        stroke-width: 0px;
      }
    </style>
  </defs>
  <g>
    <path class="cls-1" d="M334.98,5.99v4.8h-4.8v-4.8h4.8M335.48,5.49h-5.8v5.8h5.8v-5.8h0Z"/>
    <path class="cls-1" d="M323.38.5v17.08h11.59v4.8h-16.39V.5h4.8M323.88,0h-5.8v22.88h17.39v-5.8h-11.59V0h0Z"/>
    <path class="cls-1" d="M346.57.5v17.08h11.59v4.8h-11.59v5.49h-4.8V.5h4.8M347.07,0h-5.8v28.36h5.8v-5.49h11.59v-5.8h-11.59V0h0Z"/>
    <path class="cls-1" d="M358.16,5.99v4.8h-4.8v-4.8h4.8M358.66,5.49h-5.8v5.8h5.8v-5.8h0Z"/>
    <path class="cls-1" d="M311.79.5v27.36h-4.8V.5h4.8M312.29,0h-5.8v28.36h5.8V0h0Z"/>
    <path class="cls-1" d="M288.61.5v17.08h11.59v4.8h-45.36v-4.8h28.98v-6.8h-34.44v-4.8h34.44V.5h4.8M289.11,0h-5.8v5.49h-34.44v5.8h34.44v5.8h-28.98v5.8h46.36v-5.8h-11.59V0h0Z"/>
    <path class="cls-1" d="M300.2,5.99v4.8h-4.8v-4.8h4.8M300.7,5.49h-5.8v5.8h5.8v-5.8h0Z"/>
    <path class="cls-1" d="M433.5.5v17.08h11.59v4.8h-33.77v-4.8h17.39v-6.8h-24.18v17.08h-4.8V.5h4.8v5.49h24.18V.5h4.8M434,0h-5.8v5.49h-23.18V0h-5.8v28.36h5.8V11.28h23.18v5.8h-17.39v5.8h34.77v-5.8h-11.59V0h0Z"/>
    <path class="cls-1" d="M479.86.5v17.08h11.59v4.8h-11.59v5.49h-4.8V.5h4.8M480.36,0h-5.8v28.36h5.8v-5.49h11.59v-5.8h-11.59V0h0Z"/>
    <path class="cls-1" d="M491.45,5.99v4.8h-4.8v-4.8h4.8M491.95,5.49h-5.8v5.8h5.8v-5.8h0Z"/>
    <path class="cls-1" d="M445.09,5.99v4.8h-4.8v-4.8h4.8M445.59,5.49h-5.8v5.8h5.8v-5.8h0Z"/>
    <path class="cls-1" d="M381.34.5v21.88h-11.59v5.49h-4.8V.5h4.8v17.08h6.8V.5h4.8M381.84,0h-5.8v17.08h-5.8V0h-5.8v28.36h5.8v-5.49h11.59V0h0Z"/>
    <path class="cls-1" d="M392.93.5v27.36h-4.8V.5h4.8M393.43,0h-5.8v28.36h5.8V0h0Z"/>
    <path class="cls-1" d="M468.27,5.99v4.8h-4.8v-4.8h4.8M468.77,5.49h-5.8v5.8h5.8v-5.8h0Z"/>
    <path class="cls-1" d="M456.68.5v17.08h11.59v4.8h-16.39V.5h4.8M457.18,0h-5.8v22.88h17.39v-5.8h-11.59V0h0Z"/>
  </g>
  <g>
    <path class="cls-1" d="M86.1,5.99v4.8h-4.8v-4.8h4.8M86.6,5.49h-5.8v5.8h5.8v-5.8h0Z"/>
    <path class="cls-1" d="M74.51.5v17.08h11.59v4.8h-16.39V.5h4.8M75.01,0h-5.8v22.88h17.39v-5.8h-11.59V0h0Z"/>
    <path class="cls-1" d="M97.69.5v17.08h11.59v4.8h-11.59v5.49h-4.8V.5h4.8M98.19,0h-5.8v28.36h5.8v-5.49h11.59v-5.8h-11.59V0h0Z"/>
    <path class="cls-1" d="M109.28,5.99v4.8h-4.8v-4.8h4.8M109.78,5.49h-5.8v5.8h5.8v-5.8h0Z"/>
    <path class="cls-1" d="M62.92.5v27.36h-4.8V.5h4.8M63.42,0h-5.8v28.36h5.8V0h0Z"/>
    <path class="cls-1" d="M39.74.5v17.08h11.59v4.8H5.96v-4.8h28.98v-6.8H.5v-4.8h34.44V.5h4.8M40.24,0h-5.8v5.49H0v5.8h34.44v5.8H5.46v5.8h46.36v-5.8h-11.59V0h0Z"/>
    <path class="cls-1" d="M51.33,5.99v4.8h-4.8v-4.8h4.8M51.83,5.49h-5.8v5.8h5.8v-5.8h0Z"/>
    <path class="cls-1" d="M184.62.5v17.08h11.59v4.8h-33.77v-4.8h17.39v-6.8h-24.18v17.08h-4.8V.5h4.8v5.49h24.18V.5h4.8M185.12,0h-5.8v5.49h-23.18V0h-5.8v28.36h5.8V11.28h23.18v5.8h-17.39v5.8h34.77v-5.8h-11.59V0h0Z"/>
    <path class="cls-1" d="M230.99.5v17.08h11.59v4.8h-11.59v5.49h-4.8V.5h4.8M231.49,0h-5.8v28.36h5.8v-5.49h11.59v-5.8h-11.59V0h0Z"/>
    <path class="cls-1" d="M242.58,5.99v4.8h-4.8v-4.8h4.8M243.08,5.49h-5.8v5.8h5.8v-5.8h0Z"/>
    <path class="cls-1" d="M196.22,5.99v4.8h-4.8v-4.8h4.8M196.72,5.49h-5.8v5.8h5.8v-5.8h0Z"/>
    <path class="cls-1" d="M132.46.5v21.88h-11.59v5.49h-4.8V.5h4.8v17.08h6.8V.5h4.8M132.96,0h-5.8v17.08h-5.8V0h-5.8v28.36h5.8v-5.49h11.59V0h0Z"/>
    <path class="cls-1" d="M144.06.5v27.36h-4.8V.5h4.8M144.56,0h-5.8v28.36h5.8V0h0Z"/>
    <path class="cls-1" d="M219.4,5.99v4.8h-4.8v-4.8h4.8M219.9,5.49h-5.8v5.8h5.8v-5.8h0Z"/>
    <path class="cls-1" d="M207.81.5v17.08h11.59v4.8h-16.39V.5h4.8M208.31,0h-5.8v22.88h17.39v-5.8h-11.59V0h0Z"/>
  </g>
</svg>