<?xml version="1.0" encoding="UTF-8"?>
<svg id="Layer_1" data-name="Layer 1" xmlns="http://www.w3.org/2000/svg" xmlns:xlink="http://www.w3.org/1999/xlink" viewBox="0 0 800.65 234.16">
  <defs>
    <style>
      .cls-1 {
        fill: url(#linear-gradient-2);
      }

      .cls-2 {
        fill: url(#linear-gradient-4);
      }

      .cls-3 {
        fill: url(#linear-gradient-3);
      }

      .cls-4 {
        fill: url(#linear-gradient-5);
      }

      .cls-5 {
        fill: url(#linear-gradient-8);
      }

      .cls-6 {
        fill: url(#linear-gradient-7);
      }

      .cls-7 {
        fill: url(#linear-gradient-6);
      }

      .cls-8 {
        fill: #f2734f;
      }

      .cls-9 {
        fill: url(#linear-gradient);
      }
    </style>
    <linearGradient id="linear-gradient" x1="683.57" y1="227.52" x2="683.57" y2="19.08" gradientUnits="userSpaceOnUse">
      <stop offset="0" stop-color="#0d0035"/>
      <stop offset="1" stop-color="#f2734f"/>
    </linearGradient>
    <linearGradient id="linear-gradient-2" x1="729.48" y1="35.78" x2="800.65" y2="35.78" gradientUnits="userSpaceOnUse">
      <stop offset="0" stop-color="#0d0035"/>
      <stop offset="1" stop-color="#0d0035"/>
    </linearGradient>
    <linearGradient id="linear-gradient-3" x1="0" y1="127.76" x2="79.81" y2="127.76" xlink:href="#linear-gradient-2"/>
    <linearGradient id="linear-gradient-4" x1="99.77" y1="121.75" x2="191.36" y2="121.75" xlink:href="#linear-gradient-2"/>
    <linearGradient id="linear-gradient-5" x1="219.25" y1="89.66" x2="241.61" y2="89.66" xlink:href="#linear-gradient-2"/>
    <linearGradient id="linear-gradient-6" x1="238.48" y1="138.47" x2="494.99" y2="138.47" xlink:href="#linear-gradient-2"/>
    <linearGradient id="linear-gradient-7" x1="432.73" y1="17.58" x2="470.23" y2="17.58" xlink:href="#linear-gradient-2"/>
    <linearGradient id="linear-gradient-8" x1="278.94" y1="36.03" x2="399.4" y2="36.03" xlink:href="#linear-gradient-2"/>
  </defs>
  <path class="cls-9" d="M566.48,0v234.16h234.16V0h-234.16ZM729.48,163h-91.83v-91.83h91.83v91.83Z"/>
  <rect class="cls-1" x="729.48" y=".2" width="71.17" height="71.17"/>
  <g>
    <path class="cls-3" d="M19.95,72.11l-1.2.72v29.57C6.25,117.06,0,131.73,0,146.39c0,22.84,14.9,37.02,38.7,37.02,25.72,0,41.11-19.23,41.11-49.28,0-27.65-12.74-43.75-59.86-62.02ZM39.91,151.2c-18.27,0-29.33-5.29-29.33-13.94,0-7.45,6.73-16.35,20.43-26.68,25.96,9.38,37.98,18.99,37.98,26.92,0,8.65-10.82,13.7-29.09,13.7Z"/>
    <path class="cls-2" d="M143.04,60.09l-11.78,26.93c28.61,25.72,45.68,43.03,50.73,56.74-8.41,4.57-21.88,7.45-40.39,7.45-10.82,0-18.27-1.2-22.12-3.61-3.85-2.4-6.01-6.97-6.25-13.94l-.24-5.05h-8.65c-2.16,7.93-4.57,17.31-4.57,25.24,0,18.03,10.58,29.57,36.3,29.57,21.88,0,40.63-5.77,50.24-14.66,3.61-13.46,5.05-23.8,5.05-35.34,0-21.4-13.46-45.2-40.15-73.32h-8.17Z"/>
    <polygon class="cls-4" points="241.61 -.01 232.71 -.01 219.25 28.36 224.78 179.33 233.67 179.33 241.61 148.08 241.61 -.01"/>
    <path class="cls-7" d="M494.99,110.46c0-37.74-17.31-67.55-40.39-67.55-19.95,0-39.43,27.17-39.43,54.57,0,20.19,12.26,32.69,33.42,32.69,7.93,0,16.11-1.44,24.04-5.53l7.45-20.92c3.13,7.93,4.57,16.35,4.57,25.24,0,1.2,0,2.4-.24,4.09-17.31,6.97-45.2,11.06-76.21,11.06h-59.14c-18.27,0-27.17-9.38-41.11-41.11h-8.17l-11.78,26.93c8.41,16.35,15.39,27.41,23.08,34.86-6.25,17.31-30.53,31.49-72.6,42.55v8.65l47.84,18.03c16.35-22.12,26.92-43.51,31.97-63.47,6.91,4.05,14.78,5.74,24.52,5.76h0s19.71,0,19.71,0h41.84c32.49-.27,62.48-5.76,81.48-15.15,6.01-16.11,9.14-31.49,9.14-50.72ZM449.79,100.13c-16.11,0-24.04-3.37-24.04-9.86,0-4.33,1.92-8.17,6.01-11.54,4.09-3.37,8.65-5.05,13.7-5.05,12.74,0,24.76,9.62,31.73,23.32-6.97,1.92-17.07,3.13-27.41,3.13Z"/>
    <polygon class="cls-6" points="452.92 35.25 470.23 17.7 452.44 -.09 450.04 -.09 432.73 17.7 450.52 35.25 452.92 35.25"/>
    <polygon class="cls-5" points="395.26 14.49 399.4 1.65 397.74 -.01 283.29 57.57 278.94 70.41 280.6 72.07 395.26 14.49"/>
  </g>
  <g>
    <g>
      <polygon class="cls-8" points="6.63 34.76 23.94 16.97 26.34 16.97 44.13 34.76 26.83 52.31 24.42 52.31 6.63 34.76"/>
      <polygon class="cls-8" points="43.21 34.76 60.51 16.97 62.92 16.97 80.71 34.76 63.4 52.31 61 52.31 43.21 34.76"/>
    </g>
    <g>
      <path class="cls-8" d="M328.83,234.03v-23.79h16.17v4.08h-10.9v5.8h10.12v4.05h-10.12v9.85h-5.27Z"/>
      <path class="cls-8" d="M343.75,234.03l10.93-23.79h4.35l11.07,23.79h-5.33l-2.87-6.61,2.06,1.45h-14.14l2.09-1.45-2.87,6.61h-5.3ZM356.84,215.77l-4.35,10.33-.91-1.28h10.63l-.78,1.28-4.45-10.33h-.14Z"/>
      <path class="cls-8" d="M372.16,234.03v-23.79h10.8c2.68,0,4.75.64,6.21,1.91,1.46,1.27,2.19,3.04,2.19,5.32,0,1.48-.33,2.76-1,3.83-.66,1.07-1.61,1.89-2.83,2.46-1.23.57-2.69.86-4.4.86l.4-.74h1.38c.97,0,1.83.26,2.58.78s1.38,1.27,1.87,2.26l3.54,7.12h-5.81l-3.68-7.66c-.27-.65-.69-1.08-1.27-1.3s-1.23-.32-1.97-.32h-2.77v9.28h-5.27ZM377.43,220.97h4.62c1.37,0,2.42-.28,3.14-.84.72-.56,1.08-1.39,1.08-2.5s-.36-1.93-1.08-2.48c-.72-.55-1.77-.83-3.14-.83h-4.62v6.65Z"/>
      <path class="cls-8" d="M392.79,234.03l10.93-23.79h4.35l11.07,23.79h-5.33l-2.87-6.61,2.06,1.45h-14.14l2.09-1.45-2.87,6.61h-5.3ZM405.88,215.77l-4.35,10.33-.91-1.28h10.63l-.78,1.28-4.45-10.33h-.14Z"/>
      <path class="cls-8" d="M421.2,234.03v-23.79h9.08c2.77,0,5.11.47,7.02,1.42,1.91.94,3.36,2.3,4.34,4.07.98,1.77,1.47,3.9,1.47,6.4s-.49,4.6-1.47,6.38c-.98,1.78-2.42,3.14-4.34,4.1s-4.25,1.43-7.02,1.43h-9.08ZM426.47,229.71h3.51c2.65,0,4.63-.62,5.92-1.87,1.29-1.25,1.94-3.16,1.94-5.72s-.65-4.5-1.94-5.74c-1.29-1.24-3.27-1.86-5.92-1.86h-3.51v15.19Z"/>
      <path class="cls-8" d="M443.85,234.03l10.93-23.79h4.35l11.07,23.79h-5.33l-2.87-6.61,2.06,1.45h-14.14l2.09-1.45-2.87,6.61h-5.3ZM456.94,215.77l-4.35,10.33-.91-1.28h10.63l-.78,1.28-4.46-10.33h-.13Z"/>
      <path class="cls-8" d="M472.26,234.03v-23.79h5.26v9.55h10.9v-9.55h5.3v23.79h-5.3v-9.89h-10.9v9.89h-5.26Z"/>
    </g>
  </g>
</svg>