<?xml version="1.0" encoding="UTF-8"?>
<svg id="Layer_1" data-name="Layer 1" xmlns="http://www.w3.org/2000/svg" viewBox="0 0 751.34 194.25">
  <defs>
    <style>
      .cls-1 {
        fill: #696868;
      }

      .cls-2 {
        fill: #00b5b5;
      }
    </style>
  </defs>
  <g>
    <path class="cls-2" d="M387.35,40.87h-12.12v-.65h.77c1.2,0,1.97-.39,2.31-1.18.13-.3.19-1.01.19-2.15v-15.25c0-.94-.02-1.51-.05-1.69-.1-.58-.4-1.02-.89-1.32-.39-.22-.91-.32-1.56-.32h-.77v-.65h12.12v.65h-.77c-1.2,0-1.97.39-2.33,1.18-.13.28-.19,1-.19,2.15v15.25c0,.93.02,1.5.05,1.69.11.58.42,1.02.92,1.3.38.23.89.34,1.54.34h.77v.65Z"/>
    <path class="cls-1" d="M406.63,40.87h-8.1v-.63c.6-.08,1.04-.33,1.3-.75.18-.28.27-.99.27-2.12v-7.11c0-.99,0-1.57-.02-1.73-.08-.76-.3-1.28-.65-1.55-.25-.18-.53-.27-.82-.27-.98,0-1.89.7-2.74,2.1v8.56c0,.97.05,1.6.15,1.9.2.55.68.87,1.42.97v.63h-8.1v-.63c.67-.07,1.15-.28,1.44-.65.19-.25.29-.99.29-2.22v-9.02c0-1.02-.06-1.67-.17-1.95-.22-.49-.74-.78-1.56-.89v-.65h6.52v2.07c1.57-1.7,3.17-2.55,4.79-2.55,2.09,0,3.41,1,3.95,3.01.18.67.27,1.92.27,3.74v6.22c0,1.04.06,1.69.17,1.97.2.51.72.82,1.56.91v.63Z"/>
    <path class="cls-1" d="M418.99,37.81c-.92,2.19-2.43,3.29-4.5,3.29-.88,0-1.68-.25-2.41-.74-.76-.51-1.27-1.18-1.51-2-.11-.4-.17-1.45-.17-3.15v-8.65h-2.09v-.6c2.74-1.93,4.84-4.25,6.32-6.93h.56v5.85h3.8v1.68h-3.8v9.88c0,1.33.19,2.15.58,2.43.22.17.42.26.6.26.74,0,1.44-.56,2.11-1.68l.51.38Z"/>
    <path class="cls-1" d="M434.07,36.49c-1.59,3.24-3.76,4.86-6.52,4.86-2.37,0-4.17-.91-5.39-2.74-.98-1.47-1.47-3.3-1.47-5.48,0-2.33.61-4.32,1.83-5.97,1.36-1.85,3.16-2.77,5.41-2.77,1.99,0,3.53.85,4.64,2.56.92,1.42,1.43,3.2,1.51,5.33h-8.76c.1,2.13.67,3.82,1.69,5.06.79.95,1.73,1.43,2.84,1.43,1.31,0,2.53-.89,3.66-2.65l.58.38ZM429.87,31.15c0-1.35-.03-2.29-.1-2.82-.17-1.18-.55-2.02-1.13-2.51-.24-.21-.56-.31-.96-.31-.58,0-1.07.29-1.45.87-.67,1.02-1.01,2.41-1.01,4.16v.6h4.66Z"/>
    <path class="cls-1" d="M449.93,26.65c0,.65-.15,1.2-.45,1.64-.35.51-.84.77-1.45.77-.53,0-.96-.14-1.32-.41s-.7-.55-1.04-.82c-.11-.07-.25-.1-.39-.1-.33,0-.65.13-.94.38-.47.4-.82.95-1.06,1.66-.37,1.1-.55,2.32-.55,3.66l.02,4.63c.01.69.05,1.1.12,1.25.25.57.91.88,1.97.94v.63h-8.66v-.63c.87-.07,1.41-.4,1.63-1.01.1-.3.15-1.01.15-2.13v-8.83c0-.91-.05-1.49-.14-1.74-.2-.58-.75-.92-1.64-1.01v-.65h6.56v3.63c1.76-2.74,3.46-4.11,5.1-4.11,1.4,0,2.11.75,2.11,2.26Z"/>
    <path class="cls-1" d="M468.92,40.87h-8.1v-.63c.6-.08,1.04-.33,1.3-.75.18-.28.27-.99.27-2.12v-7.11c0-.99,0-1.57-.02-1.73-.08-.76-.3-1.28-.65-1.55-.25-.18-.53-.27-.82-.27-.98,0-1.89.7-2.74,2.1v8.56c0,.97.05,1.6.15,1.9.2.55.68.87,1.42.97v.63h-8.1v-.63c.67-.07,1.15-.28,1.44-.65.19-.25.29-.99.29-2.22v-9.02c0-1.02-.06-1.67-.17-1.95-.22-.49-.74-.78-1.56-.89v-.65h6.52v2.07c1.57-1.7,3.17-2.55,4.79-2.55,2.09,0,3.41,1,3.95,3.01.18.67.27,1.92.27,3.74v6.22c0,1.04.06,1.69.17,1.97.2.51.72.82,1.56.91v.63Z"/>
    <path class="cls-1" d="M486.91,38.68c-1.08,1.61-2.37,2.41-3.85,2.41-1.83,0-2.85-.86-3.08-2.57-1.95,1.71-3.7,2.57-5.25,2.57-.91,0-1.67-.3-2.28-.89s-.91-1.34-.91-2.26c0-1.61,1.06-3.12,3.19-4.53.8-.54,2.54-1.42,5.23-2.65v-1.62c0-.95-.02-1.53-.05-1.74-.11-.62-.41-1.09-.89-1.4-.37-.23-.78-.34-1.23-.34-.74,0-1.35.17-1.83.5-.3.21-.45.45-.45.72,0,.24.16.54.49.89.44.49.66.97.66,1.43,0,.61-.22,1.1-.66,1.47-.44.37-.97.56-1.6.56-.66,0-1.24-.19-1.73-.58-.54-.42-.81-.95-.81-1.59,0-.95.4-1.81,1.2-2.58.66-.65,1.49-1.15,2.5-1.49,1.16-.4,2.37-.6,3.63-.6,1.18,0,2.23.24,3.17.72,1.08.55,1.8,1.33,2.16,2.34.16.47.24,1.57.24,3.3v6.21c0,1.02.11,1.61.34,1.8.11.09.25.14.39.14.3,0,.6-.2.91-.62l.51.41ZM479.96,37.28v-5.37c-2.5,1.48-3.75,2.97-3.75,4.48,0,.53.19.99.56,1.39.29.31.68.46,1.2.46.57,0,1.23-.32,1.98-.96Z"/>
    <path class="cls-1" d="M498.8,37.81c-.92,2.19-2.43,3.29-4.5,3.29-.88,0-1.68-.25-2.41-.74-.76-.51-1.27-1.18-1.51-2-.11-.4-.17-1.45-.17-3.15v-8.65h-2.09v-.6c2.74-1.93,4.84-4.25,6.32-6.93h.56v5.85h3.8v1.68h-3.8v9.88c0,1.33.19,2.15.58,2.43.22.17.42.26.6.26.74,0,1.44-.56,2.11-1.68l.51.38Z"/>
    <path class="cls-1" d="M508.52,40.87h-8.64v-.63c.71-.02,1.23-.23,1.57-.61.23-.26.34-.96.34-2.08v-9.33c0-.98-.09-1.62-.26-1.93-.25-.45-.8-.71-1.66-.77v-.65h6.71v12.67c0,.98.09,1.63.26,1.95.25.44.81.7,1.68.75v.63ZM506.83,19.78c0,.73-.26,1.35-.78,1.86-.52.51-1.14.77-1.87.77s-1.35-.25-1.86-.77c-.51-.51-.77-1.13-.77-1.86s.26-1.35.77-1.87c.51-.52,1.13-.78,1.86-.78s1.36.26,1.88.77c.51.51.77,1.14.77,1.88Z"/>
    <path class="cls-1" d="M525.16,32.88c0,2.27-.58,4.17-1.73,5.7-1.39,1.85-3.31,2.77-5.76,2.77-2.31,0-4.17-.83-5.56-2.5-1.3-1.57-1.95-3.54-1.95-5.91s.64-4.33,1.93-5.94c1.39-1.75,3.23-2.62,5.52-2.62,1.44,0,2.74.37,3.92,1.1s2.08,1.75,2.69,3.04c.62,1.32.92,2.77.92,4.35ZM520.15,31.54c0-3.04-.43-4.91-1.29-5.59-.3-.24-.69-.36-1.17-.36-1.33,0-2.1,1.09-2.32,3.26-.14,1.3-.21,3.11-.21,5.42,0,1.24.08,2.38.24,3.43.25,1.66.99,2.49,2.22,2.49s1.9-.69,2.18-2.06c.23-1.09.34-3.28.34-6.59Z"/>
    <path class="cls-1" d="M544.88,40.87h-8.1v-.63c.6-.08,1.04-.33,1.3-.75.18-.28.27-.99.27-2.12v-7.11c0-.99,0-1.57-.02-1.73-.08-.76-.3-1.28-.65-1.55-.25-.18-.53-.27-.82-.27-.98,0-1.89.7-2.74,2.1v8.56c0,.97.05,1.6.15,1.9.2.55.68.87,1.42.97v.63h-8.1v-.63c.67-.07,1.15-.28,1.44-.65.19-.25.29-.99.29-2.22v-9.02c0-1.02-.06-1.67-.17-1.95-.22-.49-.74-.78-1.56-.89v-.65h6.52v2.07c1.57-1.7,3.17-2.55,4.79-2.55,2.09,0,3.41,1,3.95,3.01.18.67.27,1.92.27,3.74v6.22c0,1.04.06,1.69.17,1.97.2.51.72.82,1.56.91v.63Z"/>
    <path class="cls-1" d="M562.87,38.68c-1.08,1.61-2.37,2.41-3.85,2.41-1.83,0-2.85-.86-3.08-2.57-1.95,1.71-3.7,2.57-5.25,2.57-.91,0-1.67-.3-2.28-.89s-.91-1.34-.91-2.26c0-1.61,1.06-3.12,3.19-4.53.8-.54,2.54-1.42,5.23-2.65v-1.62c0-.95-.02-1.53-.05-1.74-.11-.62-.41-1.09-.89-1.4-.37-.23-.78-.34-1.23-.34-.74,0-1.35.17-1.83.5-.3.21-.45.45-.45.72,0,.24.16.54.49.89.44.49.66.97.66,1.43,0,.61-.22,1.1-.66,1.47-.44.37-.97.56-1.6.56-.66,0-1.24-.19-1.73-.58-.54-.42-.81-.95-.81-1.59,0-.95.4-1.81,1.2-2.58.66-.65,1.49-1.15,2.5-1.49,1.16-.4,2.37-.6,3.63-.6,1.18,0,2.23.24,3.17.72,1.08.55,1.8,1.33,2.16,2.34.16.47.24,1.57.24,3.3v6.21c0,1.02.11,1.61.34,1.8.11.09.25.14.39.14.3,0,.6-.2.91-.62l.51.41ZM555.92,37.28v-5.37c-2.5,1.48-3.75,2.97-3.75,4.48,0,.53.19.99.56,1.39.29.31.68.46,1.2.46.57,0,1.23-.32,1.98-.96Z"/>
    <path class="cls-1" d="M572.81,40.87h-8.64v-.63c.71-.02,1.23-.23,1.57-.61.23-.26.34-.96.34-2.08v-16.54c0-.97-.09-1.61-.26-1.93-.25-.45-.8-.7-1.66-.75v-.65h6.71v19.87c0,.98.09,1.63.26,1.95.25.44.81.7,1.68.75v.63Z"/>
    <path class="cls-2" d="M409.26,56.81c-.83.07-1.46.5-1.88,1.3-.17.31-.53,1.19-1.08,2.65l-7.26,19.14h-.67l-5.77-14.96-6.32,14.96h-.63l-7.64-18.93c-.67-1.69-1.03-2.56-1.06-2.62-.54-.95-1.25-1.46-2.12-1.54v-.65h10.05v.65c-1.35.03-2.02.43-2.02,1.2,0,.45.28,1.37.84,2.76l4.55,11.26,3.65-8.8-.96-2.46c-.41-1.05-.69-1.72-.84-2.02-.42-.85-.87-1.39-1.35-1.64-.38-.19-.92-.29-1.64-.29v-.65h11.23v.65c-.57.01-.98.03-1.21.07-.5.08-.85.25-1.04.51-.14.19-.2.41-.2.65,0,.27.26,1.08.77,2.41l4.23,10.99,3.8-9.94c.58-1.53.88-2.58.88-3.15,0-.99-.77-1.5-2.31-1.54v-.65h6.01v.65Z"/>
    <path class="cls-1" d="M426.54,77.18c-1.08,1.61-2.37,2.41-3.85,2.41-1.83,0-2.85-.86-3.08-2.57-1.95,1.71-3.7,2.57-5.25,2.57-.91,0-1.67-.3-2.28-.89s-.91-1.34-.91-2.26c0-1.61,1.06-3.12,3.19-4.53.8-.54,2.54-1.42,5.23-2.65v-1.62c0-.95-.02-1.53-.05-1.74-.11-.62-.41-1.09-.89-1.4-.37-.23-.78-.34-1.23-.34-.74,0-1.35.17-1.83.5-.3.21-.45.45-.45.72,0,.24.16.54.49.89.44.49.66.97.66,1.43,0,.61-.22,1.1-.66,1.47-.44.37-.97.56-1.6.56-.66,0-1.24-.19-1.73-.58-.54-.42-.81-.95-.81-1.59,0-.95.4-1.81,1.2-2.58.66-.65,1.49-1.15,2.5-1.49,1.16-.4,2.37-.6,3.63-.6,1.18,0,2.23.24,3.17.72,1.08.55,1.8,1.33,2.16,2.34.16.47.24,1.57.24,3.3v6.21c0,1.02.11,1.61.34,1.8.11.09.25.14.39.14.3,0,.6-.2.91-.62l.51.41ZM419.59,75.78v-5.37c-2.5,1.48-3.75,2.97-3.75,4.48,0,.53.19.99.56,1.39.29.31.68.46,1.2.46.57,0,1.23-.32,1.98-.96Z"/>
    <path class="cls-1" d="M445.89,86.87h-9.24v-.65c1.2,0,1.93-.29,2.21-.87.11-.26.17-.8.17-1.61v-6.05c-.68.72-1.33,1.23-1.95,1.54-.81.41-1.64.62-2.5.62-2.01,0-3.59-.89-4.75-2.69-.92-1.43-1.38-3.13-1.38-5.12,0-1.61.32-3.12.97-4.52.71-1.53,1.7-2.69,2.98-3.49,1.22-.77,2.51-1.15,3.88-1.15,1.83,0,3.26.62,4.27,1.87l2.68-1.87h.58v20.71c0,1.05.09,1.7.27,1.97.3.42.9.64,1.8.65v.65ZM439.03,76.12v-6.59c0-1.43-.04-2.36-.12-2.81-.17-1.04-.6-1.83-1.28-2.38-.27-.22-.62-.33-1.04-.33-2.1,0-3.15,2.57-3.15,7.7,0,4.12.9,6.18,2.7,6.18,1,0,1.97-.59,2.89-1.78Z"/>
    <path class="cls-1" d="M460.87,58.16c0,.59-.25,1.07-.74,1.42-.45.32-.97.48-1.58.48-.48,0-.91-.13-1.28-.38-.43-.28-.65-.65-.65-1.12,0-.11.03-.33.1-.64.05-.21.07-.39.07-.55,0-.23-.07-.41-.2-.53-.19-.17-.41-.26-.66-.26-.78,0-1.16.58-1.15,1.73l.03,5.05h2.36v1.66h-2.36v11.11c0,1.08.11,1.76.34,2.02.36.42,1.04.62,2.02.58v.63h-9.45v-.63c1.2-.02,1.92-.32,2.16-.89.11-.27.17-.84.17-1.71v-11.11h-2.33v-1.66h2.33v-1.18l-.02-.81c-.03-1.61.57-2.98,1.81-4.11,1.2-1.1,2.82-1.64,4.88-1.64,1,0,1.88.17,2.64.51,1,.46,1.51,1.13,1.51,2.02Z"/>
    <path class="cls-1" d="M490.94,79.37h-11.23v-.65h.46c1.52,0,2.28-.39,2.28-1.16,0-.18-.03-.39-.1-.63-.05-.16-.22-.59-.51-1.28l-1.23-2.88h-8.2l-.98,2.25c-.32.74-.48,1.36-.48,1.86,0,.65.26,1.13.79,1.43.31.18,1.07.32,2.28.41v.65h-7.72v-.65c1.01-.15,1.87-.71,2.57-1.68.34-.47.83-1.42,1.47-2.86l8.3-18.51h.32l8.38,19.02c.79,1.79,1.44,2.93,1.97,3.4.39.35.94.56,1.64.61v.65ZM480.03,71.5l-3.46-7.99-3.56,7.99h7.02Z"/>
    <path class="cls-1" d="M506.11,75.66c-1.48,2.8-3.62,4.19-6.4,4.19-2.18,0-3.93-.84-5.24-2.53-1.2-1.55-1.8-3.45-1.8-5.68s.58-4.1,1.75-5.75c1.4-2,3.34-2.99,5.8-2.99,1.34,0,2.53.33,3.58.99,1.22.77,1.83,1.78,1.83,3.05,0,1.43-.71,2.14-2.14,2.14s-2.3-1.01-2.48-3.04c-.11-1.29-.59-1.93-1.42-1.93-.55,0-1.01.29-1.4.87-.59.88-.89,2.23-.89,4.04,0,1.38.2,2.72.62,4.01.48,1.54,1.17,2.67,2.07,3.39.62.49,1.36.74,2.22.74,1.07,0,2.19-.63,3.37-1.9l.53.41Z"/>
    <path class="cls-1" d="M521.67,75.66c-1.48,2.8-3.62,4.19-6.4,4.19-2.18,0-3.93-.84-5.24-2.53-1.2-1.55-1.8-3.45-1.8-5.68s.58-4.1,1.75-5.75c1.4-2,3.34-2.99,5.8-2.99,1.34,0,2.53.33,3.58.99,1.22.77,1.83,1.78,1.83,3.05,0,1.43-.71,2.14-2.14,2.14s-2.3-1.01-2.48-3.04c-.11-1.29-.59-1.93-1.42-1.93-.55,0-1.01.29-1.4.87-.59.88-.89,2.23-.89,4.04,0,1.38.2,2.72.62,4.01.48,1.54,1.17,2.67,2.07,3.39.62.49,1.36.74,2.22.74,1.07,0,2.19-.63,3.37-1.9l.53.41Z"/>
    <path class="cls-1" d="M537.5,65.15c0,.65-.15,1.2-.45,1.64-.35.51-.84.77-1.45.77-.53,0-.96-.14-1.32-.41-.35-.27-.7-.55-1.04-.82-.11-.07-.25-.1-.39-.1-.33,0-.65.13-.94.38-.47.4-.82.95-1.06,1.66-.37,1.1-.55,2.32-.55,3.66l.02,4.63c.01.69.05,1.1.12,1.25.25.57.91.88,1.97.94v.63h-8.66v-.63c.87-.07,1.41-.4,1.63-1.01.1-.3.15-1.01.15-2.13v-8.83c0-.91-.05-1.49-.14-1.74-.2-.58-.75-.92-1.64-1.01v-.65h6.56v3.63c1.76-2.74,3.46-4.11,5.1-4.11,1.4,0,2.11.75,2.11,2.26Z"/>
    <path class="cls-1" d="M552.75,74.99c-1.59,3.24-3.76,4.86-6.52,4.86-2.37,0-4.17-.91-5.39-2.74-.98-1.47-1.47-3.3-1.47-5.48,0-2.33.61-4.32,1.83-5.97,1.36-1.85,3.16-2.77,5.41-2.77,1.99,0,3.53.85,4.64,2.56.92,1.42,1.43,3.2,1.51,5.33h-8.76c.1,2.13.67,3.82,1.69,5.06.79.95,1.73,1.43,2.84,1.43,1.31,0,2.53-.89,3.66-2.65l.58.38ZM548.56,69.65c0-1.35-.03-2.29-.1-2.82-.17-1.18-.55-2.02-1.13-2.51-.24-.21-.56-.31-.96-.31-.58,0-1.07.29-1.45.87-.67,1.02-1.01,2.41-1.01,4.16v.6h4.66Z"/>
    <path class="cls-1" d="M572.3,78.53l-6.76,1.32v-2.53c-1.39,1.69-2.83,2.53-4.31,2.53-2.04,0-3.66-.91-4.84-2.74-.96-1.48-1.44-3.3-1.44-5.46,0-3.65,1.11-6.22,3.34-7.72,1.03-.69,2.13-1.04,3.32-1.04,1.41,0,2.73.67,3.94,2v-4.82c0-1.22-.05-1.95-.15-2.2-.26-.65-.98-.97-2.16-.97v-.74h7.1v18.4c0,1.21.03,1.94.1,2.21.18.71.8,1.1,1.87,1.18v.58ZM565.54,75.42v-8.42c-.85-1.62-1.88-2.43-3.11-2.43-.95,0-1.64.74-2.08,2.21-.27.89-.41,2.25-.41,4.09,0,3.47.56,5.67,1.67,6.59.26.22.62.33,1.08.33,1.01,0,1.96-.79,2.85-2.36Z"/>
    <path class="cls-1" d="M582.45,79.37h-8.64v-.63c.71-.02,1.23-.23,1.57-.61.23-.26.34-.96.34-2.08v-9.33c0-.98-.09-1.62-.26-1.93-.25-.45-.8-.71-1.66-.77v-.65h6.71v12.67c0,.98.09,1.63.26,1.95.25.44.81.7,1.68.75v.63ZM580.76,58.28c0,.73-.26,1.35-.78,1.86-.52.51-1.14.77-1.87.77s-1.35-.25-1.86-.77c-.51-.51-.77-1.13-.77-1.86s.26-1.35.77-1.87,1.13-.78,1.86-.78,1.36.26,1.88.77c.51.51.77,1.14.77,1.88Z"/>
    <path class="cls-1" d="M594.14,76.31c-.92,2.19-2.43,3.29-4.5,3.29-.88,0-1.68-.25-2.41-.74-.76-.51-1.27-1.18-1.51-2-.11-.4-.17-1.45-.17-3.15v-8.65h-2.09v-.6c2.74-1.93,4.84-4.25,6.32-6.93h.56v5.85h3.8v1.68h-3.8v9.88c0,1.33.19,2.15.58,2.43.22.17.42.26.6.26.74,0,1.44-.56,2.11-1.68l.51.38Z"/>
    <path class="cls-1" d="M611.45,77.18c-1.08,1.61-2.37,2.41-3.85,2.41-1.83,0-2.85-.86-3.08-2.57-1.95,1.71-3.7,2.57-5.25,2.57-.91,0-1.67-.3-2.28-.89-.6-.59-.91-1.34-.91-2.26,0-1.61,1.06-3.12,3.19-4.53.8-.54,2.54-1.42,5.23-2.65v-1.62c0-.95-.02-1.53-.05-1.74-.11-.62-.41-1.09-.89-1.4-.37-.23-.78-.34-1.23-.34-.74,0-1.35.17-1.83.5-.3.21-.45.45-.45.72,0,.24.16.54.49.89.44.49.66.97.66,1.43,0,.61-.22,1.1-.66,1.47-.44.37-.97.56-1.6.56-.66,0-1.24-.19-1.73-.58-.54-.42-.81-.95-.81-1.59,0-.95.4-1.81,1.2-2.58.66-.65,1.49-1.15,2.5-1.49,1.16-.4,2.37-.6,3.63-.6,1.18,0,2.23.24,3.17.72,1.08.55,1.8,1.33,2.16,2.34.16.47.24,1.57.24,3.3v6.21c0,1.02.11,1.61.34,1.8.11.09.25.14.39.14.3,0,.6-.2.91-.62l.51.41ZM604.5,75.78v-5.37c-2.5,1.48-3.75,2.97-3.75,4.48,0,.53.19.99.56,1.39.29.31.68.46,1.2.46.57,0,1.23-.32,1.98-.96Z"/>
    <path class="cls-1" d="M623.34,76.31c-.92,2.19-2.43,3.29-4.5,3.29-.88,0-1.68-.25-2.41-.74-.76-.51-1.27-1.18-1.51-2-.11-.4-.17-1.45-.17-3.15v-8.65h-2.09v-.6c2.74-1.93,4.84-4.25,6.32-6.93h.56v5.85h3.8v1.68h-3.8v9.88c0,1.33.19,2.15.58,2.43.22.17.42.26.6.26.74,0,1.44-.56,2.11-1.68l.51.38Z"/>
    <path class="cls-1" d="M633.06,79.37h-8.64v-.63c.71-.02,1.23-.23,1.57-.61.23-.26.34-.96.34-2.08v-9.33c0-.98-.09-1.62-.26-1.93-.25-.45-.8-.71-1.66-.77v-.65h6.71v12.67c0,.98.09,1.63.26,1.95.25.44.81.7,1.68.75v.63ZM631.37,58.28c0,.73-.26,1.35-.78,1.86-.52.51-1.14.77-1.87.77s-1.35-.25-1.86-.77c-.51-.51-.77-1.13-.77-1.86s.26-1.35.77-1.87,1.13-.78,1.86-.78,1.36.26,1.88.77c.51.51.77,1.14.77,1.88Z"/>
    <path class="cls-1" d="M649.7,71.38c0,2.27-.58,4.17-1.73,5.7-1.39,1.85-3.31,2.77-5.76,2.77-2.31,0-4.17-.83-5.56-2.5-1.3-1.57-1.95-3.54-1.95-5.91s.64-4.33,1.93-5.94c1.39-1.75,3.23-2.62,5.52-2.62,1.44,0,2.74.37,3.92,1.1s2.08,1.75,2.69,3.04c.62,1.32.92,2.77.92,4.35ZM644.69,70.04c0-3.04-.43-4.91-1.29-5.59-.3-.24-.69-.36-1.17-.36-1.33,0-2.1,1.09-2.32,3.26-.14,1.3-.21,3.11-.21,5.42,0,1.24.08,2.38.24,3.43.25,1.66.99,2.49,2.22,2.49s1.9-.69,2.18-2.06c.23-1.09.34-3.28.34-6.59Z"/>
    <path class="cls-1" d="M669.42,79.37h-8.1v-.63c.6-.08,1.04-.33,1.3-.75.18-.28.27-.99.27-2.12v-7.11c0-.99,0-1.57-.02-1.73-.08-.76-.3-1.28-.65-1.55-.25-.18-.53-.27-.82-.27-.98,0-1.89.7-2.74,2.1v8.56c0,.97.05,1.6.15,1.9.2.55.68.87,1.42.97v.63h-8.1v-.63c.67-.07,1.15-.28,1.44-.65.19-.25.29-.99.29-2.22v-9.02c0-1.02-.06-1.67-.17-1.95-.22-.49-.74-.78-1.56-.89v-.65h6.52v2.07c1.57-1.7,3.17-2.55,4.79-2.55,2.09,0,3.41,1,3.95,3.01.18.67.27,1.92.27,3.74v6.22c0,1.04.06,1.69.17,1.97.2.51.72.82,1.56.91v.63Z"/>
    <path class="cls-1" d="M699.97,76.43c-1.52,2.23-3.13,3.35-4.83,3.37-1.56.01-3.06-.89-4.5-2.7-1.7,1.67-3.91,2.51-6.65,2.52-1.48.01-2.66-.35-3.52-1.08-1-.83-1.47-2.06-1.38-3.68.08-1.54.85-2.95,2.3-4.25.3-.26,1.43-1.04,3.4-2.34-.68-1.79-1.02-3.24-1.01-4.35.01-1.36.54-2.47,1.6-3.34.94-.76,2.01-1.15,3.21-1.15,1.02,0,1.86.3,2.54.91.74.67,1.11,1.59,1.11,2.74,0,1.8-1.46,3.53-4.38,5.19.49.94,1.17,2.09,2.03,3.46.86,1.38,1.42,2.19,1.69,2.46l1.83-2.91c.57-.91.86-1.68.87-2.31.02-.88-.57-1.4-1.78-1.57v-.48h6.11v.48c-1.08.23-1.93.85-2.57,1.85l-3.69,5.86c1.13,1.67,2.52,2.5,4.15,2.5,1.19,0,2.12-.55,2.78-1.64l.7.46ZM689.77,76.24c-.29-.26-.96-1.18-2.04-2.76-1.21-1.76-2.04-3.12-2.48-4.09-2.12,1.36-3.18,2.95-3.17,4.78.01.97.33,1.83.96,2.58.71.86,1.64,1.28,2.79,1.27.58,0,1.26-.18,2.05-.54.78-.36,1.41-.77,1.89-1.24ZM690.65,63.31c.05-.24.07-.46.07-.67,0-.65-.19-1.16-.57-1.51-.38-.36-.84-.53-1.39-.53-.72,0-1.32.24-1.81.72-.53.54-.8,1.27-.8,2.19s.37,2.1,1.11,3.66c1.09-.65,1.8-1.13,2.13-1.44.65-.62,1.07-1.43,1.26-2.42Z"/>
    <path class="cls-2" d="M400.55,106.24c0,2.84-.85,5.39-2.53,7.64-1.76,2.34-4.01,3.75-6.74,4.21,1.05,3.05,3.25,4.57,6.61,4.57.46,0,.94-.05,1.45-.14v1.03c-1.72.43-3.26.64-4.62.64-2.17,0-4.08-.53-5.73-1.58-1.65-1.06-2.9-2.57-3.73-4.55-2.86-.6-5.15-2-6.85-4.19-1.68-2.15-2.52-4.7-2.52-7.65,0-3.54,1.18-6.45,3.54-8.73,2.33-2.25,5.27-3.37,8.82-3.37s6.47,1.14,8.81,3.41c2.33,2.27,3.5,5.17,3.5,8.7ZM394.41,106.66c0-3.71-.44-6.41-1.32-8.09-1.1-2.1-2.72-3.16-4.86-3.16-2.36,0-4.06,1.32-5.1,3.94-.72,1.83-1.08,4.14-1.08,6.93,0,3.98.7,6.93,2.11,8.84.98,1.34,2.34,2.01,4.07,2.01s3.1-.66,4.07-1.97c1.41-1.9,2.11-4.73,2.11-8.5Z"/>
    <path class="cls-1" d="M420.15,117.87h-6.52v-2.2c-1.46,1.79-3.08,2.68-4.86,2.68-.84,0-1.63-.26-2.34-.78-.72-.52-1.21-1.18-1.47-1.99-.24-.74-.36-2.04-.36-3.88v-6.34c0-1.02-.06-1.68-.17-1.95-.22-.49-.74-.78-1.56-.89v-.65h6.52v10.95c0,1.65.23,2.63.68,2.96.23.17.5.26.8.26.83,0,1.75-.71,2.76-2.12v-8.56c0-1.03-.06-1.68-.17-1.95-.22-.49-.74-.79-1.56-.89v-.65h6.52v12.52c0,1.03.06,1.68.17,1.95.22.51.74.82,1.56.91v.63Z"/>
    <path class="cls-1" d="M438.24,115.68c-1.08,1.61-2.37,2.41-3.85,2.41-1.83,0-2.85-.86-3.08-2.57-1.95,1.71-3.7,2.57-5.25,2.57-.91,0-1.67-.3-2.28-.89s-.91-1.34-.91-2.26c0-1.61,1.06-3.12,3.19-4.53.8-.54,2.54-1.42,5.23-2.65v-1.62c0-.95-.02-1.53-.05-1.74-.11-.62-.41-1.09-.89-1.4-.37-.23-.78-.34-1.23-.34-.74,0-1.35.17-1.83.5-.3.21-.45.45-.45.72,0,.24.16.54.49.89.44.49.66.97.66,1.43,0,.61-.22,1.1-.66,1.47-.44.37-.97.56-1.6.56-.66,0-1.24-.19-1.73-.58-.54-.42-.81-.95-.81-1.59,0-.95.4-1.81,1.2-2.58.66-.65,1.49-1.15,2.5-1.49,1.16-.4,2.37-.6,3.63-.6,1.18,0,2.23.24,3.17.72,1.08.55,1.8,1.33,2.16,2.34.16.47.24,1.57.24,3.3v6.21c0,1.02.11,1.61.34,1.8.11.09.25.14.39.14.3,0,.6-.2.91-.62l.51.41ZM431.29,114.27v-5.37c-2.5,1.48-3.75,2.97-3.75,4.48,0,.53.19.99.56,1.39.29.31.68.46,1.2.46.57,0,1.23-.32,1.98-.96Z"/>
    <path class="cls-1" d="M448.19,117.87h-8.64v-.63c.71-.02,1.23-.23,1.57-.61.23-.26.34-.96.34-2.08v-16.54c0-.97-.09-1.61-.26-1.93-.25-.45-.8-.7-1.66-.75v-.65h6.71v19.87c0,.98.09,1.63.26,1.95.25.44.81.7,1.68.75v.63Z"/>
    <path class="cls-1" d="M457.93,117.87h-8.64v-.63c.71-.02,1.23-.23,1.57-.61.23-.26.34-.96.34-2.08v-9.33c0-.98-.09-1.62-.26-1.93-.25-.45-.8-.71-1.66-.77v-.65h6.71v12.67c0,.98.09,1.63.26,1.95.25.44.81.7,1.68.75v.63ZM456.23,96.78c0,.73-.26,1.35-.78,1.86-.52.51-1.14.77-1.87.77s-1.35-.25-1.86-.77c-.51-.51-.77-1.13-.77-1.86s.26-1.35.77-1.87,1.13-.78,1.86-.78,1.36.26,1.88.77c.51.51.77,1.14.77,1.88Z"/>
    <path class="cls-1" d="M472.56,96.66c0,.59-.25,1.07-.74,1.42-.45.32-.97.48-1.58.48-.48,0-.91-.13-1.28-.38-.43-.28-.65-.65-.65-1.12,0-.11.03-.33.1-.64.05-.21.07-.39.07-.55,0-.23-.07-.41-.2-.53-.19-.17-.41-.26-.66-.26-.78,0-1.16.58-1.15,1.73l.03,5.05h2.36v1.66h-2.36v11.11c0,1.08.11,1.76.34,2.02.36.42,1.04.62,2.02.58v.63h-9.45v-.63c1.2-.02,1.92-.32,2.16-.89.11-.27.17-.84.17-1.71v-11.11h-2.33v-1.66h2.33v-1.18l-.02-.81c-.03-1.61.57-2.98,1.81-4.11,1.2-1.1,2.82-1.64,4.88-1.64,1,0,1.88.17,2.64.51,1,.46,1.51,1.13,1.51,2.02Z"/>
    <path class="cls-1" d="M479.34,117.87h-8.64v-.63c.71-.02,1.23-.23,1.57-.61.23-.26.34-.96.34-2.08v-9.33c0-.98-.09-1.62-.26-1.93-.25-.45-.8-.71-1.66-.77v-.65h6.71v12.67c0,.98.09,1.63.26,1.95.25.44.81.7,1.68.75v.63ZM477.64,96.78c0,.73-.26,1.35-.78,1.86-.52.51-1.14.77-1.87.77s-1.35-.25-1.86-.77c-.51-.51-.77-1.13-.77-1.86s.26-1.35.77-1.87,1.13-.78,1.86-.78,1.36.26,1.88.77c.51.51.77,1.14.77,1.88Z"/>
    <path class="cls-1" d="M494.47,114.16c-1.48,2.8-3.62,4.19-6.4,4.19-2.18,0-3.93-.84-5.24-2.53-1.2-1.55-1.8-3.45-1.8-5.68s.58-4.1,1.75-5.75c1.4-2,3.34-2.99,5.8-2.99,1.34,0,2.53.33,3.58.99,1.22.77,1.83,1.78,1.83,3.05,0,1.43-.71,2.14-2.14,2.14s-2.3-1.01-2.48-3.04c-.11-1.29-.59-1.93-1.42-1.93-.55,0-1.01.29-1.4.87-.59.88-.89,2.23-.89,4.04,0,1.38.2,2.72.62,4.01.48,1.54,1.17,2.67,2.07,3.39.62.49,1.36.74,2.22.74,1.07,0,2.19-.63,3.37-1.9l.53.41Z"/>
    <path class="cls-1" d="M512.22,115.68c-1.08,1.61-2.37,2.41-3.85,2.41-1.83,0-2.85-.86-3.08-2.57-1.95,1.71-3.7,2.57-5.25,2.57-.91,0-1.67-.3-2.28-.89s-.91-1.34-.91-2.26c0-1.61,1.06-3.12,3.19-4.53.8-.54,2.54-1.42,5.23-2.65v-1.62c0-.95-.02-1.53-.05-1.74-.11-.62-.41-1.09-.89-1.4-.37-.23-.78-.34-1.23-.34-.74,0-1.35.17-1.83.5-.3.21-.45.45-.45.72,0,.24.16.54.49.89.44.49.66.97.66,1.43,0,.61-.22,1.1-.66,1.47-.44.37-.97.56-1.6.56-.66,0-1.24-.19-1.73-.58-.54-.42-.81-.95-.81-1.59,0-.95.4-1.81,1.2-2.58.66-.65,1.49-1.15,2.5-1.49,1.16-.4,2.37-.6,3.63-.6,1.18,0,2.23.24,3.17.72,1.08.55,1.8,1.33,2.16,2.34.16.47.24,1.57.24,3.3v6.21c0,1.02.11,1.61.34,1.8.11.09.25.14.39.14.3,0,.6-.2.91-.62l.51.41ZM505.27,114.27v-5.37c-2.5,1.48-3.75,2.97-3.75,4.48,0,.53.19.99.56,1.39.29.31.68.46,1.2.46.57,0,1.23-.32,1.98-.96Z"/>
    <path class="cls-1" d="M524.12,114.81c-.92,2.19-2.43,3.29-4.5,3.29-.88,0-1.68-.25-2.41-.74-.76-.51-1.27-1.18-1.51-2-.11-.4-.17-1.45-.17-3.15v-8.65h-2.09v-.6c2.74-1.93,4.84-4.25,6.32-6.93h.56v5.85h3.8v1.68h-3.8v9.88c0,1.33.19,2.15.58,2.43.22.17.42.26.6.26.74,0,1.44-.56,2.11-1.68l.51.38Z"/>
    <path class="cls-1" d="M533.84,117.87h-8.64v-.63c.71-.02,1.23-.23,1.57-.61.23-.26.34-.96.34-2.08v-9.33c0-.98-.09-1.62-.26-1.93-.25-.45-.8-.71-1.66-.77v-.65h6.71v12.67c0,.98.09,1.63.26,1.95.25.44.81.7,1.68.75v.63ZM532.14,96.78c0,.73-.26,1.35-.78,1.86-.52.51-1.14.77-1.87.77s-1.35-.25-1.86-.77c-.51-.51-.77-1.13-.77-1.86s.26-1.35.77-1.87,1.13-.78,1.86-.78,1.36.26,1.88.77c.51.51.77,1.14.77,1.88Z"/>
    <path class="cls-1" d="M550.48,109.88c0,2.27-.58,4.17-1.73,5.7-1.39,1.85-3.31,2.77-5.76,2.77-2.31,0-4.17-.83-5.56-2.5-1.3-1.57-1.95-3.54-1.95-5.91s.64-4.33,1.93-5.94c1.39-1.75,3.23-2.62,5.52-2.62,1.44,0,2.74.37,3.92,1.1s2.08,1.75,2.69,3.04c.62,1.32.92,2.77.92,4.35ZM545.46,108.54c0-3.04-.43-4.91-1.29-5.59-.3-.24-.69-.36-1.17-.36-1.33,0-2.1,1.09-2.32,3.26-.14,1.3-.21,3.11-.21,5.42,0,1.24.08,2.38.24,3.43.25,1.66.99,2.49,2.22,2.49s1.9-.69,2.18-2.06c.23-1.09.34-3.28.34-6.59Z"/>
    <path class="cls-1" d="M570.2,117.87h-8.1v-.63c.6-.08,1.04-.33,1.3-.75.18-.28.27-.99.27-2.12v-7.11c0-.99,0-1.57-.02-1.73-.08-.76-.3-1.28-.65-1.55-.25-.18-.53-.27-.82-.27-.98,0-1.89.7-2.74,2.1v8.56c0,.97.05,1.6.15,1.9.2.55.68.87,1.42.97v.63h-8.1v-.63c.67-.07,1.15-.28,1.44-.65.19-.25.29-.99.29-2.22v-9.02c0-1.02-.06-1.67-.17-1.95-.22-.49-.74-.78-1.56-.89v-.65h6.52v2.07c1.57-1.7,3.17-2.55,4.79-2.55,2.09,0,3.41,1,3.95,3.01.18.67.27,1.92.27,3.74v6.22c0,1.04.06,1.69.17,1.97.2.51.72.82,1.56.91v.63Z"/>
    <path class="cls-2" d="M599.34,101.32h-.7c-.15-1.44-.51-2.55-1.1-3.33-.64-.83-1.63-1.42-2.98-1.75-.68-.17-1.95-.26-3.8-.26h-2.16v9.55h.67c1.96,0,3.35-.67,4.19-2.03.45-.73.74-1.72.88-2.97h.62v11.67h-.62c-.35-3.62-2.04-5.42-5.06-5.42h-.67v7.1c0,.94.02,1.5.05,1.69.11.58.42,1.02.93,1.3.38.23.89.34,1.55.34h.77v.65h-12.14v-.65h.77c1.2,0,1.97-.39,2.31-1.18.13-.3.19-1.01.19-2.15v-15.25c0-.94-.02-1.51-.05-1.69-.1-.58-.4-1.02-.89-1.32-.39-.22-.91-.32-1.56-.32h-.77v-.65h19.56v6.66Z"/>
    <path class="cls-1" d="M616.67,109.88c0,2.27-.58,4.17-1.73,5.7-1.39,1.85-3.31,2.77-5.76,2.77-2.31,0-4.17-.83-5.56-2.5-1.3-1.57-1.95-3.54-1.95-5.91s.64-4.33,1.93-5.94c1.39-1.75,3.23-2.62,5.52-2.62,1.44,0,2.74.37,3.92,1.1s2.08,1.75,2.69,3.04c.62,1.32.92,2.77.92,4.35ZM611.65,108.54c0-3.04-.43-4.91-1.29-5.59-.3-.24-.69-.36-1.17-.36-1.33,0-2.1,1.09-2.32,3.26-.14,1.3-.21,3.11-.21,5.42,0,1.24.08,2.38.24,3.43.25,1.66.99,2.49,2.22,2.49s1.9-.69,2.18-2.06c.23-1.09.34-3.28.34-6.59Z"/>
    <path class="cls-1" d="M636.28,117.87h-6.52v-2.2c-1.46,1.79-3.08,2.68-4.86,2.68-.84,0-1.63-.26-2.34-.78-.72-.52-1.21-1.18-1.47-1.99-.24-.74-.36-2.04-.36-3.88v-6.34c0-1.02-.06-1.68-.17-1.95-.22-.49-.74-.78-1.56-.89v-.65h6.52v10.95c0,1.65.23,2.63.68,2.96.23.17.5.26.8.26.83,0,1.75-.71,2.76-2.12v-8.56c0-1.03-.06-1.68-.17-1.95-.22-.49-.74-.79-1.56-.89v-.65h6.52v12.52c0,1.03.06,1.68.17,1.95.22.51.74.82,1.56.91v.63Z"/>
    <path class="cls-1" d="M655.88,117.87h-8.1v-.63c.6-.08,1.04-.33,1.3-.75.18-.28.27-.99.27-2.12v-7.11c0-.99,0-1.57-.02-1.73-.08-.76-.3-1.28-.65-1.55-.25-.18-.53-.27-.82-.27-.98,0-1.89.7-2.74,2.1v8.56c0,.97.05,1.6.15,1.9.2.55.68.87,1.42.97v.63h-8.1v-.63c.67-.07,1.15-.28,1.44-.65.19-.25.29-.99.29-2.22v-9.02c0-1.02-.06-1.67-.17-1.95-.22-.49-.74-.78-1.56-.89v-.65h6.52v2.07c1.57-1.7,3.17-2.55,4.79-2.55,2.09,0,3.41,1,3.95,3.01.18.67.27,1.92.27,3.74v6.22c0,1.04.06,1.69.17,1.97.2.51.72.82,1.56.91v.63Z"/>
    <path class="cls-1" d="M675.63,117.03l-6.76,1.32v-2.53c-1.39,1.69-2.83,2.53-4.31,2.53-2.04,0-3.66-.91-4.84-2.74-.96-1.48-1.44-3.3-1.44-5.46,0-3.65,1.11-6.22,3.34-7.72,1.03-.69,2.13-1.04,3.32-1.04,1.41,0,2.73.67,3.94,2v-4.82c0-1.22-.05-1.95-.15-2.2-.26-.65-.98-.97-2.16-.97v-.74h7.1v18.4c0,1.21.03,1.94.1,2.21.18.71.8,1.1,1.87,1.18v.58ZM668.87,113.92v-8.42c-.85-1.62-1.88-2.43-3.11-2.43-.95,0-1.64.74-2.08,2.21-.27.89-.41,2.25-.41,4.09,0,3.47.56,5.67,1.67,6.59.26.22.62.33,1.08.33,1.01,0,1.96-.79,2.85-2.36Z"/>
    <path class="cls-1" d="M693.37,115.68c-1.08,1.61-2.37,2.41-3.85,2.41-1.83,0-2.85-.86-3.08-2.57-1.95,1.71-3.7,2.57-5.25,2.57-.91,0-1.67-.3-2.28-.89-.6-.59-.91-1.34-.91-2.26,0-1.61,1.06-3.12,3.19-4.53.8-.54,2.54-1.42,5.23-2.65v-1.62c0-.95-.02-1.53-.05-1.74-.11-.62-.41-1.09-.89-1.4-.37-.23-.78-.34-1.23-.34-.74,0-1.35.17-1.83.5-.3.21-.45.45-.45.72,0,.24.16.54.49.89.44.49.66.97.66,1.43,0,.61-.22,1.1-.66,1.47-.44.37-.97.56-1.6.56-.66,0-1.24-.19-1.73-.58-.54-.42-.81-.95-.81-1.59,0-.95.4-1.81,1.2-2.58.66-.65,1.49-1.15,2.5-1.49,1.16-.4,2.37-.6,3.63-.6,1.18,0,2.23.24,3.17.72,1.08.55,1.8,1.33,2.16,2.34.16.47.24,1.57.24,3.3v6.21c0,1.02.11,1.61.34,1.8.11.09.25.14.39.14.3,0,.6-.2.91-.62l.51.41ZM686.42,114.27v-5.37c-2.5,1.48-3.75,2.97-3.75,4.48,0,.53.19.99.56,1.39.29.31.68.46,1.2.46.57,0,1.23-.32,1.98-.96Z"/>
    <path class="cls-1" d="M705.26,114.81c-.92,2.19-2.43,3.29-4.5,3.29-.88,0-1.68-.25-2.41-.74-.76-.51-1.27-1.18-1.51-2-.11-.4-.17-1.45-.17-3.15v-8.65h-2.09v-.6c2.74-1.93,4.84-4.25,6.32-6.93h.56v5.85h3.8v1.68h-3.8v9.88c0,1.33.19,2.15.58,2.43.22.17.42.26.6.26.74,0,1.44-.56,2.11-1.68l.51.38Z"/>
    <path class="cls-1" d="M714.99,117.87h-8.64v-.63c.71-.02,1.23-.23,1.57-.61.23-.26.34-.96.34-2.08v-9.33c0-.98-.09-1.62-.26-1.93-.25-.45-.8-.71-1.66-.77v-.65h6.71v12.67c0,.98.09,1.63.26,1.95.25.44.81.7,1.68.75v.63ZM713.29,96.78c0,.73-.26,1.35-.78,1.86-.52.51-1.14.77-1.87.77s-1.35-.25-1.86-.77c-.51-.51-.77-1.13-.77-1.86s.26-1.35.77-1.87,1.13-.78,1.86-.78,1.36.26,1.88.77c.51.51.77,1.14.77,1.88Z"/>
    <path class="cls-1" d="M731.62,109.88c0,2.27-.58,4.17-1.73,5.7-1.39,1.85-3.31,2.77-5.76,2.77-2.31,0-4.17-.83-5.56-2.5-1.3-1.57-1.95-3.54-1.95-5.91s.64-4.33,1.93-5.94c1.39-1.75,3.23-2.62,5.52-2.62,1.44,0,2.74.37,3.93,1.1,1.18.74,2.08,1.75,2.69,3.04.61,1.32.92,2.77.92,4.35ZM726.61,108.54c0-3.04-.43-4.91-1.29-5.59-.3-.24-.69-.36-1.17-.36-1.33,0-2.1,1.09-2.32,3.26-.14,1.3-.21,3.11-.21,5.42,0,1.24.08,2.38.24,3.43.25,1.66.99,2.49,2.22,2.49s1.89-.69,2.18-2.06c.23-1.09.34-3.28.34-6.59Z"/>
    <path class="cls-1" d="M751.34,117.87h-8.1v-.63c.6-.08,1.04-.33,1.3-.75.18-.28.27-.99.27-2.12v-7.11c0-.99,0-1.57-.02-1.73-.08-.76-.3-1.28-.65-1.55-.25-.18-.53-.27-.82-.27-.98,0-1.9.7-2.74,2.1v8.56c0,.97.05,1.6.16,1.9.2.55.68.87,1.42.97v.63h-8.1v-.63c.67-.07,1.15-.28,1.44-.65.19-.25.29-.99.29-2.22v-9.02c0-1.02-.06-1.67-.17-1.95-.22-.49-.74-.78-1.56-.89v-.65h6.52v2.07c1.58-1.7,3.17-2.55,4.79-2.55,2.09,0,3.41,1,3.95,3.01.18.67.27,1.92.27,3.74v6.22c0,1.04.06,1.69.17,1.97.21.51.72.82,1.56.91v.63Z"/>
  </g>
  <g>
    <path class="cls-1" d="M241.49,60.27c0,10.57-3.14,20.04-9.42,28.41-6.54,8.71-14.89,13.93-25.08,15.67,3.9,11.34,12.09,17.01,24.57,17.01,1.7,0,3.5-.17,5.41-.51v3.85c-6.41,1.59-12.14,2.39-17.19,2.39-8.06,0-15.17-1.96-21.32-5.89-6.15-3.93-10.78-9.56-13.88-16.9-10.65-2.25-19.14-7.45-25.46-15.6-6.24-7.98-9.36-17.46-9.36-28.45,0-13.15,4.39-23.98,13.18-32.46,8.66-8.36,19.58-12.54,32.78-12.54s24.07,4.23,32.75,12.68c8.68,8.45,13.02,19.23,13.02,32.36ZM218.63,61.84c0-13.81-1.64-23.84-4.92-30.09-4.09-7.82-10.11-11.73-18.06-11.73-8.77,0-15.09,4.89-18.96,14.66-2.68,6.8-4.02,15.39-4.02,25.76,0,14.79,2.62,25.76,7.85,32.9,3.66,4.97,8.7,7.46,15.13,7.46s11.51-2.44,15.13-7.33c5.23-7.05,7.85-17.6,7.85-31.62Z"/>
    <path class="cls-1" d="M312.69,41.98h-2.61c-.55-5.36-1.91-9.49-4.07-12.39-2.38-3.11-6.07-5.28-11.08-6.51-2.55-.64-7.26-.96-14.13-.96h-8.02v35.52h2.49c7.28,0,12.47-2.51,15.58-7.54,1.66-2.73,2.75-6.41,3.26-11.05h2.29v43.41h-2.29c-1.32-13.45-7.6-20.18-18.83-20.18h-2.49v26.42c0,3.48.06,5.58.19,6.3.43,2.16,1.58,3.78,3.46,4.84,1.41.85,3.33,1.27,5.76,1.27h2.88v2.42h-45.13v-2.42h2.86c4.46,0,7.32-1.46,8.59-4.39.47-1.1.7-3.77.7-8.01v-56.69c0-3.52-.06-5.61-.19-6.29-.38-2.16-1.49-3.79-3.31-4.89-1.44-.8-3.37-1.21-5.79-1.21h-2.86v-2.42h72.76v24.76Z"/>
    <polygon class="cls-2" points="11.8 43.64 21.94 33.5 32.65 44.2 22.22 103.53 11.8 43.64"/>
    <circle class="cls-2" cx="22.22" cy="22.23" r="6.95"/>
    <g>
      <path class="cls-1" d="M32.68,35.88c.94.21,1.54.8,2.04,1.55.41.63,1.4,1.52,1.48,2.11-1.13-1.01-3.52-2.05-3.52-3.66h0Z"/>
      <path class="cls-1" d="M35.29,33.41c.96.02,1.67.46,2.32,1.09.53.53,1.69,1.2,1.89,1.76-1.32-.75-3.86-1.27-4.21-2.85h0Z"/>
      <path class="cls-1" d="M37.33,30.45c.94-.19,1.73.1,2.5.59.63.41,1.9.82,2.21,1.33-1.45-.46-4.04-.44-4.71-1.91h0Z"/>
      <path class="cls-1" d="M38.71,27.13c.88-.38,1.71-.26,2.56.06.7.27,2.03.41,2.44.84-1.51-.15-4.05.41-5-.89h0Z"/>
      <path class="cls-1" d="M39.37,23.59c.79-.55,1.62-.61,2.52-.48.74.12,2.07-.02,2.56.31-1.51.17-3.87,1.24-5.08.17h0Z"/>
      <path class="cls-1" d="M39.28,20c.65-.7,1.46-.94,2.36-.99.75-.04,2.02-.45,2.57-.23-1.44.48-3.53,2.02-4.93,1.22h0Z"/>
      <path class="cls-1" d="M38.44,16.5c.49-.83,1.23-1.22,2.11-1.46.73-.19,1.88-.86,2.46-.76-1.31.77-3.03,2.71-4.57,2.22h0Z"/>
      <path class="cls-1" d="M36.9,13.25c.31-.91.95-1.45,1.76-1.87.67-.34,1.66-1.23,2.25-1.25-1.12,1.02-2.4,3.28-4.01,3.12h0Z"/>
      <path class="cls-1" d="M34.71,10.4c.12-.95.63-1.62,1.33-2.19.58-.47,1.37-1.55,1.94-1.69-.89,1.23-1.67,3.71-3.27,3.89h0Z"/>
      <path class="cls-1" d="M31.98,8.06c-.09-.96.28-1.71.84-2.42.47-.58,1.02-1.8,1.55-2.06-.61,1.39-.86,3.98-2.39,4.48h0Z"/>
      <path class="cls-1" d="M28.82,6.34c-.28-.92-.08-1.73.32-2.54.34-.67.62-1.98,1.09-2.34-.31,1.49-.02,4.07-1.41,4.88h0Z"/>
      <path class="cls-1" d="M25.37,5.32c-.47-.84-.44-1.68-.21-2.55.2-.73.19-2.06.58-2.51,0,1.52.83,3.98-.36,5.07h0Z"/>
      <path class="cls-1" d="M21.79,5.03c-.63-.72-.78-1.55-.74-2.45C21.09,1.83,20.81.52,21.09,0c.32,1.48,1.64,3.72.7,5.03h0Z"/>
      <path class="cls-1" d="M18.22,5.5c-.77-.58-1.08-1.35-1.23-2.25-.12-.74-.66-1.96-.5-2.53.63,1.38,2.38,3.3,1.73,4.78h0Z"/>
      <path class="cls-1" d="M14.83,6.7c-.87-.4-1.34-1.1-1.67-1.94-.27-.7-1.05-1.78-1.01-2.37.9,1.22,3.01,2.73,2.68,4.31h0Z"/>
      <path class="cls-1" d="M11.76,8.57c-.94-.21-1.54-.8-2.04-1.55-.41-.63-1.4-1.52-1.48-2.11,1.13,1.01,3.52,2.05,3.52,3.66h0Z"/>
      <path class="cls-1" d="M9.15,11.05c-.96-.02-1.67-.46-2.32-1.09-.53-.53-1.69-1.2-1.89-1.76,1.32.75,3.86,1.27,4.21,2.85h0Z"/>
      <path class="cls-1" d="M7.11,14.01c-.94.19-1.73-.1-2.5-.59-.63-.41-1.9-.82-2.21-1.33,1.45.46,4.04.44,4.71,1.91h0Z"/>
      <path class="cls-1" d="M5.74,17.33c-.88.38-1.71.26-2.56-.06-.7-.27-2.03-.41-2.44-.84,1.51.15,4.05-.41,5,.89h0Z"/>
      <path class="cls-1" d="M5.08,20.86c-.79.55-1.62.61-2.52.48-.74-.12-2.07.02-2.56-.31,1.51-.17,3.87-1.24,5.08-.17h0Z"/>
      <path class="cls-1" d="M5.17,24.46c-.65.7-1.46.94-2.36.99-.75.04-2.02.45-2.57.23,1.44-.48,3.53-2.02,4.93-1.22h0Z"/>
      <path class="cls-1" d="M6.01,27.96c-.49.83-1.23,1.22-2.11,1.46-.73.19-1.88.86-2.46.76,1.31-.77,3.03-2.71,4.57-2.22h0Z"/>
      <path class="cls-1" d="M7.55,31.2c-.31.91-.95,1.45-1.76,1.87-.67.34-1.66,1.23-2.25,1.25,1.12-1.02,2.4-3.28,4.01-3.12h0Z"/>
      <path class="cls-1" d="M9.74,34.06c-.12.95-.63,1.62-1.33,2.19-.58.47-1.37,1.55-1.94,1.69.89-1.23,1.67-3.71,3.27-3.89h0Z"/>
      <path class="cls-1" d="M12.47,36.39c.09.96-.28,1.71-.84,2.42-.47.58-1.02,1.8-1.55,2.06.61-1.39.86-3.98,2.39-4.48h0Z"/>
    </g>
    <path class="cls-1" d="M127.42,17.21v2.42c5.73.13,8.59,2.04,8.59,5.73,0,2.12-1.09,6.03-3.26,11.71l-14.12,36.98-15.72-40.87c-1.91-4.97-2.86-7.96-2.86-8.98,0-.89.25-1.7.76-2.42.72-.98,2.02-1.61,3.88-1.91.89-.13,2.4-.21,4.52-.25v-2.42h-41.76v2.42c2.67,0,4.7.36,6.1,1.08,1.78.93,3.45,2.97,5.02,6.11.55,1.1,1.59,3.61,3.11,7.51l3.56,9.17-13.59,32.72-16.93-41.88c-2.08-5.13-3.12-8.55-3.12-10.25,0-2.84,2.5-4.33,7.51-4.46v-2.42h-12.21c.33,1.62.5,3.3.5,5.01,0,8.51-4.23,16.03-10.69,20.59l25.29,62.68h2.35l23.49-55.63,21.46,55.63h2.48l26.99-71.18c2.03-5.43,3.37-8.71,4-9.86,1.57-2.97,3.89-4.58,6.99-4.83v-2.42h-22.34Z"/>
  </g>
  <rect class="cls-1" x="340.72" y="16.88" width="4.94" height="110.2"/>
  <g>
    <path class="cls-2" d="M31.39,168.17v5.48l-.39.31h-.66c-1.37,0-2.97-.45-4.78-1.36l-.23.31c1.58,1.14,2.81,2.32,3.69,3.54l-1.52,5.17c-1.53.91-3.6,1.68-6.22,2.31-2.62.63-5.07.95-7.35.95-8.91,0-13.37-3.82-13.37-11.47,0-2.28.44-4.51,1.32-6.69l4.2-.82.31.31c-.67,1.87-1.01,3.82-1.01,5.87,0,2.44.74,4.17,2.23,5.21,1.49,1.04,3.89,1.55,7.21,1.55,3.65,0,6.74-.44,9.25-1.32-2.2-2.49-5.08-4.6-8.63-6.34l1.87-5.01.35-.12c2.64,1.12,5.47,1.67,8.47,1.67h4.86l.39.43ZM16.86,186.44l3.46,4.2-4.31,3.62-2.68-3.19-3.85,3.19-3.5-4.2,4.39-3.62,2.6,3.19,3.89-3.19Z"/>
    <path class="cls-2" d="M30.23,167.74h7.54c.52,0,.78.26.78.78v4.66c0,.52-.26.78-.78.78h-7.54c-.52,0-.78-.26-.78-.78v-4.66c0-.52.26-.78.78-.78Z"/>
    <path class="cls-2" d="M37.77,167.74h7.54c.52,0,.78.26.78.78v4.66c0,.52-.26.78-.78.78h-7.54c-.52,0-.78-.26-.78-.78v-4.66c0-.52.26-.78.78-.78Z"/>
    <path class="cls-2" d="M67.12,168.09v5.52l-.39.35h-1.44c-3.03,0-5.9-.76-8.59-2.29-3.14,1.53-6.43,2.29-9.87,2.29h-1.52l-.39-.51v-5.17l.39-.54h5.99c-1.35-1.19-2.5-2.58-3.46-4.16.91-2.69,2.22-4.85,3.93-6.47s3.51-2.43,5.4-2.43c2.12,0,3.81.74,5.05,2.23s1.87,3.22,1.87,5.19c0,2.18-.62,4.04-1.87,5.6.73.03,1.75.04,3.07.04h1.44l.39.35ZM55.65,151.88l-3.42-4.04,4.39-3.62,3.34,4.04-4.31,3.62ZM56.27,160.9c-1.11,0-2.22.61-3.3,1.83,1.09,1.74,2.58,3.04,4.47,3.93,1.17-.85,1.75-1.84,1.75-2.95,0-.8-.26-1.47-.78-2-.52-.53-1.23-.8-2.14-.8Z"/>
    <path class="cls-2" d="M76.72,151.61c2.57,0,4.57,1.17,6.03,3.5,1.45,2.33,2.18,5.08,2.18,8.24,0,3.45-.43,6.98-1.28,10.61h-16.91l-.39-.54v-5.17l.39-.51h13.22l.04-.78c-2.41-.05-4.56-.36-6.45-.93-1.89-.57-3.67-1.53-5.33-2.88.54-3.45,1.63-6.23,3.27-8.36,1.63-2.12,3.38-3.19,5.25-3.19ZM72.79,148.34l-3.42-3.93,4.43-3.62,2.45,2.84,3.34-2.72,3.34,3.93-4.35,3.62-2.49-2.88-3.3,2.76ZM76.29,157.94c-.6,0-1.19.25-1.77.76-.58.5-1.04,1.24-1.38,2.2,1.35.8,3.6,1.23,6.76,1.28-.21-1.48-.65-2.55-1.32-3.23-.67-.67-1.44-1.01-2.29-1.01Z"/>
    <path class="cls-2" d="M108.51,168.24v4.98l-.39.74h-2.57c-1.01,5.88-4.5,8.82-10.46,8.82-1.66,0-3.42-.43-5.29-1.28l-.62-5.13.35-.31c2.1.65,4.13.97,6.1.97,1.53,0,2.69-.23,3.48-.7.79-.47,1.32-1.28,1.57-2.45-2.62-.26-5-.91-7.15-1.96-2.15-1.05-3.94-2.42-5.36-4.1.7-3.65,1.89-6.65,3.56-8.98,1.67-2.33,3.5-3.5,5.5-3.5,1.63,0,3.08.62,4.33,1.87,1.26,1.24,2.21,2.77,2.86,4.57.65,1.8,1.08,3.79,1.28,5.97h2.41l.39.51ZM96.62,161.64c-.54,0-1.13.32-1.75.97-.62.65-1.14,1.57-1.56,2.76,1.92,1.37,4.39,2.15,7.42,2.33-.29-1.89-.8-3.38-1.53-4.45-.74-1.07-1.6-1.61-2.59-1.61Z"/>
    <path class="cls-2" d="M117.92,144.81v29.15h-9.8l-.51-.43v-5.33l.51-.47h4.04v-22.93h5.75Z"/>
    <path class="cls-2" d="M128.42,173.96h-5.44v-29.15h5.44v29.15Z"/>
    <path class="cls-2" d="M166.7,168.17v5.4l-.39.39h-.16c-1.04,0-2.36-.63-3.96-1.9v5.99c-3.6,2.2-7.18,3.3-10.73,3.3s-6.26-.95-8.3-2.84c-2.03-1.89-3.05-4.69-3.05-8.4,0-2.13.44-4.37,1.32-6.72l4.12-.74.31.31c-.6,2.15-.89,4.08-.89,5.79,0,2.31.58,3.98,1.75,5.01,1.17,1.04,3.23,1.55,6.18,1.55,1.27,0,2.58-.17,3.93-.5v-30.01h5.36v22.23c1.01.47,2.31.7,3.89.7h.23l.39.43Z"/>
    <path class="cls-2" d="M166.28,167.74h7.54c.52,0,.78.26.78.78v4.66c0,.52-.26.78-.78.78h-7.54c-.52,0-.78-.26-.78-.78v-4.66c0-.52.26-.78.78-.78Z"/>
    <path class="cls-2" d="M173.82,167.74h7.54c.52,0,.78.26.78.78v4.66c0,.52-.26.78-.78.78h-7.54c-.52,0-.78-.26-.78-.78v-4.66c0-.52.26-.78.78-.78Z"/>
    <path class="cls-2" d="M195.82,168.17v5.4l-.39.39h-.39c-.57,0-1.08-.06-1.52-.19-.44-.13-.89-.38-1.36-.76-.47-.38-.82-.69-1.07-.93-.25-.25-.64-.67-1.19-1.26l-1.94,3.15h-6.61l-.78-.78v-4.9l.78-.54h5.36v-9.8h5.44v8.98c.75.54,1.76.82,3.03.82h.23l.39.43ZM192.05,176.52l3.46,4.2-4.31,3.62-2.68-3.19-3.85,3.19-3.5-4.2,4.39-3.62,2.6,3.19,3.89-3.19Z"/>
    <path class="cls-2" d="M221.01,166.22c0,2.51-.92,5.49-2.76,8.94-4.56-.83-8.45-2.03-11.66-3.62-1.92.99-3.61,1.63-5.07,1.94-1.46.31-3.3.47-5.5.47h-.58l-.39-.51v-5.17l.39-.54h5.6c-1.24-1.11-2.4-2.42-3.46-3.93.7-.91,1.36-1.68,1.98-2.33l-1.94.43-.39-.31v-5.01c3.81-.83,7.18-1.24,10.11-1.24,4.46,0,7.85,1.02,10.18,3.05,2.33,2.03,3.5,4.65,3.5,7.83ZM208.8,163.74c0-.78-.26-1.48-.78-2.1s-1.22-.93-2.1-.93c-1.17,0-2.23.7-3.19,2.1,1.01,1.66,2.45,2.94,4.31,3.85,1.17-.93,1.75-1.9,1.75-2.91ZM216.15,166.96c0-1.06-.27-2.09-.82-3.09-.54-1-1.33-1.79-2.37-2.39.41.6.62,1.28.62,2.06,0,1.76-.74,3.36-2.22,4.78,1.68.52,3.15.88,4.39,1.09.26-.8.39-1.62.39-2.45Z"/>
    <path class="cls-2" d="M231.74,142.82l.43,2.68c-1.24.34-2.93.51-5.05.51h-4.04v-2.95l2.18.08c-.6-.6-.89-1.26-.89-1.98,0-.93.3-1.92.89-2.95,1.22-.44,2.32-.66,3.3-.66.85,0,1.72.1,2.6.31l-.27,2.6c-.83-.1-1.67-.16-2.53-.16-.39,0-.82.04-1.28.12,0,.08,0,.17-.02.27-.01.1-.02.17-.02.19,0,.93.25,1.71.74,2.33,1.61-.05,2.85-.22,3.73-.51l.23.12ZM235.08,168.21v5.33l-.51.43h-9.48v-25.58h5.44v19.36h4.04l.51.47Z"/>
    <path class="cls-2" d="M249.03,168.17v5.4l-.39.39h-.39c-.57,0-1.08-.06-1.52-.19-.44-.13-.89-.38-1.36-.76s-.82-.69-1.07-.93c-.25-.25-.64-.67-1.19-1.26l-1.94,3.15h-6.61l-.78-.78v-4.9l.78-.54h5.36v-9.8h5.44v8.98c.75.54,1.76.82,3.03.82h.23l.39.43ZM238.5,154.56l-3.42-3.93,4.43-3.62,2.45,2.84,3.34-2.72,3.34,3.93-4.35,3.62-2.49-2.88-3.3,2.76Z"/>
    <path class="cls-2" d="M258.44,144.81v29.15h-9.8l-.51-.43v-5.33l.51-.47h4.04v-22.93h5.75Z"/>
    <path class="cls-2" d="M268.94,173.96h-5.44v-29.15h5.44v29.15Z"/>
    <path class="cls-2" d="M282.27,155.34c1.4,0,2.66.45,3.79,1.36,1.13.91,2.03,2.09,2.72,3.56.69,1.46,1.21,3.05,1.55,4.76.35,1.71.52,3.45.52,5.21,0,8.37-3.58,12.56-10.73,12.56-1.66,0-3.42-.39-5.29-1.17l-.97-5.25.35-.31c2.1.65,4.25.97,6.45.97,1.53,0,2.69-.23,3.48-.7.79-.47,1.33-1.3,1.61-2.49-5.39-.52-9.58-2.53-12.56-6.03.7-3.65,1.89-6.65,3.56-8.98,1.67-2.33,3.5-3.5,5.5-3.5ZM281.65,161.64c-.54,0-1.13.33-1.75.99-.62.66-1.14,1.59-1.56,2.78,2.1,1.58,4.6,2.48,7.5,2.68-.26-2.02-.76-3.6-1.52-4.74-.75-1.14-1.65-1.71-2.68-1.71Z"/>
    <path class="cls-2" d="M309.67,153.67h.54c4.41,5.34,7.1,10.21,8.09,14.62l-3.03,5.67h-12.83l-1.32-5.83.35-.39h11.47c-.49-1.01-1.18-2.15-2.06-3.42-.88-1.27-1.63-2.29-2.25-3.07-.62-.78-1.62-2-2.99-3.65l4.04-3.93Z"/>
    <path class="cls-2" d="M331.4,168.21v5.33l-.39.43h-8.71v-29.15h5.44v22.93h3.27l.39.47Z"/>
    <path class="cls-2" d="M331.01,167.74h7.54c.52,0,.78.26.78.78v4.66c0,.52-.26.78-.78.78h-7.54c-.52,0-.78-.26-.78-.78v-4.66c0-.52.26-.78.78-.78Z"/>
    <path class="cls-2" d="M338.55,167.74h7.54c.52,0,.78.26.78.78v4.66c0,.52-.26.78-.78.78h-7.54c-.52,0-.78-.26-.78-.78v-4.66c0-.52.26-.78.78-.78Z"/>
    <path class="cls-2" d="M368.76,168.17v5.4l-.39.39h-.39c-.93,0-1.72-.2-2.37-.6-.65-.4-1.36-1.02-2.14-1.85l-3.46,3.42-8.55-3.65c-.8,1.04-1.58,1.74-2.33,2.12-.75.38-1.71.56-2.88.56h-.16l-.39-.51v-4.94l.39-.78h.58c.57,0,1.12-.32,1.65-.95.53-.63,1.32-1.81,2.35-3.52,1.27-2.05,2.56-3.64,3.87-4.78,1.31-1.14,2.75-1.71,4.33-1.71,1.79,0,3.28.84,4.49,2.51,1.2,1.67,1.81,3.71,1.81,6.12,0,.47-.04.96-.12,1.48.73.57,1.75.86,3.07.86h.23l.39.43ZM357.72,162.92c-.57,0-1.11.29-1.61.86-.51.57-1.16,1.61-1.96,3.11l5.68,2.45c.34-.96.51-1.92.51-2.88,0-1.04-.26-1.89-.78-2.55-.52-.66-1.13-.99-1.83-.99Z"/>
    <path class="cls-2" d="M382.83,168.17v5.4l-.39.39h-.39c-.57,0-1.08-.06-1.52-.19-.44-.13-.9-.38-1.36-.76-.47-.38-.82-.69-1.07-.93s-.64-.67-1.19-1.26l-1.94,3.15h-6.61l-.78-.78v-4.9l.78-.54h5.36v-9.8h5.44v8.98c.75.54,1.76.82,3.03.82h.23l.39.43ZM372.29,154.56l-3.42-3.93,4.43-3.62,2.45,2.84,3.34-2.72,3.34,3.93-4.35,3.62-2.49-2.88-3.3,2.76Z"/>
    <path class="cls-2" d="M400.48,168.09l-1.17,5.87h-16.87l-.39-.54v-5.13l.39-.54h4.35c-1.37-1.4-2.27-3.07-2.68-5.01.7-2.57,2.05-4.56,4.06-5.99,2.01-1.43,4.24-2.14,6.7-2.14,1.32,0,2.67.18,4.04.54v5.95l-.35.27c-1.11-.31-2.53-.47-4.24-.47-1.81,0-3.52.47-5.13,1.4.41,1.63,1.25,2.95,2.51,3.95,1.26,1,2.71,1.5,4.37,1.5h4.04l.35.35Z"/>
    <path class="cls-2" d="M428.04,168.17v5.4l-.39.39h-.97c-1.55,0-2.86-.32-3.91-.97-1.05-.65-1.94-1.75-2.66-3.3-3.91,3.42-8.8,5.51-14.65,6.26l-2.26-5.79.31-.47c3.21-.34,5.93-.78,8.16-1.32-1.22-3.76-3.56-8.69-7.04-14.81l4.86-2.84c3.06,5.52,5.2,10.95,6.41,16.29,1.22-.49,2.24-1.04,3.07-1.63v-20.56h5.36v18.07c0,1.94.18,3.24.54,3.89.36.65,1.14.97,2.33.97h.43l.39.43Z"/>
    <path class="cls-2" d="M437.44,144.81v29.15h-9.8l-.51-.43v-5.33l.51-.47h4.04v-22.93h5.75Z"/>
    <path class="cls-2" d="M469.51,168.32v5.05l-.39.58h-8.2v-2.76c-2.05,1.35-3.9,2.02-5.56,2.02-2.18,0-3.82-.61-4.92-1.83-1.1-1.22-1.65-2.8-1.65-4.74,0-2.05.53-4.08,1.59-6.1l10.53-2.99v-3.23h5.36v13.41h2.84l.39.58ZM453.26,153.47l-3.42-3.93,4.43-3.62,2.45,2.84,3.34-2.72,3.34,3.93-4.35,3.62-2.49-2.88-3.3,2.76ZM456.18,167.35c1.48,0,3.06-.36,4.74-1.09v-4.12l-7.15,2.02c-.08.49-.12.95-.12,1.36,0,1.22.84,1.83,2.53,1.83Z"/>
    <path class="cls-2" d="M469.12,167.74h7.54c.52,0,.78.26.78.78v4.66c0,.52-.26.78-.78.78h-7.54c-.52,0-.78-.26-.78-.78v-4.66c0-.52.26-.78.78-.78Z"/>
    <path class="cls-2" d="M476.66,167.74h7.54c.52,0,.78.26.78.78v4.66c0,.52-.26.78-.78.78h-7.54c-.52,0-.78-.26-.78-.78v-4.66c0-.52.26-.78.78-.78Z"/>
    <path class="cls-2" d="M498.67,168.17v5.4l-.39.39h-.39c-.57,0-1.08-.06-1.52-.19-.44-.13-.89-.38-1.36-.76-.47-.38-.82-.69-1.07-.93s-.64-.67-1.18-1.26l-1.94,3.15h-6.61l-.78-.78v-4.9l.78-.54h5.36v-9.8h5.44v8.98c.75.54,1.76.82,3.03.82h.23l.39.43ZM494.9,176.52l3.46,4.2-4.31,3.62-2.68-3.19-3.85,3.19-3.5-4.2,4.39-3.62,2.6,3.19,3.89-3.19Z"/>
    <path class="cls-2" d="M508.07,144.81v29.15h-9.8l-.51-.43v-5.33l.51-.47h4.04v-22.93h5.75Z"/>
    <path class="cls-2" d="M521.41,155.34c1.4,0,2.66.45,3.79,1.36,1.13.91,2.03,2.09,2.72,3.56.69,1.46,1.21,3.05,1.55,4.76.35,1.71.53,3.45.53,5.21,0,8.37-3.58,12.56-10.73,12.56-1.66,0-3.42-.39-5.29-1.17l-.97-5.25.35-.31c2.1.65,4.25.97,6.45.97,1.53,0,2.69-.23,3.48-.7.79-.47,1.33-1.3,1.61-2.49-5.39-.52-9.58-2.53-12.55-6.03.7-3.65,1.89-6.65,3.56-8.98,1.67-2.33,3.5-3.5,5.5-3.5ZM520.78,161.64c-.54,0-1.13.33-1.75.99-.62.66-1.14,1.59-1.55,2.78,2.1,1.58,4.6,2.48,7.5,2.68-.26-2.02-.76-3.6-1.52-4.74-.75-1.14-1.65-1.71-2.68-1.71Z"/>
    <path class="cls-2" d="M553.24,168.17v5.4l-.39.39h-1.13c-2.18,0-4.06-.87-5.64-2.6-2.57,1.74-5.64,2.6-9.21,2.6h-3.07l-1.32-5.83.35-.39h5.09c2.15,0,3.95-.18,5.4-.54-1.61-3.01-3.28-6.47-5.01-10.38l4.08-2.99h.39c1.66,3.84,3.42,7.48,5.29,10.92.7,1.27,1.36,2.09,1.98,2.45.62.36,1.43.54,2.41.54h.39l.39.43Z"/>
    <path class="cls-2" d="M562.65,144.81v29.15h-9.8l-.51-.43v-5.33l.51-.47h4.04v-22.93h5.75Z"/>
    <path class="cls-2" d="M573.14,173.96h-5.44v-29.15h5.44v29.15Z"/>
    <path class="cls-2" d="M605.21,168.32v5.05l-.39.58h-8.2v-2.76c-2.05,1.35-3.9,2.02-5.56,2.02-2.18,0-3.82-.61-4.92-1.83-1.1-1.22-1.65-2.8-1.65-4.74,0-2.05.53-4.08,1.59-6.1l10.53-2.99v-3.23h5.36v13.41h2.84l.39.58ZM588.96,153.47l-3.42-3.93,4.43-3.62,2.45,2.84,3.34-2.72,3.34,3.93-4.35,3.62-2.49-2.88-3.3,2.76ZM591.88,167.35c1.48,0,3.06-.36,4.74-1.09v-4.12l-7.15,2.02c-.08.49-.12.95-.12,1.36,0,1.22.84,1.83,2.53,1.83Z"/>
    <path class="cls-2" d="M604.82,167.74h7.54c.52,0,.78.26.78.78v4.66c0,.52-.26.78-.78.78h-7.54c-.52,0-.78-.26-.78-.78v-4.66c0-.52.26-.78.78-.78Z"/>
    <path class="cls-2" d="M612.36,167.74h7.54c.52,0,.78.26.78.78v4.66c0,.52-.26.78-.78.78h-7.54c-.52,0-.78-.26-.78-.78v-4.66c0-.52.26-.78.78-.78Z"/>
    <path class="cls-2" d="M653.65,168.17v5.4l-.39.39h-.39c-1.01,0-1.85-.23-2.51-.68-.66-.45-1.43-1.17-2.31-2.16l-1.83,2.84c-3.03,0-6.18-.93-9.45-2.8l-2.06,2.8c-2.36,0-4.61-.86-6.76-2.57l-.35,2.57h-7.7l-.39-.39v-5.44l.39-.39h3.23l1.24-9.41h5.33l-1.13,8.28c1.27.65,2.8,1.01,4.59,1.09l1.13-9.37h5.25l-.97,8.55c1.61.49,3.62.78,6.03.86-.47-3.63-.99-6.97-1.55-10.03l5.36-1.17c.65,3.47,1.18,6.93,1.59,10.38.73.54,1.74.82,3.03.82h.23l.39.43Z"/>
    <path class="cls-2" d="M683.46,167.93l-3.89,6.02c-3.03,0-6.18-.93-9.45-2.8l-2.06,2.8c-2.46,0-4.78-.92-6.96-2.76l-.43,2.76h-7.42l-.39-.39v-5.44l.39-.39h3.11l1.36-9.41h5.33l-1.24,8.2c1.27.7,2.84,1.09,4.7,1.17l1.13-9.37h5.25l-.97,8.55c1.61.49,3.62.78,6.03.86-.54-3.78-1.19-7.32-1.94-10.61l5.36-1.4c.88,3.86,1.58,7.93,2.1,12.21Z"/>
    <path class="cls-2" d="M706.7,168.24v4.98l-.39.74h-2.57c-1.01,5.88-4.5,8.82-10.46,8.82-1.66,0-3.42-.43-5.29-1.28l-.62-5.13.35-.31c2.1.65,4.13.97,6.1.97,1.53,0,2.69-.23,3.48-.7.79-.47,1.31-1.28,1.57-2.45-2.62-.26-5-.91-7.15-1.96-2.15-1.05-3.94-2.42-5.36-4.1.7-3.65,1.89-6.65,3.56-8.98,1.67-2.33,3.5-3.5,5.5-3.5,1.63,0,3.08.62,4.33,1.87,1.26,1.24,2.21,2.77,2.86,4.57.65,1.8,1.08,3.79,1.28,5.97h2.41l.39.51ZM698.85,149.24l.43,2.68c-1.24.34-2.93.5-5.05.5h-4.04v-2.95l2.18.08c-.6-.6-.89-1.26-.89-1.98,0-.93.3-1.92.89-2.95,1.22-.44,2.32-.66,3.3-.66.85,0,1.72.1,2.6.31l-.27,2.6c-.83-.1-1.67-.15-2.53-.15-.39,0-.82.04-1.28.12,0,.08,0,.17-.02.27-.01.1-.02.17-.02.19,0,.93.25,1.71.74,2.33,1.61-.05,2.85-.22,3.73-.5l.23.12ZM694.81,161.64c-.54,0-1.13.32-1.75.97-.62.65-1.14,1.57-1.55,2.76,1.92,1.37,4.39,2.15,7.42,2.33-.28-1.89-.8-3.38-1.54-4.45-.74-1.07-1.6-1.61-2.58-1.61Z"/>
    <path class="cls-2" d="M728.98,168.17v5.4l-.39.39h-.39c-.93,0-1.72-.2-2.37-.6-.65-.4-1.36-1.02-2.14-1.85l-3.46,3.42-8.55-3.65c-.8,1.04-1.58,1.74-2.33,2.12-.75.38-1.71.56-2.88.56h-.16l-.39-.51v-4.94l.39-.78h.58c.57,0,1.12-.32,1.65-.95.53-.63,1.32-1.81,2.35-3.52,1.27-2.05,2.56-3.64,3.87-4.78s2.75-1.71,4.33-1.71c1.79,0,3.28.84,4.49,2.51,1.21,1.67,1.81,3.71,1.81,6.12,0,.47-.04.96-.12,1.48.73.57,1.75.86,3.07.86h.23l.39.43ZM717.94,162.92c-.57,0-1.11.29-1.61.86-.5.57-1.16,1.61-1.96,3.11l5.67,2.45c.34-.96.51-1.92.51-2.88,0-1.04-.26-1.89-.78-2.55-.52-.66-1.13-.99-1.83-.99Z"/>
    <path class="cls-2" d="M738.39,144.81v29.15h-9.8l-.51-.43v-5.33l.51-.47h4.04v-22.93h5.75Z"/>
    <path class="cls-2" d="M748.88,173.96h-5.44v-29.15h5.44v29.15Z"/>
  </g>
</svg>