<?xml version="1.0" encoding="UTF-8"?>
<svg id="Layer_1" data-name="Layer 1" xmlns="http://www.w3.org/2000/svg" viewBox="0 0 613.18 237.89">
  <defs>
    <style>
      .cls-1 {
        fill: #58595b;
      }

      .cls-2 {
        fill: #00434d;
      }
    </style>
  </defs>
  <g>
    <path class="cls-2" d="M84.71,70.07c1.96,2.41,5.12,4.15,8.67,4.15h124.31c6.78,0,12.28-5.58,12.28-12.36V21.61h-9.12v40.25c0,1.81-1.43,3.24-3.24,3.24h-124.23c-1.73,0-3.09-1.43-3.09-3.24v-24.12h-9.19v20.8c0,3.62-2.94,6.56-6.48,6.56-3.99,0-7.16-2.34-7.16-6.33v-13.34h-9.04v13.11c0,3.54-2.79,6.56-7.16,6.56s-6.93-2.71-6.93-6.33v-13.72h-9.04v32.71c0,1.58-1.28,2.86-2.86,2.86h-12.36c-6.03,0-10.85-4.82-10.85-10.85v-13.87H0v13.87C0,80.77,9.04,89.74,20.05,89.74h14.47c5.43,0,9.8-4.37,9.8-9.8v-7.91c2.03,1.36,4.22,2.19,7.46,2.19,4.52,0,8.52-1.96,11-5.12,2.86,3.32,6.86,5.12,11.38,5.12,4.22,0,7.91-1.51,10.55-4.15Z"/>
    <path class="cls-2" d="M284.39,85.52c0-2.86-2.41-5.28-5.35-5.28s-5.35,2.41-5.35,5.28,2.41,5.35,5.35,5.35,5.35-2.41,5.35-5.35Z"/>
    <path class="cls-2" d="M326.44,37.66h-18.09v23.29c0,2.49-1.36,4.15-4.15,4.15h-6.18c-2.04,0-3.24-1.43-3.24-3.62v-1.96c0-9.04-3.92-14.32-7.76-17.11-7.91-5.95-19.29-5.8-28.03-2.04l3.31,8.21c5.8-1.96,13.94-3.09,19.29.98,2.79,2.11,4.3,5.58,4.3,10.48v1.51c0,1.58.9,2.86,1.96,3.54h-34.52c-1.81,0-3.24-1.43-3.24-3.24V21.53h-9.12v40.32c0,6.78,5.58,12.36,12.36,12.36h50.87c4.07,0,7.84-2.04,10.1-5.35,2.94,3.24,7.39,5.43,12.29,5.35,9.49-.08,17.56-7.61,17.79-17.03v-1.36c0-10.32-7.69-18.16-17.94-18.16ZM335.33,56.73c-.07,4.67-4.14,8.37-8.82,8.37s-8.89-3.24-9.04-8.06v-10.32h8.74c5.12,0,9.12,3.69,9.12,8.74v1.28Z"/>
    <path class="cls-2" d="M29.62,105.63c0-2.86-2.41-5.28-5.35-5.28s-5.35,2.41-5.35,5.28c0,3.01,2.41,5.35,5.35,5.35s5.35-2.34,5.35-5.35Z"/>
    <path class="cls-2" d="M17.71,117.39L0,117.47v19.52C0,146.48,7.91,154.09,17.71,154.02c9.57-.08,17.26-7.76,17.26-17.33v-2.26c0-9.5-7.46-17.03-17.26-17.03ZM26.08,136.53c0,4.82-3.62,8.37-8.37,8.37s-8.67-3.17-8.67-8.14v-10.25h8.67c4.52,0,8.37,3.69,8.37,8.37v1.66Z"/>
    <path class="cls-2" d="M15.75,105.63c0-2.86-2.41-5.28-5.43-5.28s-5.28,2.41-5.28,5.28c0,3.01,2.41,5.35,5.28,5.35,3.01,0,5.43-2.34,5.43-5.35Z"/>
    <path class="cls-2" d="M50.04,152.21c0,7.84-3.92,10.25-12.44,11l3.32,8.59c11.38-.68,18.16-7.69,18.16-19.59v-34.59h-9.04v34.59Z"/>
    <path class="cls-2" d="M255.22,105.56c0-2.86-2.41-5.28-5.35-5.28s-5.35,2.41-5.35,5.28,2.41,5.35,5.35,5.35,5.35-2.41,5.35-5.35Z"/>
    <path class="cls-2" d="M293.43,116.86c2.94,0,5.35-2.34,5.35-5.35s-2.41-5.28-5.35-5.28-5.35,2.41-5.35,5.28c0,3.02,2.41,5.35,5.35,5.35Z"/>
    <path class="cls-2" d="M313.33,141.66c0,1.81-1.43,3.24-3.24,3.24h-6.48c-2.86,0-5.35-2.26-5.73-5.12v-14.85h-9.12v14.77c0,2.86-2.34,5.2-5.2,5.2h-10.47v-7.84c0-3.62-.9-7.08-2.71-10.18-4.52-7.61-14.24-11.15-23.21-8.44l-18.62,5.73v-22.76h-9.04v43.49H82.22c-1.81,0-3.24-1.43-3.24-3.24v-40.32h-9.12v40.32c0,6.78,5.58,12.36,12.36,12.36h202.39c3.69,0,6.93-1.66,9.27-4.07,2.41,2.41,5.88,4.07,9.72,4.07h6.56c6.78,0,12.28-5.58,12.28-12.36v-40.24h-9.12v40.24ZM264.04,143.09c0,1.05-.75,1.81-1.73,1.81h-33.76v-11.38l21.33-6.48c5.05-1.36,10.33.3,12.66,4.37.98,1.73,1.51,3.69,1.51,5.65v6.03Z"/>
    <rect class="cls-2" x="335.26" y="101.26" width="9.12" height="52.76"/>
  </g>
  <g>
    <path class="cls-2" d="M532.43,226.6c.94.51,1.88,1.02,2.82,1.52.24.13.49.25.84.42-.22.2-.34.35-.5.45-1.91,1.21-3.83,2.4-5.74,3.62-.39.25-.69.17-1.06-.03-2.61-1.38-5.2-2.82-7.86-4.1-2.99-1.44-6.12-2.53-9.36-3.28-3.05-.71-6.12-1.03-9.24-1.08-3.34-.05-6.68-.19-10.02-.28-.38-.01-.76,0-1.17,0-.23,1.32-.45,2.58-.67,3.84-.1.58-.2,1.17-.27,1.75-.12.95-.08,1.9.24,2.82.29.84.85,1.4,1.75,1.55.66.11,1.09-.15,1.28-.81.11-.39.17-.8.27-1.2.07-.26.16-.52.29-.95.15.29.26.4.27.52.18,1.86-.1,3.64-.96,5.31-.5.96-1.25,1.36-2.13,1.17-.66-.14-1.15-.56-1.51-1.11-.62-.92-.87-1.97-.92-3.06-.06-1.45.12-2.88.37-4.29.29-1.59.63-3.17.95-4.76.05-.25.06-.5.1-.81-.81-.04-1.57-.09-2.34-.12-3.16-.13-6.32-.25-9.48-.38-4.96-.2-9.89-.63-14.8-1.37-5.64-.85-11.22-2.02-16.59-4-4.28-1.58-8.22-3.76-11.62-6.84-4.27-3.86-6.83-8.61-7.31-14.4-.24-2.81,0-5.59.63-8.34.09-.41.14-.83.21-1.27-1.8-.6-3.31-1.49-4.52-2.98-.32.38-.58.71-.86,1.04-.28.33-.58.66-.86.99-.53.63-1.03,1.28-1.59,1.88-1.31,1.41-2.8,2.57-4.59,3.32-.91.38-1.84.55-2.84.57-4.01.07-7.5-1.34-10.65-3.68-3.81-2.83-6.97-6.3-9.74-10.14-2.2-3.05-4.16-6.24-5.88-9.58-4.51-8.75-7.81-17.92-9.54-27.64-.73-4.08-1.24-8.18-1.52-12.31-.22-3.33-.39-6.67-.47-10.01-.07-2.85-.07-5.71.06-8.55.29-6.58,1.2-13.09,2.81-19.49,1.29-5.1,3.02-10.03,5.22-14.8.98-2.12,2.1-4.17,3.4-6.13,1.29-1.95,2.96-3.47,4.91-4.71,2.17-1.38,4.4-2.64,6.73-3.74.93-.44,1.82-.94,2.81-1.33-.08.1-.15.21-.25.29-2.4,1.95-4.33,4.31-6.08,6.83-4.2,6.03-7.03,12.7-9.08,19.72-1.31,4.47-2.19,9.03-2.83,13.64-.9,6.48-1.24,12.99-1.18,19.52.03,3.65.26,7.29.56,10.93.49,5.93,1.46,11.77,2.94,17.53,1.64,6.39,3.92,12.53,6.92,18.42,2.79,5.48,6.11,10.59,10.18,15.2,2.54,2.88,5.3,5.53,8.52,7.66.81.53,1.69.86,2.66.95.75.07,1.46-.09,2-.61.64-.62,1.29-1.26,1.81-1.98,1.11-1.52,1.91-3.23,2.59-4.97,1.04-2.65,1.99-5.34,2.53-8.15.12-.65.43-1.16.98-1.58,1.43-1.09,2.81-2.24,4.22-3.37.2-.16.4-.3.63-.48.28.34.19.68.14.98-.22,1.21-.43,2.43-.71,3.63-.58,2.5.21,4.54,1.97,6.29.28.28.57.57.91.91.36-.64.68-1.19.99-1.75,1.99-3.6,4.17-7.08,6.45-10.51,1.02-1.54,2.03-3.09,3.06-4.63.77-1.15,1.56-2.29,2.34-3.43.24-.36.46-.73.71-1.13-7.37-8.86-12.08-18.94-14.07-30.32-.17-.03-.34-.09-.5-.08-3.24.03-6.48.12-9.71.08-5.11-.06-10.23.02-15.33-.33-4.13-.28-8.24-.75-12.25-1.84-2-.54-3.92-1.25-5.61-2.47-.3-.22-.65-.41-.78-.78.14-.33.38-.27.61-.25,6.19.73,12.41.77,18.63.89,4.37.09,8.74-.05,13.1.12,3.52.14,7.03.03,10.55.08.2,0,.4-.02.69-.04-.42-4.77-.36-9.51.27-14.28-1.11-.18-2.14-.36-3.17-.52-2.21-.34-4.42-.67-6.62-1.02-3.32-.53-6.65-1.02-9.96-1.63-2.14-.39-4.27-.9-6.38-1.45-1.91-.5-3.81-1.05-5.66-1.73-2.42-.88-4.7-2.07-6.63-3.84-.65-.6-1.05-1.33-1.36-2.12-.75-1.92-1.04-3.92-.86-5.97.1-1.11.43-2.16.96-3.15.93-1.73,2.45-2.62,4.33-2.86,1.29-.17,2.61-.16,3.92-.21.46-.02.92,0,1.43,0-.17-.84-.36-1.63-.5-2.44-.58-3.18-.66-6.38-.29-9.6.89-7.73,3.82-14.72,7.81-21.32.33-.55.67-1.09,1.03-1.68-.98-1.4-1.95-2.83-2.97-4.2-.38-.51-.89-.92-1.55-1.08-.38-.09-.71-.03-1.03.18-.47.3-.53.6-.26,1.1.19.35.39.69.58,1.03-.04.03-.09.07-.13.1-.16-.11-.33-.2-.46-.33-.75-.76-1.33-1.63-1.63-2.67-.33-1.14.42-1.97,1.58-1.74.83.16,1.56.57,2.09,1.23.83,1.04,1.61,2.13,2.37,3.22.47.67.87,1.4,1.3,2.09.11.17.23.33.42.58,1.69-2.46,3.48-4.76,5.58-6.8,2.12-2.06,4.2-4.16,6.45-6.07,2.22-1.89,4.64-3.55,6.96-5.31-.95-1.36-1.89-2.76-2.89-4.12-.33-.45-.77-.83-1.22-1.16-.46-.33-1-.39-1.53-.1-.53.29-.62.61-.33,1.14.17.32.36.63.53.94.02.03-.01.1-.03.21-.16-.1-.32-.16-.43-.27-.8-.78-1.41-1.7-1.72-2.79-.3-1.02.27-1.74,1.34-1.71.93.03,1.65.52,2.28,1.15,1.01,1.01,1.75,2.21,2.51,3.41.63,1,1.25,2,1.93,3.08.58-.49,1.1-.97,1.66-1.41.76-.61,1.52-1.23,2.33-1.76,1.8-1.19,3.48-2.56,5.44-3.5.47-.23.63-.51.55-1.09-.11-.74.02-1.52.04-2.28,0-.23.02-.46,0-.69-.11-.84-.15-1.68.14-2.5.05-.13,0-.29,0-.51.44.06.66.31.86.61.7,1.07,1.06,2.28,1.34,3.51.1.42.17.84.28,1.36.36-.11.69-.16.97-.32,1.66-.91,3.31-1.85,5.04-2.82-.12-.27-.23-.55-.35-.82-.5-1.21-.98-2.43-1.53-3.62-.21-.46-.53-.88-.86-1.27-.35-.41-.82-.61-1.38-.53-.68.1-.92.48-.72,1.14.11.36.22.72.21,1.14-.12-.11-.26-.21-.35-.34-.59-.89-.98-1.87-1.08-2.93-.13-1.28.79-1.92,1.98-1.41.73.31,1.26.87,1.68,1.53.75,1.18,1.23,2.48,1.71,3.78.38,1.01.74,2.02,1.13,3.12.29-.12.55-.21.79-.33,3.07-1.5,6.21-2.81,9.46-3.87,2.47-.81,4.97-1.45,7.56-1.76,3.59-.42,7.14-.34,10.55,1.02,1.23.49,2.43,1.12,3.55,1.83,2.99,1.87,5.1,4.57,6.91,7.54,2.52,4.13,4.62,8.46,6.63,12.85,1.14,2.5,2.34,4.96,3.49,7.46,1.05,2.28,2.07,4.58,3.11,6.87.42.93.88,1.86,1.25,2.81.21.55.56.75,1.1.75.15,0,.31,0,.46,0,.54-.75,1.06-1.51,1.62-2.24,1.61-2.12,3.69-3.72,5.92-5.11,2.42-1.51,4.87-2.97,7.31-4.45.22-.13.43-.28.65-.42-.31-.91-.6-1.78-.91-2.64-1.48-4.16-.77-7.99,1.75-11.54,1.03-1.45,2.21-2.77,3.53-3.97,1.11-1.01,2.36-1.68,3.87-1.92,2.09-.34,4.18-.57,6.29-.4,1.06.08,2.09.29,3.08.67,1.46.56,2.05,1.4,1.9,2.96-.08.86-.31,1.72-.57,2.55-.87,2.8-2.53,5.15-4.38,7.37-.19.23-.39.47-.68.82.3-.07.46-.09.61-.14,3.63-1.37,7.05-3.11,10.13-5.48,1.85-1.42,3.5-3.03,4.6-5.12.98-1.86,1.38-3.82.73-5.88-.69-2.17-2.24-3.51-4.34-4.27-1.76-.63-3.59-.72-5.41-.49-1.75.23-3.49.58-5.23.94-5.66,1.17-11.31,2.39-16.97,3.55-3.26.66-6.55,1.01-9.88.92-3.47-.09-6.86-.58-10.07-2-2.39-1.05-4.45-2.53-6.05-4.63-1.33-1.75-1.66-3.66-1.08-5.75.66-2.36,1.99-4.32,3.68-6.06.22-.23.47-.58.84-.43.41.18.2.58.16.89-.43,3.78,1.02,6.65,4.14,8.75,2.06,1.39,4.39,2.07,6.77,2.67,2.69.67,5.4.59,8.12.37,6.27-.5,12.38-1.95,18.49-3.35,2.48-.57,4.94-1.19,7.43-1.71,1.48-.31,3-.42,4.53-.31,1.88.14,3.47.94,4.81,2.19,1.82,1.7,2.77,3.87,3.03,6.33.34,3.25-.56,6.2-2.27,8.94-2.09,3.34-5.09,5.68-8.43,7.63-3.14,1.83-6.46,3.26-9.94,4.32-.24.07-.49.19-.67.36-1.5,1.34-3.13,2.5-4.83,3.58-.06.04-.12.1-.21.18.1.33.19.67.3,1.01.8,2.66,1.26,5.4,1.69,8.14.21,1.33.48,2.64,1.35,3.72.32.39.15.69-.08,1.03-1.06,1.58-2.11,3.16-3.16,4.75-.16.23-.31.47-.49.76,1.74,1.1,3.51,2.13,5.19,3.28,1.69,1.16,3.35,2.39,4.93,3.7,1.58,1.31,3.1,2.71,4.54,4.17,1.44,1.46,2.81,3,4.12,4.59,1.3,1.58,2.49,3.26,3.75,4.91,1.24-.44,2.56-.57,3.88-.73,1.15-.14,2.3-.26,3.35-.81.76-.4,1.13-1.01,1.04-1.72-.07-.55-.3-.75-.87-.75-.46,0-.91,0-1.48,0,.16-.14.24-.26.36-.31,1.25-.5,2.54-.65,3.85-.38,1.06.22,1.45,1.18.91,2.14-.48.85-1.26,1.37-2.16,1.63-.98.28-1.99.48-3,.65-.94.16-1.89.22-2.83.33-.92.1-1.84.19-2.87.3,2.09,3.3,3.96,6.63,5.4,10.17,1.44,3.53,2.47,7.18,3.27,10.96.28-.03.5-.04.72-.08,1.95-.35,3.89-.72,5.84-1.06.33-.06.66-.09.99-.07.15,0,.37.13.42.26.04.11-.07.34-.19.44-.48.39-.99.74-1.48,1.11-.19.14-.38.29-.57.44.01.06.03.11.04.17.34.06.68.15,1.02.19,2.21.22,4.42.16,6.63.06,4.65-.21,9.28-.69,13.9-1.23,2.73-.32,5.46-.66,8.22-.51,2.17.12,4.27.57,6.26,1.51.24.12.55.21.81.17,2.01-.31,3.91-.92,5.49-2.25,2.62-2.2,3.21-5.09,1.7-8.18-.81-1.64-1.9-3.03-3.39-4.13-2.13-1.56-4.42-2.82-6.79-3.94-1.74-.83-3.48-1.68-5.3-2.3-2.31-.79-4.56-1.71-6.82-2.64-4.03-1.66-7.86-3.69-11.38-6.28-2.59-1.91-4.84-4.13-6.44-6.97-.66-1.18-1.11-2.44-1.39-3.74-.24-1.11-.2-2.25.24-3.34.19-.48.39-.95.61-1.42,1.11-2.33.64-4.45-.86-6.42-1.29-1.69-3.02-2.66-5.12-3.01-1.92-.31-3.84-.14-5.77-.1-1.05.02-2.11,0-3.15-.08-.46-.03-1-.02-1.27-.54.09-.43.45-.51.75-.61.88-.29,1.77-.54,2.65-.83,2.09-.67,3.09-2.41,2.62-4.57-.42-1.93-1.28-3.63-2.72-5-.38-.36-.84-.65-1.35-1.04-.31.67-.57,1.22-.82,1.78-.14.3-.23.63-.4.92-.11.19-.27.41-.45.49-2.14.85-4.3,1.67-6.6,2.55.13-.39.2-.65.31-.9.43-.97,1.05-1.83,1.76-2.61,2.25-2.49,4.91-4.28,8.25-4.93.68-.13,1.38-.22,2.06-.22,2.89.02,4.81,1.55,6.04,4.05.72,1.46,1.05,3,.73,4.63-.32,1.63-1.29,2.82-2.56,3.82-.14.11-.28.22-.45.34.24.25.5.12.73.1,1.82-.1,3.65-.14,5.46.11,1.58.21,3.04.74,4.41,1.55,1.9,1.11,3.8,4.23,2.97,7.06-.15.52-.29,1.04-.45,1.55-.85,2.69-.5,5.25.73,7.76,1.66,3.42,4.22,5.97,7.39,7.98,3.73,2.36,7.74,4.15,11.78,5.87,2.74,1.17,5.44,2.42,8.18,3.59,2.18.93,4.29,1.97,6.33,3.18.73.43,1.45.89,2.11,1.42,2.85,2.29,3.8,5.28,3.04,8.8-.77,3.54-3.03,5.99-6.03,7.84-1.21.74-2.51,1.29-3.87,1.7-.36.11-.72.22-1.19.37.42.36.73.66,1.08.92,1.08.78,2,1.73,2.51,2.96.31.74.37,1.59.48,2.4.1.76.13,1.53.18,2.27,1.39.54,2.74,1.11,4.12,1.59.54.19,1.15.26,1.73.29.45.03.85-.18,1.12-.58.35-.52.26-.9-.3-1.2-.29-.16-.59-.31-.88-.47-.01,0-.01-.05-.03-.14.12,0,.23-.04.33-.02.93.15,1.78.49,2.56,1,.13.08.25.19.36.29.71.69.59,1.57-.29,2.02-.61.31-1.29.43-1.95.26-1.01-.27-2.03-.57-3.01-.93-.96-.36-1.88-.82-2.83-1.23-.28-.12-.56-.23-.9-.36-.03.17-.08.29-.08.4-.03,3.35-.45,6.66-.97,9.96-.61,3.83-1.33,7.64-2.27,11.41-.4,1.59-.73,3.2-1.15,4.78-.32,1.21-.73,2.4-1.1,3.6-.36,1.15-.67,2.32-1.09,3.45-.79,2.11-1.64,4.2-2.48,6.3-.59,1.47-1.19,2.94-1.82,4.4-.65,1.53-1.31,3.06-2.03,4.56-.56,1.18-1.18,2.33-1.83,3.45-.58.99-1.23,1.95-1.86,2.91-.44.66-.87,1.33-1.36,1.96-1.28,1.67-2.54,3.36-3.9,4.96-.81.95-1.79,1.76-2.7,2.63-1.17,1.12-2.44,2.12-3.83,2.97-2.4,1.46-4.99,2.41-7.75,2.89-2.79.49-5.61.71-8.45.53-2.49-.16-4.97-.41-7.45-.64-1.44-.13-2.4.4-2.88,1.76-.23.67-.39,1.39-.43,2.1-.26,4.86.69,9.51,2.65,13.95.87,1.97,1.84,3.9,2.72,5.87.97,2.16,1.74,4.4,2.06,6.76.1.75.05,1.54,0,2.3-.07.95-.57,1.67-1.32,2.25-1.06.82-2.25,1.19-3.57,1.26-2.04.11-3.98-.33-5.91-.92-3.1-.95-5.8-2.6-8.34-4.56-.18-.14-.37-.27-.6-.45-.41,1.13-.79,2.21-1.19,3.29-.64,1.75-1.28,3.51-1.94,5.25-.07.18-.3.3-.46.44.29-1.22.58-2.44.86-3.66.43-1.9.84-3.8,1.29-5.69.13-.54-.01-.89-.45-1.25-2.29-1.85-4.23-4.05-5.94-6.44-.37-.51-.63-1.11-.91-1.69-.13-.27-.19-.58.01-.85.42-.06.66.18.9.41.36.37.73.73,1.06,1.12,1.56,1.85,3.27,3.55,5.1,5.14.25.22.5.42.88.73.9-5.23,1.73-10.32,1.59-15.57-.34-.02-.6-.04-.85-.06-.74-.04-1.49-.04-2.23-.12-1.15-.13-2.24-.47-2.93-1.48-.34-.5-.57-1.1-.71-1.68-.44-1.74-.07-3.3,1.2-4.6.63-.64,1.38-.74,2.19-.36.77.36,1.34.94,1.86,1.58.84,1.04,1.29,2.27,1.63,3.54.12.43.31.69.78.67.13,0,.26.02.38.03,1.95.16,3.15,1.31,3.47,3.43-1.21-.77-2.5-.99-3.89-.95.64,5.66.35,11.17-1.09,16.63,2.02,1.42,4.14,2.54,6.51,3.14,2.23.57,4.34.31,6.29-.94.95-.61,1.58-1.44,1.7-2.61.09-.86.01-1.71-.28-2.51-.55-1.47-1.12-2.92-1.74-4.36-1.25-2.93-2.6-5.82-3.78-8.77-1.16-2.89-2.01-5.88-2.15-9.03-.08-1.88-.06-3.74.5-5.57.69-2.26,2.51-3.36,4.94-3.05.69.09,1.37.21,2.05.34,3.37.64,6.75,1.06,10.19,1.02,2.93-.03,5.73-.58,8.32-1.95,1.22-.65,2.4-1.41,3.49-2.25,1.12-.86,2.1-1.89,3.15-2.82,2.29-2.02,4.17-4.4,5.96-6.85,2.61-3.59,4.61-7.53,6.47-11.55,1.86-4.04,3.39-8.21,4.81-12.42,1.26-3.72,2.27-7.52,3.1-11.36.4-1.86.82-3.71,1.16-5.58.38-2.1.73-4.2.98-6.32.26-2.17.42-4.35.59-6.52.1-1.31.14-2.62.16-3.93.01-.76-.18-1-.89-1.24-.27-.09-.55-.14-.82-.2-2.58-.52-5.2-.74-7.82-.62-3.46.17-6.92.47-10.38.71-3.23.22-6.46.56-9.69.64-4.42.11-8.84-.14-13.24-.59-.97-.1-1.83-.4-2.53-1.14-.71-.74-1.49-1.42-2.28-2.08-.42-.35-.63-.77-.75-1.29-.73-3.13-1.68-6.19-2.91-9.16-3.78-9.14-9.45-16.87-17.12-23.11-7.77-6.33-16.61-10.36-26.45-12.21-.24-.04-.49-.05-.79-.08.06.21.08.34.13.45,1.26,2.78,2.5,5.57,3.79,8.34,1.03,2.21,2.05,4.43,3.19,6.58,1.45,2.72,3,5.38,4.54,8.05.25.43.34.85.3,1.32-.11,1.67-.22,3.33-.34,5,0,.1-.09.2-.16.36-.15-.17-.26-.27-.36-.39-1.32-1.68-2.56-3.41-3.64-5.26-1.79-3.06-3.54-6.13-5.01-9.36-1.63-3.6-3.28-7.19-4.91-10.79-.66-1.45-1.31-2.9-1.93-4.37-.2-.47-.5-.63-.99-.66-5.18-.34-10.33-.03-15.42.97-5.87,1.15-11.43,3.16-16.68,6.01-.17.09-.31.22-.51.35.66.74,1.28,1.42,1.89,2.11,2.65,2.97,5.29,5.95,7.95,8.92.68.76,1.31,1.61,2.27,2.05.38.17.54.42.63.79.46,1.76.94,3.52,1.4,5.28.05.18.07.37.11.61-.17-.08-.26-.11-.35-.17-3.13-1.87-6.28-3.71-9.4-5.61-2.02-1.23-4.07-2.42-5.86-3.98-.44-.39-.82-.85-1.2-1.29-.15-.17-.25-.4,0-.66,1.5.43,3.01.87,4.69,1.35-.05-.41-.04-.69-.13-.92-.12-.28-.31-.54-.51-.77-1.08-1.27-2.17-2.53-3.28-3.79-.56-.63-1.14-1.24-1.71-1.85-6.27,3.84-13.29,10.56-18.25,18.97-3.39,5.75-5.79,11.87-7.08,18.51.81.12,1.51.23,2.22.34,4.54.73,9.08,1.48,13.62,2.18.67.1,1.38.07,2.06,0,.37-.04.63,0,.92.2,1.45,1.06,2.92,2.1,4.38,3.16.2.14.38.31.65.55-.82.13-1.49.24-2.18.34-3.91.55-7.83,1.1-11.75,1.64-1.79.25-3.58.34-5.38.22-.5-.03-1-.12-1.42-.66.83-.34,1.59-.64,2.33-.97.74-.33,1.52-.56,2.23-1-.27-.67-.83-.77-1.34-.86-2.12-.39-4.25-.75-6.38-1.11-.19-.03-.39,0-.64,0-.56,4.58-.62,9.1-.05,13.62.19.02.29.05.39.05,5.52.12,11.05.24,16.57.37.85.02,1.64-.17,2.33-.67.29-.21.52-.2.83-.01,1.75,1.08,3.51,2.14,5.27,3.2.18.11.35.26.63.47-.96.23-1.78.43-2.6.63-4.5,1.07-8.99,2.16-13.49,3.2-1,.23-2.02.34-3.04.46-.48.05-.97,0-1.34-.54.29-.24.55-.48.84-.68.67-.47,1.36-.92,2.04-1.39.22-.15.41-.34.7-.58-.29-.12-.44-.24-.6-.24-2.61-.01-5.23,0-7.9,0,.86,4.62,2.24,8.99,4.14,13.19,1.91,4.22,4.25,8.18,7.16,11.88.2-.29.33-.48.45-.67.65-1.02,1.31-2.03,1.93-3.06,1.29-2.16,2.61-4.3,3.81-6.51,1.39-2.57,2.67-5.21,3.98-7.83.19-.39.45-.67.82-.88,1.53-.85,3.04-1.72,4.56-2.58.13-.07.27-.12.46-.21,0,.16,0,.27-.02.35-.52,1.5-.99,3.03-1.58,4.5-1.26,3.12-2.89,6.08-4.46,9.05-1.79,3.39-3.92,6.57-6.03,9.77-.33.51-.66,1.02-.99,1.55,7.03,7.56,15.37,12.93,25.15,16.14.99-1.76,1.94-3.43,2.88-5.1,1.31-2.33,2.6-4.67,3.95-6.97.78-1.34,1.56-2.67,1.62-4.27.02-.5.28-.78.66-1.05,1.88-1.3,3.75-2.62,5.62-3.94.13-.09.28-.16.45-.25,0,.12.02.17.01.21-1.07,4.71-2.12,9.42-3.22,14.12-.38,1.62-.85,3.23-1.35,4.82-.2.62-.59,1.19-.94,1.75-.14.22-.34.46-.72.34-.34-1.75-.09-3.56-.45-5.33-.57.26-.61.23-.94.81-1.1,1.89-2.16,3.79-3.23,5.69-.05.1-.04.23-.05.37,2.86.72,5.73,1.18,8.62,1.43,4.45.37,8.88.24,13.3-.41,7.18-1.04,13.94-3.31,20.25-6.87,10.56-5.95,18.49-14.42,23.85-25.29,2.98-6.04,4.42-12.52,5.4-19.12.4-2.67.65-5.35.98-8.03.04-.33.11-.66.17-.98.06,0,.12,0,.17,0,.13.57.28,1.13.38,1.7.51,2.96,1.01,5.92,1.52,8.88.3,1.77.51,3.55.28,5.36-.3,2.35-.74,4.66-1.44,6.93-.29.95-.61,1.9-.88,2.74.65.66,1.27,1.23,1.83,1.86.89,1,1.73,2.04,2.6,3.06.69.81,1.44,1.54,2.44,1.97.62.27,1.24.33,1.86.02.86-.44,1-1.05.43-1.82-.23-.31-.48-.61-.7-.92-.09-.13-.13-.29-.24-.56.24.09.38.1.46.17.47.39.98.76,1.39,1.2.78.83,1.47,1.73,1.78,2.85.31,1.09-.21,1.93-1.32,2.2-.55.14-1.07.04-1.59-.11-1.31-.37-2.33-1.2-3.21-2.19-1.36-1.54-2.66-3.14-3.96-4.72-.65-.79-1.27-1.61-1.96-2.47-6.11,14.83-16.14,26.05-30.35,33.35-14.27,7.34-29.27,8.73-44.87,4.98-.13.21-.26.42-.38.64-.47.86-.93,1.72-1.4,2.57-3.34,6.15-6.98,12.11-11.26,17.65-1.53,1.99-3.3,3.67-5.68,4.59-.91.35-1.87.59-2.86.51-1.77-.14-3.31-.87-4.47-2.18-2.46-2.77-3.16-5.92-1.77-9.44.06-.15.09-.31.17-.59-.49.24-.86.4-1.22.6-1.39.75-2.83,1.35-4.37,1.71-1.98.46-3.81.22-5.48-1.03-2.46-1.84-3.15-5.27-1.15-7.76.36-.45.76-.86,1.25-1.42-1.49.33-2.84.63-4.17.93-.05.09-.1.16-.12.23-.04.15-.08.3-.11.45-.4,2.18-.59,4.37-.36,6.59.38,3.76,1.72,7.11,4.13,10.03,2.45,2.97,5.56,5.08,8.92,6.87,2.11,1.13,4.38,1.9,6.66,2.59,4.28,1.3,8.65,2.18,13.08,2.82,4.15.6,8.31.99,12.49,1.2,2.87.14,5.75.17,8.63.26,2.39.08,4.78.19,7.17.24,2.16.05,4.32.05,6.48.07.15,0,.31-.06.53-.1-1.14-.74-2.19-1.41-3.24-2.1-4.34-2.85-8.68-5.69-13-8.57-3.14-2.09-6.2-4.32-9.5-6.17-.82-.46-1.65-.93-2.5-1.41.11-.15.18-.29.28-.39,1.47-1.37,2.93-2.74,4.42-4.08.23-.21.57-.39.88-.43,2.39-.33,4.78-.72,7.19-.9,3.64-.27,7.29-.29,10.94-.2,3.6.08,7.2.08,10.8.11.55,0,1.11,0,1.72,0-.08-.71-.15-1.32-.21-1.92-.08-.9-.21-1.8.11-2.67,1.21-3.25,3.43-5.43,6.8-6.38.37-.1.76-.17,1.14-.15,1.4.06,2.56.63,3.53,1.66,1.21,1.29,2.18,2.73,2.96,4.3.7,1.4,1.34,2.83,1.97,4.26.54,1.22,1.02,2.47,1.54,3.7.26.61.2,1.13-.28,1.62-.5.52-.94,1.09-1.42,1.63-.6.67-1.18,1.36-1.82,1.99-.77.75-1.66,1.09-2.8.84-2.25-.5-4.53-.9-6.8-1.33-.42-.08-.85-.11-1.29-.17-.17.35-.27.63-.43.89-.33.55-.66,1.1-1.05,1.6-.21.27-.51.52-.98.3-.15-1.12.16-2.28-.17-3.46-1.02-.15-2.03-.36-3.05-.45-2.94-.26-5.89-.54-8.84-.69-3.57-.17-7.14-.22-10.71-.31-.43-.01-.84.06-1.31.35.31.24.52.42.74.58,3.12,2.13,6.23,4.27,9.37,6.37,1.86,1.24,3.76,2.41,5.65,3.61,3.32,2.1,6.62,4.24,10.12,6.04,6.3,3.25,12.57,6.55,18.86,9.83.24.13.52.19.78.29M430.94,106.61c3.67-17.28,12.7-30.83,27.16-40.79-.2-.23-.35-.43-.52-.61-.56-.6-1.13-1.2-1.68-1.81-1.75-1.95-3.5-3.89-5.24-5.85-1.17-1.32-2.47-2.52-3.43-4.03-.49-.77-1.16-1.44-1.7-2.18-1.72-2.37-3.34-4.81-4.43-7.56-.03-.08-.1-.15-.25-.37,0,.41,0,.65,0,.9,0,.9.07,1.8.02,2.7-.21,3.49-.57,6.96-1.16,10.41-.58,3.4-1.76,6.59-3.72,9.46-1.9,2.8-4.51,4.73-7.64,5.87-3.39,1.23-6.79.82-10.07-.58-1.09-.47-2.06-1.19-2.68-2.25-.52-.88-1.05-1.77-1.46-2.71-1.07-2.47-1.67-5.07-1.73-7.77-.03-1.21,0-2.41,0-3.6,0,0-.07.02-.1.05-.1.12-.2.24-.29.36-1.32,1.65-2.2,3.52-2.84,5.52-1.12,3.47-1.68,7.04-1.97,10.66-.46,5.62-.59,11.24-.21,16.87.01.18.03.36,0,.54-.11.6-.33.78-.88.67-.75-.15-1.52-.24-2.29-.35-.97-.14-1.94-.23-2.92-.08-.95.15-1.77.51-2.41,1.24-.63.73-1.1,1.54-1.37,2.47-.6,2.09-.43,4.16.07,6.24.13.55.43.79.98.91,4.53.91,9.05,1.85,13.64,2.44,1.76.23,3.5.57,5.24.85,2.76.44,5.53.87,8.29,1.3.76.12,1.53.19,2.28.34,1.07.21,2.14.48,3.29.74M496.28,55.16c-.16-.41-.26-.69-.38-.97-.4-.89-.82-1.77-1.22-2.66-1.14-2.55-2.26-5.11-3.42-7.65-.82-1.8-1.7-3.56-2.52-5.36-1.23-2.69-2.58-5.31-4.2-7.78-1.34-2.05-2.75-4.03-4.55-5.71-1.84-1.73-4-2.87-6.46-3.42-3-.67-6.02-.6-9.04-.09-3.96.68-7.77,1.86-11.49,3.36-3.8,1.53-7.37,3.5-10.88,5.6-.15.09-.35.19-.4.33-.19.51-.44,1.04-.45,1.57-.05,2.26-.01,4.52-.05,6.78-.01.79.2,1.46.7,2.06,2.36,2.85,4.71,5.71,7.11,8.52,1.01,1.19,2.15,2.26,3.22,3.41.7.75,1.36,1.54,2.05,2.3,2.14,2.4,4.27,4.79,6.41,7.18.3.34.61.68.9,1.01,10.78-6.15,22.26-8.93,34.68-8.48M446.88,183.24c-.24.14-.43.26-.63.36-.65.3-1.31.6-1.97.88-1.48.64-2.15,2.06-1.85,3.65.38,1.97,2.5,3.95,4.77,4.25,1.38.18,2.66-.12,3.88-.72,1.36-.67,2.7-1.37,4.06-2.05.34-.17.68-.36,1.19-.3-1.38,2.27-1.9,4.64-1.2,7.18.73,2.62,2.5,4.27,5.01,5.35.48-.71.96-1.35,1.37-2.02,4.09-6.62,7.73-13.5,11.43-20.34.06-.1.06-.23.11-.42-9.7-3.31-18.1-8.62-25.28-15.97-.33.52-.59.95-.88,1.37-1.17,1.71-2.35,3.42-3.51,5.14-.59.87-1.13,1.77-1.72,2.65-2.01,2.99-3.82,6.09-5.47,9.28-.3.58-.48,1.22-.77,1.96.63.09,1.12.2,1.62.23,2.17.12,4.3-.24,6.42-.64.8-.15,1.63-.21,2.44-.27.33-.03.67,0,.96.44M438.09,33.74c-.32.21-.52.33-.7.46-2.21,1.6-4.31,3.33-6.23,5.26-1.29,1.29-2.58,2.59-3.75,3.98-2.98,3.56-5.48,7.44-7.59,11.57-1.45,2.84-2.75,5.74-3.59,8.83-.13.49-.23.98-.35,1.49,1.45.48,2.84.68,4.25.76,4.59.27,8.48-1.23,11.56-4.7,2.02-2.27,3.37-4.91,4.15-7.83.79-2.93,1.41-5.89,1.61-8.93.15-2.2.38-4.39.52-6.59.09-1.38.08-2.76.12-4.31M503.22,55.89c7.06,1.13,13.57,3.32,19.89,6.61-.11-.3-.15-.42-.2-.53-.8-1.7-1.6-3.39-2.4-5.09-.62-1.32-1.26-2.64-1.86-3.97-.14-.31-.39-.62-.1-1.08.82.42,1.63.84,2.55,1.31-.24-2.58-1.21-4.75-2.2-7-5.37,2.96-10.73,5.82-15.67,9.75M523.03,40.66c2.71-1.6,5.29-3.14,7.46-5.26.81-.8,1.49-1.69,2.02-2.71.6-1.17.37-1.98-.78-2.65-1.06-.62-2.22-.94-3.43-1.06-2.09-.2-4.16-.02-6.21.38-.67.13-1.32.33-2.06.52.59,3.74,1.75,7.21,3,10.77M519.23,195.56c-.03-.21,0-.37-.07-.5-.72-1.48-1.46-2.94-2.59-4.17-.48-.52-1.05-.92-1.74-1.09-.76-.19-1.5-.13-2.17.37.35,1.43.68,2.77,1.01,4.11.13.53.42.8,1.01.85,1.3.1,2.6.28,3.9.43.19.02.39,0,.64,0M536.04,196.18c-.3-1.17-.97-1.97-1.8-2.63-.89-.7-1.79-.54-2.46.39-.21.29-.36.61-.51.94-.26.59-.14.85.45,1.07.14.05.3.1.45.11,1.1.08,2.19.16,3.29.23.17.01.34-.06.58-.1"/>
    <path class="cls-2" d="M387.12,131.32c.18.12.39.23.55.37.7.64,1.4,1.28,2.09,1.93,1.32,1.25,2.64,2.5,3.95,3.75,2.13,2.04,4.24,4.1,6.38,6.12.91.86,1.87,1.68,2.85,2.47,2.45,1.99,4.89,3.99,7.4,5.9,1.91,1.46,3.9,2.84,5.89,4.18,1.16.78,2.42,1.43,3.71,2.17.47-.75.92-1.47,1.36-2.18.75-1.2,1.53-2.37,2.66-3.27,1.43-1.15,3.01-1.47,4.77-.98.51.14,1.02.31,1.51.5,1.8.71,3.1,1.99,3.89,3.73.53,1.18.77,2.44-.15,3.57-.61.75-1.48,1.16-2.39,1.46-1.13.37-2.31.5-3.49.47-.94-.02-1.88-.21-2.82-.36-.6-.1-1.2-.27-1.79-.42-.37-.09-.62.02-.85.34-.47.64-.94,1.29-1.49,1.85-.49.51-1.05,1-1.77,1.16-.47.1-.96.19-1.44.16-.89-.05-1.78-.18-2.67-.29-.08-.01-.16-.1-.35-.24.25-.16.42-.29.61-.37.64-.25,1.16-.64,1.59-1.17.71-.87,1.43-1.73,2.17-2.64-.21-.18-.32-.33-.46-.4-1.25-.58-2.54-1.09-3.77-1.72-1.18-.6-2.3-1.33-3.44-2-.72-.43-1.44-.87-2.18-1.27-.23-.12-.55-.18-.79-.12-2.13.58-4.26,1.17-6.37,1.8-.94.28-1.79.79-2.48,1.5-.7.71-1.02,1.54-.69,2.53.25.74.61.98,1.4.87.53-.08,1.05-.22,1.58-.32.24-.04.48-.05.79-.08-.07.45-.36.54-.58.67-1.22.7-2.55,1.08-3.94,1.26-.63.08-1.29.13-1.91.05-1.68-.21-2.41-1.5-1.81-3.08.37-.97,1.06-1.69,1.89-2.29,1.29-.93,2.76-1.49,4.27-1.91,2.18-.6,4.37-1.13,6.56-1.69.17-.04.33-.1.59-.19-.27-.21-.46-.36-.65-.51-1.16-.87-2.33-1.72-3.48-2.6-.69-.52-1.38-1.05-2.03-1.62-.86-.76-1.67-1.58-2.5-2.37-.66-.64-1.34-1.26-1.98-1.92-.56-.59-1.07-1.24-1.61-1.86-1.38-1.58-2.79-3.13-4.13-4.74-1.28-1.54-2.49-3.13-3.73-4.7-.16-.2-.33-.39-.47-.61-.16-.25-.29-.51-.44-.77.06-.05.12-.11.18-.16M423.86,159.3c.57.06.98.11,1.38.15,1.44.14,2.8-.15,4.06-.83.89-.48,1.19-1.28,1.11-2.26-.09-1.11-.73-1.94-1.42-2.74-.34-.4-.66-.42-1.08-.08-.39.32-.78.67-1.08,1.08-.82,1.14-1.59,2.31-2.37,3.48-.22.33-.37.71-.62,1.19"/>
    <path class="cls-2" d="M398.68,189.43c.36.32.72.65,1.09.96,2.33,1.97,4.61,4.03,7.03,5.89,1.6,1.23,3.39,2.22,5.13,3.27,2.66,1.61,5.54,2.81,8.36,4.1.97.45,1.91,1,2.8,1.6.45.31.79.8,1.13,1.25.4.54.51,1.17.4,1.83-.05.28-.1.56-.16.83-.27,1.34.41,2.55,1.74,2.92.66.18,1.36.21,2.05.25.69.05,1.39.02,2.08.05.19,0,.37.1.56.15,0,.05,0,.11,0,.16-.26.07-.53.14-.79.22-.92.28-1.3.88-1.09,1.82.17.76.44,1.47,1.21,1.94.73-1.06,1.9-1.07,3.1-1.41-.08.3-.09.5-.18.65-.11.2-.26.39-.44.53-1.32.98-2.8,1.56-4.44,1.37-1.54-.18-2.17-1.56-1.98-2.89.08-.56.39-1.08.61-1.68-.44,0-.89-.03-1.34,0-.84.06-1.64-.05-2.4-.4-1.2-.54-1.73-1.61-1.35-2.9.41-1.37.16-2.6-.75-3.67-.59-.69-1.36-1.16-2.18-1.56-2.21-1.08-4.46-2.1-6.62-3.28-4.31-2.35-8.3-5.14-11.51-8.92-.65-.76-1.27-1.54-1.89-2.33-.15-.19-.23-.42-.34-.64.06-.04.12-.08.18-.11"/>
    <path class="cls-2" d="M547.92,65.68c.86,0,1.72-.02,2.59.02.2,0,.42.18.57.33,1.39,1.44,2.78,2.89,4.16,4.34,3.56,3.74,7.1,7.5,10.68,11.22,1.69,1.76,3.45,3.46,5.2,5.16.82.8,1.71,1.53,2.63,2.36-.28.06-.53.15-.8.17-.54.03-1.08.05-1.62.04-.58-.01-1.11-.21-1.54-.61-1.31-1.23-2.66-2.42-3.93-3.69-5.92-5.93-11.72-11.97-17.28-18.24-.25-.29-.49-.59-.73-.88.02-.07.05-.13.07-.2"/>
    <path class="cls-2" d="M540.75,55.09c-1.47.19-2.95.38-4.42.57-.89.11-1.78.2-2.66.3-.26-.51-1.1-6.87-1.04-8,2.38-.41,4.79-.82,7.28-1.1.08.54.15.98.2,1.44.22,1.99.43,3.98.63,5.97.03.28,0,.56,0,.84l.02-.02Z"/>
    <path class="cls-2" d="M540.73,55.12c.8-.16,1.59-.34,2.4-.48,1.32-.22,2.63-.41,3.95-.61.32-.05.65-.04,1.06-.06.29,2.72.57,5.39.87,8.16-2.44.42-4.84.58-7.32.91-.32-2.67-.63-5.32-.94-7.96,0,0-.02.02-.02.02"/>
    <path class="cls-2" d="M539.39,56.71c.29,2.77.57,5.44.86,8.21-2.48.37-4.86.61-7.31.87-.33-2.7-.64-5.31-.97-8,2.5-.37,4.91-.85,7.42-1.08"/>
    <path class="cls-2" d="M470.91,235.25c-2.39-1.18-4.8-2.38-7.29-3.61.98-2.28,2.09-4.4,3.16-6.66,2.44,1.16,4.83,2.3,7.2,3.43-.26,1.07-2.6,6.29-3.07,6.84"/>
    <path class="cls-2" d="M588.66,93.75c.33-.03.66-.1.98-.08.9.06,1.79.18,2.61.59,1.19.59,1.28,1.7.2,2.48-.67.49-1.44.71-2.25.66-1.38-.09-2.76-.26-4.13-.43-.69-.09-1.36-.27-2.04-.38-.25-.04-.52-.06-.76,0-1.73.49-3.46.98-5.06,1.83-.42.23-.81.52-1.27.81.21.23.36.38.56.59-.41.71-.81,1.45-1.26,2.16-.11.17-.36.34-.55.34-.71,0-1.44,0-2.14-.13-.75-.14-1.05-.63-.85-1.37.13-.48.4-.94.72-1.33.64-.79,1.49-1.35,2.41-1.76,1.31-.59,2.65-1.09,3.98-1.63.16-.07.33-.12.5-.28-.15-.03-.3-.07-.46-.08-1.38-.09-2.77-.11-4.15-.28-.88-.11-1.75-.39-2.6-.67-.64-.21-1.19-.6-1.59-1.17-.43-.62-.44-1.09-.03-1.71.14-.21.33-.4.49-.6.25-.31.55-.42.95-.32.69.16,1.39.29,2.08.43.02.07.05.13.07.2-.23.19-.49.37-.7.58-.9.94-.78,1.58.44,2.09.51.21,1.08.35,1.63.42,1.4.18,2.81.31,4.21.45,1.08.11,2.13.3,3.12.77.14.07.29.11.44.13,1.07.15,2.13.33,3.2.42.58.05,1.18,0,1.75-.09.69-.11,1.17-.63,1.25-1.2.08-.55-.09-.8-.64-.94-.39-.1-.78-.19-1.17-.28.01-.07.02-.14.03-.22"/>
    <path class="cls-2" d="M408.03,169.07c-.31-.06-.53-.11-.85-.17,0-1.02-.01-2.04.01-3.06,0-.17.15-.41.3-.49.71-.41,1.41-.86,2.17-1.13,1-.35,1.69.16,1.85,1.23.12.86-.06,1.69-.38,2.49-.52,1.3-1.25,2.48-2.1,3.58-.69.89-1.45,1.74-2.17,2.6-.1.11-.19.23-.22.44.15-.06.31-.09.46-.17,1.28-.66,2.54-1.35,3.83-1.98,1.13-.56,2.34-.93,3.59-1.11.81-.11,1.59-.05,2.33.31.67.33.99.87.94,1.62-.01.2-.08.4-.09.61-.06.7-.38,1.11-1.1,1.28-.69.16-1.36.44-2.14.71.05-.26.08-.42.11-.57.09-.4.22-.79.27-1.2.09-.75-.33-1.28-1.1-1.25-.68.03-1.39.13-2.02.38-1.48.58-2.91,1.29-4.37,1.91-.99.42-2,.8-3.02,1.14-.5.17-1.04.31-1.67,0,.26-.29.48-.55.72-.8,1.28-1.34,2.55-2.68,3.6-4.22.43-.63.86-1.27,1.05-2.13"/>
    <path class="cls-2" d="M416.62,144.2c1.22-.29,2.43-.59,3.66-.86,1.51-.33,3.04-.52,4.59-.35.83.09,1.61.3,2.27.86.62.53.78,1.07.54,1.85-.04.12-.09.24-.14.36-.27.73-.66,1.22-1.56,1.17-.68-.04-1.37.08-2.2.14.23-.42.4-.72.57-1.02.82-1.44.24-2.13-1.17-2.23-.96-.07-1.95.06-2.91.19-1.47.21-2.93.54-4.4.75-.83.12-1.69.09-2.53.1-.36,0-.71-.06-1.02-.42,2.46-1.66,5.17-2.98,7.03-5.5-.31-.16-.52-.28-.81-.43.26-.99.5-1.98.78-2.96.05-.16.25-.35.42-.4.76-.21,1.53-.46,2.31-.54,1.07-.1,1.62.45,1.53,1.52-.04.55-.24,1.1-.47,1.6-.47.99-1.22,1.77-2,2.52-1.23,1.18-2.58,2.2-4.01,3.11-.19.12-.36.25-.54.38.03.05.05.1.08.15"/>
    <path class="cls-2" d="M603.38,69.57c-1.24.16-2.37.5-3.32-.37-1.5-1.37-2.99-2.74-4.41-4.18-2.96-2.99-5.86-6.04-8.84-9.01-.51-.51-.91-1.1-1.43-1.59-.54-.51-1.03-1.08-1.53-1.63-.5-.55-1-1.1-1.49-1.66-.1-.11-.17-.25-.31-.44.8-.22,1.56-.2,2.29-.07.35.06.68.44.96.73,1.32,1.4,2.61,2.82,3.92,4.22,1.44,1.53,2.87,3.07,4.36,4.56,2.73,2.74,5.5,5.46,8.26,8.17.43.42.94.77,1.54,1.26"/>
    <path class="cls-2" d="M559.7,202.11c-.32-.39-.69-.74-.94-1.17-1.01-1.69-1.75-3.49-1.91-5.48-.13-1.61.67-2.58,1.83-2.81.67-.13,1.33-.04,1.96.24,1.41.62,2.46,1.64,3.3,2.92,1.03,1.58,1.81,3.28,2.5,5.03.81,2.08,1.6,4.17,2.4,6.25.29.77.6,1.53.89,2.3.09.25.12.52.19.85-.51-.06-.76-.33-.93-.64-.38-.67-.75-1.34-1.06-2.04-.99-2.23-1.96-4.47-2.93-6.7-.4-.91-1.02-1.67-1.7-2.37-.98-1-2.31-1.25-3.37-.68-.74.39-.95.91-.67,1.73.19.56.39,1.11.57,1.68.08.26.1.53.15.8-.08.03-.16.07-.24.1"/>
    <path class="cls-2" d="M580.26,62.51c-.15.54-.28.95-.37,1.37-.18.87.18,1.38,1.07,1.34.63-.02,1.28-.14,1.87-.35,1.28-.46,2.51-1.04,3.78-1.52.96-.36,1.94-.66,2.92-.95.36-.11.76-.15,1.21.13-.23.24-.43.45-.63.66-1.13,1.23-2.27,2.44-3.37,3.69-.44.5-.78,1.08-1,1.78.24.09.44.16.66.24,0,.89.02,1.78-.01,2.67,0,.17-.15.41-.3.49-.68.34-1.36.72-2.09.93-.76.23-1.32-.19-1.42-.98-.06-.5-.02-1.03.09-1.52.23-1.04.76-1.97,1.4-2.81.82-1.08,1.72-2.1,2.59-3.15.16-.19.35-.37.47-.64-.18.06-.36.11-.53.19-1.11.53-2.21,1.09-3.34,1.58-1.06.47-2.17.8-3.34.87-.67.04-1.33-.01-1.94-.34-.59-.32-.85-.8-.79-1.46.02-.18.08-.35.1-.53.07-.64.4-.99,1.05-1.13.61-.13,1.21-.35,1.91-.55"/>
    <path class="cls-2" d="M570.74,32.39c-.57.34-1.12.7-1.7,1.01-1.23.63-2.45,1.3-3.73,1.82-.69.28-1.49.34-2.25.42-.34.04-.72-.07-1.05-.18-.73-.24-1.04-.69-1.02-1.45,0-.36.06-.72.16-1.06.06-.19.24-.4.42-.48.7-.31,1.42-.57,2.18-.87.1.34-.05.59-.1.85-.32,1.49.27,2.14,1.72,1.7,1.17-.36,2.27-.95,3.39-1.46,1.31-.59,2.6-1.23,3.91-1.81.47-.21.98-.31,1.63-.13-.19.26-.35.47-.51.67-.86,1.06-1.75,2.09-2.57,3.17-.61.79-1.13,1.65-1.43,2.69.26.07.48.14.76.21.05.83.11,1.67.13,2.52,0,.2-.09.5-.24.6-.64.41-1.29.85-2,1.12-.8.3-1.44-.12-1.56-.99-.07-.57-.03-1.18.08-1.75.24-1.17.82-2.22,1.48-3.2.67-1,1.43-1.95,2.15-2.92.09-.12.18-.24.28-.36-.04-.04-.08-.09-.11-.13"/>
    <path class="cls-2" d="M408.08,114.94c-.5.31-1.05.3-1.61.2-1.81-.34-3.62-.71-5.44-1.06-.91-.17-1.81-.36-2.73-.49-.93-.13-1.85-.01-2.74.27-1.03.33-1.67,1.18-1.7,2.15-.02.65.21,1,.85,1.2.54.17,1.09.29,1.63.46.23.07.44.18.66.27,0,.06-.02.13-.02.19-.21.05-.41.14-.62.15-2.07.06-4.02-.36-5.84-1.38-.2-.11-.38-.26-.55-.42-.86-.81-.95-1.89-.26-2.84.46-.62,1.08-1.01,1.79-1.29.99-.39,2.03-.52,3.09-.48,2.24.1,4.42.56,6.59,1.09,1.99.48,3.98.98,5.97,1.49.31.08.62.2.93.3,0,.06-.01.13-.02.19"/>
    <path class="cls-2" d="M418.12,121.16c.36-.27.63-.46.88-.66.83-.67.81-1.22-.07-1.83-.33-.23-.71-.43-1.1-.54-1.23-.37-2.47-.69-3.7-1.06-.86-.26-1.71-.56-2.54-.88-.37-.14-.76-.33-.98-.83,2.36-.43,4.78-.43,6.99-1.64-.15-.22-.26-.37-.42-.6.5-.61,1.01-1.25,1.54-1.86.1-.11.33-.2.47-.18.68.12,1.37.22,2.01.47.69.27.83.85.49,1.53-.27.55-.72.93-1.22,1.25-1.26.8-2.66,1.2-4.1,1.51-.77.17-1.55.29-2.33.49.51.27,1.08.32,1.63.43,1.29.25,2.58.51,3.76,1.09.64.31,1.28.69,1.79,1.17,1.09,1.02.84,2.28-.52,2.9-.13.06-.31.09-.44.05-.69-.24-1.38-.51-2.16-.81"/>
    <path class="cls-2" d="M512.66,23.19c-.59.32-1.07.61-1.57.86-5.25,2.59-10.52,5.12-15.91,7.39-.38.16-.77.29-1.14.45-.69.3-1.35.25-2-.1-.18-.1-.31-.28-.46-.43.15-.12.29-.27.45-.35.35-.16.72-.26,1.07-.42,4.34-1.98,8.68-3.96,13.01-5.95,1.24-.57,2.48-1.12,3.67-1.77.75-.4,1.43-.46,2.17-.05.19.11.39.21.69.36"/>
    <path class="cls-2" d="M550.01,32.32c.19-.72.58-1.07,1.01-1.37,1.09-.77,2.2-1.52,3.3-2.27.87-.6,1.76-1.16,2.59-1.8.84-.65,1.52-1.45,1.79-2.53.16-.63,0-1.17-.35-1.67-.42-.58-.82-.68-1.46-.35-.41.21-.8.47-1.2.69-.19.11-.4.19-.77.37.13-.32.15-.49.25-.6,1.26-1.41,2.78-2.45,4.62-2.92,1.63-.41,2.83.73,2.5,2.39-.14.69-.46,1.36-.81,1.97-.56.97-1.4,1.72-2.31,2.34-1.93,1.32-3.89,2.58-5.85,3.85-.84.54-1.7,1.05-2.56,1.57-.18.11-.39.18-.73.33"/>
    <path class="cls-2" d="M501.97,31.79c.96,2.11,1.63,4.3,3.27,6.02.17-.18.3-.33.48-.53.67.3,1.38.6,2.06.93.14.07.28.26.3.41.06.66.15,1.33.09,1.99-.06.66-.56.95-1.23.83-.6-.11-1.14-.39-1.53-.84-.67-.78-1.33-1.57-1.88-2.43-.51-.79-.88-1.68-1.31-2.53-.08-.15-.14-.3-.21-.46-.05,0-.11.02-.16.03.04.6.07,1.19.12,1.79.12,1.52.17,3.03-.24,4.52-.17.63-.43,1.21-.93,1.65-.48.41-.92.47-1.49.19-.88-.43-1.01-.64-.93-1.61.04-.48.1-.95.17-1.51.38.28.67.53.99.73.66.41,1.12.29,1.41-.44.18-.47.3-.99.32-1.49.05-1.18,0-2.36.02-3.55.02-.85.08-1.69.15-2.53.05-.53.13-.66.54-1.15"/>
    <path class="cls-2" d="M468.04,9.48c.32.34.55.61.81.84.62.58,1.11.52,1.57-.2.51-.8.61-1.73.78-2.64.28-1.49.52-2.98.83-4.46.09-.46.25-.94.78-1.28.09.33.16.62.25.9.41,1.4.8,2.81,1.25,4.2.15.47.46.9.73,1.41.22-.17.37-.29.59-.46.59.39,1.23.77,1.82,1.2.16.12.31.38.3.57-.03.61-.06,1.24-.22,1.82-.2.74-.71.94-1.44.67-.57-.21-1.04-.6-1.35-1.11-.49-.78-.97-1.58-1.33-2.42-.4-.97-.66-1.99-.98-3-.05-.16-.12-.31-.28-.45-.1,1.01-.2,2.02-.32,3.03-.13,1.13-.37,2.23-.87,3.26-.27.56-.61,1.07-1.16,1.41-.53.32-1.01.31-1.51-.05-.78-.56-.88-.81-.64-1.74.12-.46.24-.92.39-1.49"/>
    <path class="cls-2" d="M589.99,75.64c.54-.34,1.06-.27,1.57-.13,1.43.41,2.85.84,4.28,1.26,1.18.34,2.35.78,3.61.65.45-.04.92-.14,1.33-.33.31-.14.6-.41.8-.69.59-.86.35-1.56-.62-1.93-.51-.2-1.03-.39-1.55-.59,0-.05.01-.11.02-.16.12-.05.25-.13.37-.13,1.73.08,3.33.56,4.78,1.52.27.18.51.43.7.7.45.65.41,1.38-.08,2-.41.53-.97.82-1.59,1.02-1.43.47-2.87.27-4.25-.1-2-.54-3.97-1.2-5.95-1.83-.95-.3-1.89-.65-2.83-.98-.2-.07-.39-.18-.58-.27"/>
    <path class="cls-2" d="M577.85,46.87c-.17.2-.33.43-.52.6-1.08.94-2.3,1.63-3.71,1.97-.27.06-.56.08-.84.04-.75-.09-1.24-.62-1.33-1.37-.12-1.02.29-1.86.88-2.63.78-1.01,1.81-1.75,2.89-2.39,1.68-.99,3.4-1.92,5.1-2.88.38-.21.75-.45,1.14-.65.3-.16.62-.29,1.09-.5-.23.67-.62.96-1.02,1.21-1.16.71-2.33,1.41-3.5,2.11-1.04.62-2.07,1.24-2.85,2.2-.65.79-.78,1.68-.34,2.42.36.61.76.73,1.41.41.49-.24.96-.56,1.5-.67.03.04.07.09.1.13"/>
    <path class="cls-2" d="M501.61,4.66c0-.16-.02-.29,0-.41.31-1.32.91-2.5,1.8-3.52.1-.12.22-.22.34-.31.89-.69,1.85-.51,2.39.49.39.73.5,1.53.3,2.32-.24.94-.48,1.9-.91,2.76-1.07,2.16-2.24,4.26-3.38,6.39-.07.12-.18.22-.32.39-.23-.52-.03-.92.15-1.3.44-.95.91-1.89,1.37-2.84.35-.72.71-1.42,1.03-2.15.3-.67.41-1.37.33-2.1-.06-.57-.32-1.02-.84-1.3-.57-.31-.94-.22-1.3.33-.27.4-.52.81-.78,1.22,0,.01-.05.01-.18.04"/>
    <path class="cls-2" d="M424.92,188.71c-.03.66-.29,1.01-.55,1.35-.84,1.07-1.7,2.12-2.55,3.18-.57.7-1.07,1.44-1.25,2.35-.12.62,0,1.18.46,1.62.44.42.83.42,1.28,0,.17-.16.3-.35.47-.51.16-.16.33-.31.59-.57-.03.27,0,.42-.06.53-.53,1.14-1.33,2.06-2.33,2.81-.06.05-.13.08-.2.12-1.17.64-2.2.07-2.32-1.28-.09-.97.2-1.84.71-2.62.64-.99,1.33-1.95,2.07-2.86,1-1.23,2.08-2.41,3.13-3.6.13-.15.29-.27.56-.52"/>
    <path class="cls-2" d="M515.16.87c.13.72-.18,1.15-.43,1.58-.69,1.2-1.41,2.38-2.07,3.6-.25.47-.43.99-.55,1.51-.14.62-.05,1.23.46,1.7.53.48,1,.43,1.41-.15.21-.29.42-.58.63-.87.02-.03.09-.03.2-.07,0,.15.01.3-.02.42-.37,1.14-.97,2.15-1.86,2.96-.98.88-2.05.56-2.42-.69-.25-.85-.17-1.7.19-2.48.51-1.12,1.07-2.22,1.7-3.27.75-1.28,1.6-2.51,2.4-3.76.08-.12.18-.24.37-.48"/>
    <path class="cls-2" d="M521.85,6.53c.54-1.2,1.4-2.13,2.51-2.8,1.02-.62,1.98-.1,2.11,1.09.08.73-.06,1.45-.47,2.06-.58.87-1.18,1.75-1.87,2.53-1.16,1.3-2.4,2.52-3.61,3.78-.07.07-.15.12-.27.21-.17-.43.09-.68.28-.91.72-.86,1.49-1.69,2.21-2.56.49-.59.97-1.19,1.39-1.83.19-.29.29-.66.35-1.01.08-.5-.06-.97-.48-1.3-.43-.34-.67-.34-1.08.04-.31.28-.62.57-.93.86-.05-.05-.1-.1-.14-.15"/>
    <path class="cls-2" d="M482.91,11.12c.04-.28.03-.59.12-.85.39-1.06.83-2.09,1.21-3.15.27-.74.51-1.5.7-2.27.08-.31.03-.67-.02-.99-.07-.45-.32-.81-.75-1.01-.56-.27-.9-.15-1.19.42-.17.34-.34.68-.56,1.12-.2-.37-.14-.64-.08-.88.24-.95.63-1.84,1.21-2.64.12-.16.27-.31.43-.43.6-.46,1.29-.37,1.78.19.37.43.57.94.55,1.48-.02.69-.03,1.41-.25,2.04-.56,1.59-1.23,3.14-1.87,4.7-.25.62-.54,1.22-.82,1.82-.08.17-.19.32-.29.49-.05-.02-.11-.03-.16-.05"/>
    <path class="cls-2" d="M601.88,159.07c.16.06.32.1.46.18.91.51,1.66,1.2,2.26,2.06.13.19.24.4.31.62.23.73-.07,1.32-.79,1.6-.69.27-1.38.16-2.02-.13-.6-.27-1.23-.58-1.72-1.01-1.72-1.5-3.39-3.06-5.07-4.61-.07-.06-.1-.16-.18-.3.46-.05.74.18,1.01.4.71.59,1.4,1.2,2.11,1.8.47.4.91.84,1.41,1.19.41.29.88.53,1.36.71.49.18,1.01.16,1.47-.18.55-.42.59-.85.11-1.36-.27-.29-.54-.56-.81-.85.03-.04.07-.09.1-.13"/>
    <path class="cls-2" d="M582.74,187.59c-.13-.11-.28-.2-.39-.33-.64-.72-1.11-1.54-1.39-2.46-.17-.57-.28-1.18.23-1.66.54-.51,1.18-.4,1.8-.14.68.28,1.24.75,1.65,1.34.63.9,1.23,1.83,1.79,2.78.62,1.06,1.17,2.16,1.75,3.25.1.2.19.4.37.78-.48-.15-.68-.4-.84-.66-.5-.81-.98-1.63-1.46-2.44-.3-.51-.57-1.04-.93-1.5-.31-.4-.7-.75-1.09-1.07-.33-.28-.75-.33-1.17-.25-.74.15-.97.61-.65,1.3.15.32.32.63.48.94-.05.04-.09.09-.14.13"/>
    <path class="cls-2" d="M507.59,236.64c-.26-.3-.28-.67-.29-1.05-.05-1.26-.06-2.52-.17-3.77-.05-.6-.25-1.2-.48-1.76-.18-.44-.57-.72-1.09-.73-.57-.02-.8.17-.86.74-.02.18,0,.36-.02.54,0,.18-.03.35-.06.67-.14-.22-.25-.32-.28-.44-.25-1.01-.3-2.03,0-3.04.33-1.14,1.31-1.4,2.18-.59.46.43.75.98.9,1.58.11.45.23.9.24,1.36.07,2.15.1,4.3.14,6.45-.07.01-.15.02-.22.03"/>
    <path class="cls-2" d="M446.9,224c.03.16.08.24.06.3-.26.91-.72,1.71-1.44,2.32-.75.64-1.55.34-1.79-.63-.16-.66-.05-1.28.2-1.88.28-.66.6-1.31.97-1.92.71-1.18,1.47-2.33,2.28-3.47.13.31-.01.57-.15.81-.49.87-1.04,1.71-1.49,2.6-.26.51-.44,1.08-.58,1.65-.06.25.03.57.15.81.33.64.89.66,1.32.08.15-.2.29-.41.48-.67"/>
    <path class="cls-2" d="M606.25,139.13c-.96-.47-1.82-1.07-2.32-2.06-.29-.59-.01-1.12.62-1.34.51-.18,1.02-.11,1.51.07.43.17.85.38,1.23.63,1.54,1.03,2.86,2.32,4.31,3.55-.35.18-.55-.02-.73-.16-.58-.43-1.14-.88-1.7-1.32-.41-.31-.79-.67-1.23-.92-.39-.23-.84-.41-1.28-.47-.29-.04-.66.11-.91.29-.36.26-.34.59-.03.92.21.23.45.44.68.66-.04.05-.09.09-.13.14"/>
    <path class="cls-2" d="M401.11,53.38c.79.68,1.36,1.48,1.58,2.48.17.77-.38,1.29-1.18,1.18-.63-.09-1.18-.39-1.59-.87-.5-.58-.99-1.19-1.41-1.82-.7-1.04-1.35-2.12-2.06-3.24.39-.09.53.15.66.33.45.63.85,1.28,1.32,1.9.42.55.87,1.07,1.34,1.58.27.29.66.39,1.07.33.61-.09.81-.49.53-1.05-.11-.23-.21-.46-.32-.69,0-.01.02-.04.07-.13"/>
    <path class="cls-2" d="M411.68,33.45c.21.24.45.47.64.73.58.81,1.12,1.66,1.72,2.46.26.34.6.63.94.9.29.22.65.31,1.02.18.52-.18.66-.53.4-1.01-.12-.22-.25-.44-.46-.83.27.14.41.17.5.26.58.6,1.05,1.27,1.25,2.09.21.84-.23,1.36-1.1,1.29-.65-.05-1.2-.36-1.6-.83-.59-.68-1.14-1.39-1.64-2.13-.6-.87-1.13-1.78-1.68-2.67-.06-.1-.1-.22-.15-.33.05-.04.11-.08.16-.11"/>
    <path class="cls-2" d="M456.62,6.43c.11.33.2.51.22.69.06.66.08,1.33.16,1.99.07.56.16,1.12.31,1.65.07.25.29.49.51.64.51.35.95.11,1-.51.01-.17,0-.35,0-.61.45.66.5,2.13.15,2.66-.28.42-.75.5-1.21.18-.52-.35-.78-.89-.89-1.48-.13-.7-.22-1.42-.26-2.13-.06-.9-.06-1.79-.08-2.69,0-.07.03-.14.09-.39"/>
    <path class="cls-2" d="M580.55,115.55c.31.67.65,1.33.92,2.02.09.23.02.55-.07.8-1.27,3.71-2.57,7.42-3.84,11.14-4.52,13.15-9.05,26.31-13.26,39.57-.72,2.27-1.35,4.58-2,6.88-.15.53-.18,1.1-.27,1.69.72.15,1.3-.08,1.88-.2,1.11-.23,1.11-.25,1.67.77.21.37.4.75.62,1.18-.98.49-1.95.7-2.95.75-.43.02-.8-.17-1.05-.54-.62-.92-1.19-1.88-1.4-2.97-.11-.59-.11-1.23-.02-1.83.43-2.98,1.36-5.84,2.26-8.71,3.67-11.68,7.68-23.25,11.71-34.8,1.74-4.99,3.55-9.96,5.32-14.94.09-.26.2-.52.29-.78.06,0,.11-.01.17-.02"/>
    <path class="cls-2" d="M533.5,178.47c-.1-2.44-.2-4.79-.31-7.25,2.7-.13,5.32-.25,8.04-.38.24,2.51.46,4.94.57,7.47-2.77.1-5.42.19-8.15.28.09,2.47.46,4.88.5,7.39-2.78.09-5.46.17-8.24.26-.22-2.46-.23-4.83-.35-7.29.31-.04.6-.11.9-.12,2.18-.11,4.36-.21,6.54-.31.15,0,.3-.02.51-.04"/>
    <path class="cls-2" d="M518.7,70.78c1.45,2.37,2.85,4.66,4.27,6.98,2.04-1.37,4.06-2.73,6.15-4.13,1.46,2.38,2.86,4.68,4.25,6.95-.43.56-4.02,2.9-6.17,4.03-1.4-2.21-2.81-4.44-4.24-6.68-2.05,1.28-4.08,2.55-6.18,3.85-1.44-2.28-2.85-4.5-4.3-6.81,2.07-1.42,4.07-2.82,6.22-4.19"/>
    <path class="cls-2" d="M468.33,157.01c.2-.18.41-.35.6-.54,1.39-1.37,2.76-2.76,4.19-4.09,1.22-1.14,2.59-2.11,4.12-2.81,1.07-.49,2.16-.8,3.36-.59.86.15,1.51.58,1.72,1.44.17.69.22,1.41.27,2.13.01.19-.12.47-.28.59-.96.73-1.95,1.43-2.93,2.13-.07.05-.18.05-.36.1,0-.46.03-.87,0-1.27-.04-.46-.08-.93-.2-1.37-.23-.81-.8-1.14-1.66-.99-.79.14-1.54.45-2.17.96-1.22.98-2.43,1.97-3.62,2.99-1.07.92-2.08,1.92-3.18,2.8-.88.7-1.83,1.32-2.79,1.91-.67.41-.9.4-1.62.29.17-.36.34-.7.49-1.04.94-2.08,1.92-4.15,2.81-6.25.48-1.13.82-2.32.9-3.57,0-.13.02-.26,0-.38,0-.07-.05-.14-.1-.28-.33.05-.67.1-1.03.15-.08-.18-.17-.34-.22-.51-.35-1.1-.68-2.21-1.03-3.31-.11-.34-.14-.64.09-.94.64-.84,1.35-1.62,2.2-2.25.18-.14.39-.25.59-.35.87-.43,1.58-.28,2.2.46.51.61.72,1.35.83,2.12.19,1.34.02,2.67-.26,3.98-.56,2.6-1.5,5.07-2.65,7.46-.14.3-.28.6-.42.89.05.05.1.1.14.15"/>
    <path class="cls-2" d="M526.87,155.46c-.32.94-.62,1.89-.98,2.82-.08.2-.34.37-.56.47-1.72.81-3.45,1.6-5.18,2.38-5.31,2.4-10.64,4.75-15.93,7.2-3.26,1.51-6.47,3.14-9.68,4.75-.84.42-1.62.96-2.54,1.52.26-1.51.45-2.95,1.64-3.97.33-.28.73-.49,1.11-.68,2.84-1.43,5.66-2.93,8.55-4.25,6.89-3.15,13.81-6.23,20.72-9.32.88-.39,1.8-.7,2.71-1.05.05.05.1.1.15.15"/>
    <path class="cls-2" d="M452.63,102.3c-.61-.16-1.24-.27-1.83-.49-.98-.38-1.92-.86-2.91-1.23-.67-.26-1.36-.5-2.06-.58-1.47-.17-2.18.68-2.55,1.85-.22.68-.03.91.68,1.05,1.28.25,2.57.49,3.85.77.47.1.94.27,1.39.44.71.27,1.11.85,1.45,1.53-1.92-.42-3.86-.77-5.76-1.27-1.26-.33-2.36-1.01-3.05-2.2-.17-.29-.31-.59-.43-.9-.29-.79-.07-1.47.52-2.03.81-.78,1.8-1.06,2.91-.93.27.03.54.07.93.12-.5-.58-.96-1.03-1.33-1.54-.54-.74-.92-1.55-.72-2.51.26-1.3,1.51-2.14,2.82-1.92.85.15,1.6.54,2.32.99,1.09.67,2.13,1.43,3.4,1.78.18.05.33.23.47.37.26.28.51.57.86.97.13-.36.26-.62.33-.9.36-1.5.75-2.99,1.06-4.5.95-4.55,1.88-9.1,2.8-13.66.12-.59.34-1.05.91-1.31.28-.12.53-.3.92-.52-.08.59-.11,1.06-.2,1.51-.67,3.4-1.33,6.81-2.03,10.2-.45,2.19-.97,4.36-1.47,6.54-.09.38-.23.74-.28,1.12-.16,1.05-.92,1.55-1.77,1.97-.14.07-.36.07-.51.01-.66-.27-1.33-.55-1.95-.89-.97-.52-1.9-1.12-2.87-1.64-.72-.39-1.43-.33-2.08.22-.68.57-1.03,1.28-.86,2.18.14.75.65,1.26,1.25,1.69,1.16.84,2.46,1.39,3.84,1.73,1.02.26,1.45,1.1,2.04,1.8-.03.06-.06.12-.1.18"/>
    <path class="cls-2" d="M537.74,119.86c-.77-.16-1.54-.32-2.31-.47-1.79-.35-3.57-.76-5.2-1.62-.89-.47-1.72-1.02-2.18-1.99-.38-.79-.3-1.33.29-1.97.09-.09.19-.18.27-.27.55-.57,1.15-.76,1.92-.36.6.31,1.27.5,2.04.79-.3.22-.49.34-.66.47-.26.2-.54.39-.78.63-.59.58-.59,1.2.07,1.71.48.37,1.02.72,1.59.9,1.59.51,3.2.95,4.81,1.38,1.3.34,2.51.88,3.74,1.39,1.36.57,2.83.9,4.26,1.29.31.08.67.03.99-.03.42-.07.76-.3.94-.72.2-.46.12-.73-.33-.94-.29-.14-.6-.25-.9-.5.13-.02.26-.07.38-.06.91.09,1.76.36,2.52.88.91.62.85,1.55-.12,2.07-.66.35-1.38.44-2.1.27-1.15-.28-2.3-.55-3.4-.95-1.03-.37-2.02-.59-3.14-.41-1.9.31-3.82.5-5.66,1.11-.56.18-1.11.38-1.6.8.18.22.34.41.55.65-.66.8-1.3,1.59-1.96,2.37-.1.12-.31.19-.47.19-.91-.01-1.79-.16-2.61-.58-.75-.38-.95-.94-.65-1.73.27-.71.8-1.18,1.4-1.6,1.31-.91,2.8-1.4,4.32-1.78,1.12-.27,2.27-.44,3.4-.65.19-.04.38-.09.58-.14,0-.05,0-.09,0-.14"/>
    <path class="cls-2" d="M532.19,89.92c.21-.13.4-.29.62-.37.65-.23,1.31-.48,1.98-.61,1.57-.3,3.14-.48,4.74-.18.64.12,1.24.33,1.71.8.59.58.82,1.27.66,2.1-.19,1.01-.76,1.8-1.51,2.44-.92.79-1.98,1.35-3.15,1.72-1.95.62-3.95.93-5.96,1.16-2.14.25-4.29.44-6.43.66-.87.09-1.73.2-2.6.28-.27.03-.55,0-.93,0,.22-.55.6-.73.97-.83.77-.21,1.54-.38,2.33-.5,2.46-.39,4.92-.74,7.38-1.11,1.06-.16,2.04-.57,2.93-1.12,1.24-.77,1.82-1.88,1.53-3.17-.18-.82-.64-1.18-1.47-1.13-.64.04-1.28.1-1.92.14-.27.01-.54-.03-.81-.05-.02-.08-.04-.16-.07-.24"/>
    <path class="cls-2" d="M454.4,210.11c.89-.12,1.59-.23,2.31-.3,2.45-.22,4.91-.45,7.36-.64,3.07-.24,6.14-.48,9.22-.66,2.48-.14,4.98-.17,7.46-.29,1.51-.07,2.28.92,3.15,1.95-.49.16-.86.37-1.29.05-.16-.12-.45-.07-.68-.06-2.28.1-4.57.17-6.85.32-3.69.24-7.37.54-11.05.81-2.15.16-4.3.31-6.45.51-.89.08-1.67.03-2.26-.75-.23-.3-.53-.54-.93-.94"/>
    <path class="cls-2" d="M584.72,149.41c-.3-.22-.61-.44-.91-.66-1.02-.74-2.06-1.45-3.06-2.22-.98-.75-1.85-1.64-2.53-2.68-.43-.65-.74-1.35-.75-2.15,0-.75.32-1.28,1.02-1.57.07-.03.15-.05.21-.08.83-.39,1.55-.36,2.17.44.4.51.92.94,1.45,1.47-.61.15-1.11.23-1.58.39-.96.32-1.2.9-.7,1.78.28.48.61.97,1.03,1.33,1.26,1.09,2.59,2.11,3.85,3.2.86.73,1.67,1.52,2.47,2.31.32.32.63.69.57,1.32-.34-.09-.64-.18-.95-.26-1.62-.42-3.23-.85-4.85-1.23-.62-.14-1.27-.18-1.91-.21-.34-.02-.69.08-1.09.13.11.3.19.51.3.82-.94.48-1.87.96-2.81,1.41-.12.06-.31.04-.44-.01-.84-.4-1.63-.89-2.22-1.62-.51-.64-.47-1.19.09-1.79.4-.43.91-.66,1.46-.82,1.18-.34,2.38-.34,3.59-.22,1.72.16,3.4.5,5.06.99.14.04.29.07.43.1.03-.05.06-.1.1-.16"/>
    <path class="cls-2" d="M564.68,128.67c-.71.71-1.36,1.39-2.06,2.04-.16.15-.48.28-.68.22-.79-.21-1.6-.41-2.33-.77-.92-.45-1.08-1.21-.48-2.05.32-.44.77-.83,1.24-1.13,1.12-.72,2.4-1.07,3.69-1.26,1.5-.22,3.01-.32,4.52-.48.15-.02.3-.02.64-.04-.28-.16-.41-.26-.55-.3-1.39-.47-2.79-.89-4.16-1.39-1.16-.42-2.26-1-3.23-1.78-.63-.51-1.15-1.1-1.4-1.89-.22-.69-.07-1.26.47-1.74.13-.12.28-.22.42-.34.59-.5,1.18-.6,1.88-.14.57.38,1.22.64,1.97,1.02-.41.23-.71.39-1,.56-1.38.82-1.45,1.61-.14,2.57.57.42,1.23.75,1.89,1.02,1.4.58,2.83,1.07,4.23,1.66.87.37,1.72.81,2.55,1.27.39.21.78.48.94,1.06-2.99.21-6.01-.11-8.88,1.12.19.31.33.54.48.76"/>
    <path class="cls-2" d="M533.2,142.58c.19.09.4.16.57.29,1.67,1.27,2.93,2.87,3.7,4.83.15.37.21.8.21,1.2.01.97-.58,1.72-1.52,1.98-1.4.39-2.64-.07-3.81-.77-1.41-.84-2.54-2.01-3.55-3.28-1.83-2.32-3.59-4.69-5.38-7.04-.44-.59-.86-1.19-1.29-1.79.03-.05.06-.09.1-.14.15.02.35,0,.46.08.43.32.89.62,1.23,1.03,1.4,1.68,2.76,3.38,4.13,5.08.91,1.13,1.9,2.17,3.26,2.77.99.43,1.95.43,2.81-.32.63-.55.7-1.06.25-1.76-.29-.45-.63-.88-.93-1.32-.14-.21-.25-.43-.38-.65.05-.06.1-.12.15-.18"/>
    <path class="cls-2" d="M545.1,166.06c.04.35.06.55.08.8-.8.24-1.58.48-2.37.7-.15.04-.39.02-.49-.08-.53-.52-1.09-1.02-1.52-1.61-.4-.56-.23-1.05.33-1.46.45-.33.98-.43,1.52-.46,1.44-.07,2.8.32,4.13.8.98.36,1.94.8,3.05,1.26-.19-.25-.28-.4-.41-.53-.78-.81-1.59-1.61-2.35-2.44-.71-.78-1.32-1.64-1.74-2.62-.26-.6-.41-1.21-.3-1.87.1-.6.41-1,1-1.12.37-.08.76-.09,1.14-.1.11,0,.28.05.34.13.47.63.92,1.26,1.49,2.05-.54,0-.9-.03-1.24,0-.96.09-1.3.57-.97,1.45.19.5.46.98.79,1.4.8,1,1.66,1.96,2.51,2.92.73.83,1.32,1.75,1.93,2.68.68,1.02,1.51,1.94,2.33,2.85.24.27.64.41,1,.53.34.11.68-.03.9-.31.24-.3.05-.57-.13-.83-.1-.14-.17-.29-.29-.49.81.31,1.74,1.56,1.76,2.29.01.53-.28.87-.82.92-.72.07-1.33-.23-1.81-.71-.63-.63-1.29-1.27-1.78-2.02-.72-1.1-1.66-1.85-2.86-2.33-1.24-.49-2.46-1.03-3.7-1.5-.44-.17-.94-.19-1.53-.31"/>
    <path class="cls-2" d="M482.73,79.4c-.3-.22-.63-.4-.88-.66-1.14-1.2-2.08-2.54-2.56-4.15-.1-.34-.15-.71-.13-1.06.08-1.25,1.28-2.02,2.66-1.73,1.14.23,2.14.75,2.95,1.57.76.76,1.5,1.56,2.12,2.44,1.35,1.93,2.62,3.93,3.92,5.9.25.39.52.76.77,1.16.26.41.49.83.75,1.28-.42.2-.67-.04-.85-.24-.45-.49-.88-1-1.27-1.54-1.14-1.58-2.23-3.2-3.42-4.75-.49-.64-1.13-1.19-1.78-1.68-.89-.67-2.03-.66-2.81-.07-.6.46-.69.94-.31,1.6.35.59.69,1.18,1.03,1.78-.07.06-.14.12-.2.19"/>
    <path class="cls-2" d="M478.87,193.58c.45-2.22,1.24-4.37.94-6.69-.13,0-.22-.01-.31,0-.1.02-.19.06-.37.12-.38-.67-.76-1.32-1.12-2-.07-.14-.08-.38,0-.51.32-.55.64-1.12,1.06-1.59.51-.57,1.07-.51,1.59.06.45.49.62,1.11.73,1.75.23,1.28.09,2.56-.1,3.83-.12.8-.29,1.59-.31,2.45.28-.44.55-.9.85-1.33.57-.82,1.11-1.67,1.74-2.44.4-.5.9-.91,1.38-1.33.25-.21.56-.37.86-.5,1.28-.54,2.2,0,2.35,1.39.02.18-.03.43-.14.56-.41.52-.87,1-1.39,1.58-.14-.48-.23-.85-.36-1.19-.27-.71-.75-.9-1.39-.5-.43.27-.84.61-1.15,1-.77.96-1.46,1.98-2.22,2.95-.5.65-1.04,1.27-1.6,1.87-.25.27-.52.57-1.04.51"/>
    <path class="cls-2" d="M463.48,89.49c-.18-.12-.38-.22-.53-.37-1.04-.99-1.81-2.16-2.24-3.54-.06-.19-.09-.4-.1-.61-.03-.78.46-1.39,1.22-1.55.66-.14,1.27,0,1.87.26,1.12.49,1.97,1.33,2.65,2.29,1.28,1.79,2.48,3.65,3.71,5.48.4.59.77,1.2,1.09,1.87-.48,0-.78-.29-1.02-.62-.67-.91-1.32-1.83-1.98-2.75-.49-.69-.95-1.41-1.49-2.05-.39-.46-.87-.87-1.37-1.23-.7-.5-1.58-.49-2.17-.06-.52.38-.6.75-.28,1.32.26.47.53.93.8,1.39-.05.05-.1.11-.15.16"/>
    <path class="cls-2" d="M577.45,162.67c.28.1.38.12.46.17,1.2.8,2.11,1.86,2.72,3.17.08.16.13.34.16.51.19.84-.24,1.54-1.08,1.76-.85.22-1.66.04-2.37-.4-.74-.45-1.48-.96-2.06-1.59-1.46-1.59-2.82-3.25-4.22-4.89-.4-.46-.77-.95-1.25-1.56.64.03.96.32,1.24.63.85.93,1.68,1.87,2.52,2.8.41.46.79.95,1.26,1.34.49.4,1.03.76,1.61,1.03.65.3,1.31.22,1.86-.3.44-.41.47-.72.13-1.22-.23-.34-.51-.65-.75-.98-.07-.1-.11-.22-.24-.48"/>
    <path class="cls-2" d="M585,121.07c.53-.03.84.22,1.11.52.86.95,1.71,1.91,2.57,2.86.65.72,1.25,1.51,2.13,1.98.36.19.75.4,1.13.43.38.04.83-.05,1.17-.23.7-.38.76-.87.28-1.53-.28-.38-.56-.75-.84-1.13l.11-.12c.15.07.31.11.44.2,1.04.75,1.86,1.69,2.45,2.82.33.64.52,1.32.04,1.96-.49.66-1.21.71-1.95.59-.89-.14-1.67-.53-2.32-1.13-.81-.74-1.62-1.5-2.34-2.33-1.23-1.41-2.39-2.88-3.58-4.33-.15-.18-.27-.39-.41-.58"/>
    <path class="cls-2" d="M509.31,155.54c.13.16.2.21.21.27.23,1.24.17,2.46-.4,3.6-.39.78-1.19.91-1.88.36-.61-.49-.93-1.17-1.03-1.92-.1-.71-.17-1.44-.12-2.14.15-1.89.37-3.77.56-5.66.01-.1.04-.2.07-.33.39.16.34.52.33.78-.02.92-.09,1.84-.16,2.76-.08,1-.18,2,.1,2.98.17.61.52,1.05,1.17,1.2.53.12.84-.09.94-.62.07-.39.13-.79.2-1.28"/>
    <path class="cls-2" d="M422.28,100.62c-1.7-1.85-3.31-3.61-4.99-5.42,1.97-1.83,3.9-3.62,5.82-5.4.66.38,4.81,4.59,5.25,5.34-1.98,1.78-3.98,3.58-6.09,5.48"/>
    <path class="cls-2" d="M438.33,79.09c-2.08,1.87-4.07,3.66-6.05,5.44-.63-.34-3.29-3.13-5.08-5.32,1.91-1.82,3.87-3.6,5.88-5.47,1.77,1.8,3.53,3.5,5.25,5.35"/>
    <path class="cls-2" d="M476.94,30.59c-.18.16-.35.34-.54.49-3.27,2.53-6.52,5.09-9.84,7.56-3,2.24-6.08,4.39-9.13,6.58-.48.34-1,.62-1.49.95-.85.57-1.72.35-2.6.12-.11-.03-.28-.23-.26-.31.05-.17.17-.37.31-.47.68-.46,1.39-.88,2.06-1.35,4.89-3.36,9.64-6.93,14.35-10.54,1.45-1.11,2.93-2.17,4.38-3.28.32-.24.62-.3,1-.22.55.12,1.11.2,1.66.3.03.06.06.11.09.17"/>
    <path class="cls-2" d="M466.14,42.29c1.83,2.3,3.34,4.79,5.89,6.42.14-.3.25-.51.39-.82.95.17,1.93.33,2.91.52.15.03.33.18.4.32.42.83.77,1.69.74,2.64-.02.69-.37,1.09-1.06,1.21-.63.1-1.22-.03-1.8-.27-1.21-.5-2.24-1.28-3.13-2.21-1.07-1.11-2.05-2.3-3.06-3.46-.09-.11-.14-.26-.2-.39-.07.05-.15.1-.22.16.2.6.39,1.2.59,1.8.57,1.65,1.1,3.32,1.22,5.08.05.71,0,1.44-.12,2.14-.08.46-.34.91-.6,1.31-.34.51-.86.71-1.48.59-.2-.04-.4-.1-.6-.15-.69-.21-1.16-.55-1.19-1.38-.02-.68-.19-1.36-.32-2.15.36.16.61.28.86.38.28.12.57.25.86.32.63.16,1.06-.08,1.26-.69.22-.65.23-1.32.07-1.98-.38-1.62-.81-3.24-1.18-4.86-.22-.95-.4-1.91-.55-2.87-.11-.72-.04-.98.3-1.67"/>
    <path class="cls-2" d="M449.37,28.32c1.74,2,3.17,4.16,5.51,5.49.12-.29.2-.5.3-.74.84.1,1.65.17,2.46.31.22.04.5.23.58.42.27.63.55,1.28.68,1.95.18.87-.28,1.42-1.17,1.4-.57-.01-1.19-.13-1.7-.37-.71-.34-1.42-.76-2-1.28-1.11-.99-2.12-2.08-3.17-3.14-.14-.14-.22-.32-.33-.48-.06.04-.12.09-.18.13.07.24.14.47.23.71.42,1.21.88,2.41,1.27,3.63.31.96.44,1.95.4,2.96-.03.63-.16,1.22-.52,1.75-.35.52-.82.76-1.45.63-.2-.04-.4-.11-.6-.15-.57-.12-.86-.47-.94-1.05-.08-.63-.23-1.25-.37-1.98.46.18.8.34,1.16.45.99.32,1.51.02,1.57-1.02.04-.58-.05-1.18-.19-1.75-.31-1.22-.72-2.41-1.06-3.62-.24-.86-.47-1.74-.64-2.62-.1-.51-.21-1.06.18-1.65"/>
    <path class="cls-2" d="M485.91,49.36c-.53-.38-.7-.83-.81-1.3-.33-1.37-.64-2.75-.95-4.12-.27-1.2-.5-2.43-1.21-3.47-.27-.39-.62-.75-1.01-1.03-.43-.31-.95-.34-1.47-.15-.57.21-.75.49-.67,1.11.05.36.12.71.16,1.07.02.24,0,.48-.12.77-.12-.18-.27-.34-.36-.53-.66-1.42-.97-2.93-.82-4.49.15-1.6,1.56-2.21,2.94-1.33.87.55,1.5,1.34,1.88,2.28.33.8.65,1.63.84,2.47.46,2.05.83,4.12,1.24,6.19.12.63.25,1.26.36,1.89.03.16,0,.33,0,.63"/>
    <path class="cls-2" d="M462.74,29.03c-.07-.1-.15-.19-.2-.29-.42-.9-.63-1.85-.57-2.83.08-1.27,1.06-1.72,2.11-.99.59.41,1.01.96,1.23,1.64.31.97.6,1.96.82,2.96.28,1.25.49,2.51.72,3.77.03.14,0,.3,0,.49-.45-.17-.48-.57-.56-.89-.24-.94-.43-1.9-.65-2.85-.17-.75-.35-1.5-.78-2.16-.26-.4-.6-.71-1.08-.8-.72-.14-1.13.27-1.02,1,.05.3.08.6.12.9-.05.02-.11.04-.16.06"/>
    <path class="cls-2" d="M459.31,182.49c-.13-.66-.19-1.12-.32-1.56-.23-.74-.73-.99-1.43-.65-.54.27-1.08.62-1.5,1.05-.97.99-1.84,2.07-2.79,3.08-.67.71-1.37,1.38-2.09,2.04-.31.28-.67.55-1.27.47.26-.74.5-1.43.75-2.11.58-1.57,1.03-3.17,1.1-4.86,0-.2-.03-.4-.04-.67-.23.06-.42.11-.68.18-.45-.8-.81-1.67-1.16-2.54-.06-.14-.02-.38.07-.5.45-.59.88-1.2,1.42-1.7.6-.55,1.2-.45,1.72.2.55.69.76,1.53.71,2.39-.08,1.23-.21,2.45-.42,3.66-.15.85-.47,1.67-.72,2.51-.06.19-.11.38-.09.64.11-.1.23-.2.33-.32.82-.99,1.61-2,2.46-2.96.96-1.09,2.04-2.03,3.43-2.55.64-.24,1.28-.28,1.82.18.59.5.67,1.24.71,1.97,0,.07-.03.16-.08.21-.6.58-1.21,1.15-1.91,1.82"/>
  </g>
  <g>
    <path class="cls-1" d="M11.13,191.34c6.56,0,9.83,2.35,9.83,7.05,0,2.77-1.26,4.57-3.77,5.41,1.53.33,2.66,1.05,3.41,2.15.75,1.11,1.12,2.4,1.12,3.87,0,2.57-.8,4.45-2.4,5.64-1.6,1.19-4.03,1.79-7.28,1.79H0v-25.92h11.13ZM11.02,201.89c1.45,0,2.52-.22,3.22-.67.7-.44,1.05-1.21,1.05-2.31s-.36-1.84-1.07-2.33c-.71-.48-1.78-.72-3.2-.72h-5.41v6.02h5.41ZM5.6,206.2v6.52h6.29c2.77,0,4.16-1.08,4.16-3.24s-1.39-3.28-4.16-3.28h-6.29Z"/>
    <path class="cls-1" d="M35.45,197.82c3.3,0,5.88.95,7.74,2.86,1.85,1.91,2.78,4.26,2.78,7.05s-.93,5.15-2.78,7.05c-1.86,1.91-4.44,2.86-7.74,2.86s-5.92-.95-7.78-2.84c-1.86-1.89-2.78-4.25-2.78-7.07s.93-5.18,2.78-7.07c1.85-1.89,4.45-2.84,7.78-2.84ZM35.41,213.64c1.68,0,2.94-.57,3.79-1.72.85-1.14,1.28-2.54,1.28-4.19s-.43-3.05-1.28-4.19c-.85-1.14-2.12-1.72-3.79-1.72s-2.97.57-3.81,1.72c-.84,1.14-1.26,2.54-1.26,4.19s.42,3.05,1.26,4.19c.84,1.14,2.11,1.72,3.81,1.72Z"/>
    <path class="cls-1" d="M68.81,213.64c.48,0,.86-.05,1.14-.15v3.77c-.89.25-1.87.38-2.94.38-2.64,0-4.22-1.04-4.73-3.13-1.63,2.08-3.88,3.13-6.75,3.13-1.96,0-3.52-.52-4.69-1.56-1.17-1.04-1.75-2.36-1.75-3.96,0-2.16.83-3.77,2.48-4.82,1.65-1.05,3.91-1.58,6.79-1.58.89,0,2.12.08,3.7.23v-1.26c0-1.91-1.44-2.86-4.31-2.86-2.29,0-4.56.5-6.82,1.49l-.91-3.89c2.44-1.07,5.26-1.6,8.46-1.6,2.92,0,5.14.63,6.65,1.89,1.51,1.26,2.27,3.04,2.27,5.36v6.9c0,.59.1,1.01.29,1.28.19.27.57.4,1.12.4ZM57.6,213.64c1.65,0,3.14-.64,4.46-1.91v-2.52c-.97-.18-2.07-.27-3.32-.27-2.77,0-4.16.79-4.16,2.36,0,.76.27,1.34.82,1.73.55.39,1.28.59,2.19.59Z"/>
    <path class="cls-1" d="M84.97,203.15c-1.52,0-2.91.22-4.16.65-1.25.43-2.2.99-2.86,1.68v11.78h-5.34v-19.06h4.84l.42,4.31c.69-1.45,1.62-2.59,2.8-3.43,1.18-.84,2.45-1.26,3.79-1.26l.5,5.34Z"/>
    <path class="cls-1" d="M95.76,197.82c2.57,0,4.59,1.06,6.06,3.16v-10.9l5.34-.65v27.83h-4.84l-.5-2.78c-1.5,2.11-3.52,3.16-6.06,3.16s-4.69-.9-6.21-2.69c-1.53-1.79-2.29-4.2-2.29-7.22s.76-5.43,2.29-7.22c1.52-1.79,3.6-2.69,6.21-2.69ZM97.55,213.64c1.65,0,3.06-.65,4.23-1.94v-7.97c-1.19-1.27-2.61-1.91-4.23-1.91s-2.78.54-3.6,1.62c-.83,1.08-1.24,2.51-1.24,4.29s.41,3.21,1.24,4.29c.83,1.08,2.03,1.62,3.6,1.62Z"/>
    <path class="cls-1" d="M116.76,203.53c0,.61.37,1.1,1.11,1.47.74.37,1.63.67,2.67.92,1.04.24,2.09.53,3.15.88,1.05.34,1.95.9,2.69,1.68.74.78,1.11,1.77,1.11,2.99,0,2.01-.72,3.54-2.15,4.59s-3.55,1.58-6.35,1.58c-3.23,0-5.87-.55-7.93-1.64l.91-3.74c2.01.99,4.29,1.49,6.86,1.49,2.13,0,3.2-.7,3.2-2.1,0-.53-.27-.98-.8-1.33-.53-.36-1.2-.62-1.98-.78-.79-.17-1.65-.39-2.57-.67-.93-.28-1.79-.6-2.57-.95-.79-.36-1.45-.91-1.98-1.66-.53-.75-.8-1.66-.8-2.73,0-1.91.74-3.34,2.21-4.29,1.47-.95,3.47-1.43,5.98-1.43,3.18,0,5.83.53,7.97,1.6l-.92,3.74c-2.01-.97-4.32-1.45-6.94-1.45-1.91,0-2.86.61-2.86,1.83Z"/>
    <path class="cls-1" d="M149.43,197.82c3.3,0,5.88.95,7.74,2.86,1.85,1.91,2.78,4.26,2.78,7.05s-.93,5.15-2.78,7.05c-1.86,1.91-4.44,2.86-7.74,2.86s-5.92-.95-7.78-2.84c-1.86-1.89-2.78-4.25-2.78-7.07s.93-5.18,2.78-7.07c1.85-1.89,4.45-2.84,7.78-2.84ZM149.39,213.64c1.68,0,2.94-.57,3.79-1.72.85-1.14,1.28-2.54,1.28-4.19s-.43-3.05-1.28-4.19c-.85-1.14-2.12-1.72-3.79-1.72s-2.97.57-3.81,1.72c-.84,1.14-1.26,2.54-1.26,4.19s.42,3.05,1.26,4.19c.84,1.14,2.11,1.72,3.81,1.72Z"/>
    <path class="cls-1" d="M162.43,198.2h2.97v-2.02c0-2.11.62-3.76,1.85-4.96,1.23-1.19,3.07-1.79,5.51-1.79,1.93,0,3.53.25,4.8.76l-.92,3.74c-.84-.33-1.83-.5-2.97-.5-1.96,0-2.94.95-2.94,2.86v1.91h5.79v4h-5.79v15.06h-5.34v-15.06h-2.97v-4Z"/>
    <path class="cls-1" d="M193.95,217.26v-21.38h-8.16v-4.54h21.88l-.65,4.54h-7.51v21.38h-5.57Z"/>
    <path class="cls-1" d="M223,203.15c-1.52,0-2.91.22-4.16.65-1.25.43-2.2.99-2.86,1.68v11.78h-5.34v-19.06h4.84l.42,4.31c.69-1.45,1.62-2.59,2.8-3.43,1.18-.84,2.45-1.26,3.79-1.26l.5,5.34Z"/>
    <path class="cls-1" d="M238.59,198.2h5.34v19.06h-4.8l-.5-2.74c-1.4,2.08-3.39,3.13-5.98,3.13-2.16,0-3.81-.6-4.96-1.81-1.14-1.21-1.72-2.98-1.72-5.32v-12.05l5.34-.65v12.58c0,1.04.3,1.84.9,2.4.6.56,1.45.84,2.57.84,1.42,0,2.69-.6,3.81-1.79v-13.65Z"/>
    <path class="cls-1" d="M253.57,203.53c0,.61.37,1.1,1.11,1.47.74.37,1.63.67,2.67.92,1.04.24,2.09.53,3.15.88,1.05.34,1.95.9,2.69,1.68.74.78,1.11,1.77,1.11,2.99,0,2.01-.72,3.54-2.15,4.59-1.44,1.05-3.55,1.58-6.35,1.58-3.23,0-5.87-.55-7.93-1.64l.91-3.74c2.01.99,4.29,1.49,6.86,1.49,2.13,0,3.2-.7,3.2-2.1,0-.53-.27-.98-.8-1.33-.53-.36-1.2-.62-1.98-.78-.79-.17-1.65-.39-2.57-.67-.93-.28-1.79-.6-2.57-.95-.79-.36-1.45-.91-1.98-1.66-.53-.75-.8-1.66-.8-2.73,0-1.91.74-3.34,2.21-4.29,1.47-.95,3.47-1.43,5.98-1.43,3.18,0,5.83.53,7.97,1.6l-.92,3.74c-2.01-.97-4.32-1.45-6.94-1.45-1.91,0-2.86.61-2.86,1.83Z"/>
    <path class="cls-1" d="M274.88,191.34v6.86h5.68v4h-5.68v9.07c0,1.58.9,2.36,2.71,2.36.84,0,1.74-.17,2.71-.5l.65,3.74c-1.42.51-3.05.76-4.88.76-4.35,0-6.52-2.07-6.52-6.21v-9.23h-2.97v-4h2.97v-5.98l5.34-.88Z"/>
    <path class="cls-1" d="M302.37,207.23c0,.28-.04.95-.11,2.02h-13.72c.25,1.47.87,2.61,1.85,3.41.98.8,2.28,1.2,3.91,1.2,2.29,0,4.41-.47,6.37-1.41l.88,3.55c-2.06,1.09-4.65,1.64-7.78,1.64-3.53,0-6.22-.88-8.06-2.65-1.84-1.77-2.76-4.19-2.76-7.26s.92-5.4,2.76-7.2c1.84-1.8,4.33-2.71,7.45-2.71s5.51.88,6.99,2.65c1.49,1.77,2.23,4.02,2.23,6.77ZM288.53,205.78h8.5c-.05-2.82-1.39-4.23-4-4.23s-4.02,1.41-4.5,4.23Z"/>
    <path class="cls-1" d="M324.97,207.23c0,.28-.04.95-.11,2.02h-13.72c.25,1.47.87,2.61,1.85,3.41.98.8,2.28,1.2,3.91,1.2,2.29,0,4.41-.47,6.37-1.41l.88,3.55c-2.06,1.09-4.65,1.64-7.78,1.64-3.53,0-6.22-.88-8.06-2.65-1.84-1.77-2.76-4.19-2.76-7.26s.92-5.4,2.76-7.2c1.84-1.8,4.33-2.71,7.45-2.71s5.51.88,6.99,2.65c1.49,1.77,2.23,4.02,2.23,6.77ZM311.13,205.78h8.5c-.05-2.82-1.39-4.23-4-4.23s-4.02,1.41-4.5,4.23Z"/>
    <path class="cls-1" d="M333.66,203.53c0,.61.37,1.1,1.11,1.47.74.37,1.63.67,2.67.92,1.04.24,2.09.53,3.15.88,1.05.34,1.95.9,2.69,1.68.74.78,1.11,1.77,1.11,2.99,0,2.01-.72,3.54-2.15,4.59s-3.55,1.58-6.35,1.58c-3.23,0-5.87-.55-7.93-1.64l.91-3.74c2.01.99,4.29,1.49,6.86,1.49,2.13,0,3.2-.7,3.2-2.1,0-.53-.27-.98-.8-1.33-.53-.36-1.2-.62-1.98-.78-.79-.17-1.65-.39-2.57-.67-.93-.28-1.79-.6-2.57-.95-.79-.36-1.45-.91-1.98-1.66-.53-.75-.8-1.66-.8-2.73,0-1.91.74-3.34,2.21-4.29,1.47-.95,3.47-1.43,5.98-1.43,3.18,0,5.83.53,7.97,1.6l-.92,3.74c-2.01-.97-4.32-1.45-6.94-1.45-1.91,0-2.86.61-2.86,1.83Z"/>
  </g>
</svg>