<?xml version="1.0" encoding="UTF-8"?>
<svg id="Layer_1" data-name="Layer 1" xmlns="http://www.w3.org/2000/svg" viewBox="0 0 751.21 241.43">
  <defs>
    <style>
      .cls-1 {
        fill: #020263;
      }

      .cls-2 {
        fill: #dab786;
      }
    </style>
  </defs>
  <g>
    <polygon class="cls-1" points="90.08 146.57 96.19 153.82 103.65 147.57 97.67 140.32 90.08 146.57"/>
    <polygon class="cls-1" points="126.67 92.93 130.97 97.9 138.49 91.66 132.71 84.88 126.94 89.58 122.71 84.68 115.05 90.92 120.96 97.7 126.67 92.93"/>
    <polygon class="cls-1" points="158.02 98.64 162.31 103.61 169.83 97.37 164.06 90.58 158.29 95.29 154.06 90.39 146.41 96.62 152.31 103.41 158.02 98.64"/>
    <path class="cls-1" d="M272.87,126.17h-7.38c-2.28,0-4.05-.49-5.3-1.48.13-.9.2-1.75.2-2.55,0-4.16-1.04-7.69-3.12-10.57-2.08-2.89-4.67-4.33-7.75-4.33-2.73,0-5.22.99-7.48,2.96-2.26,1.97-4.49,4.72-6.68,8.25-1.79,2.96-3.15,4.98-4.06,6.08-.91,1.09-1.87,1.65-2.85,1.65h-1.41c-2.24,0-3.99-.47-5.23-1.41-.72-5.95-1.63-11.93-2.75-17.92l-9.27,2.02c.99,5.28,1.88,11.06,2.69,17.32-4.16-.13-7.63-.63-10.4-1.48l1.68-14.77h-9.06l-1.94,16.17c-3.09-.13-5.73-.76-7.92-1.88l1.94-14.3h-9.19l-2.15,16.25h-5.98c-2.2,0-3.94-.47-5.23-1.41v-15.5h-9.4v16.92h-11.75c-2.28,0-4.05-.02-5.3-.06,2.15-2.69,3.23-5.91,3.23-9.67,0-3.4-1.08-6.39-3.23-8.96-2.15-2.57-5.05-3.86-8.73-3.86-3.27,0-6.38,1.4-9.33,4.19-2.96,2.8-5.22,6.52-6.78,11.17,1.66,2.73,3.65,5.13,5.98,7.19h-10.74c-2.2,0-3.94-.47-5.23-1.41v-15.5h-9.4v16.92h-48.67c-2.73,0-4.96-.4-6.71-1.21v-38.4h-9.27v51.82c-2.33.58-4.59.87-6.78.87-5.1,0-8.66-.9-10.67-2.69s-3.02-4.68-3.02-8.66c0-2.96.51-6.29,1.54-10l-.54-.54-7.11,1.27C.77,122.72,0,126.6,0,130.27c0,6.4,1.76,11.23,5.27,14.5,3.51,3.26,8.29,4.9,14.33,4.9s12.3-1.9,18.53-5.71v-10.34c2.78,2.2,5.05,3.29,6.85,3.29h50.68l3.36-5.44c.94,1.03,1.62,1.76,2.04,2.18.42.43,1.04.96,1.85,1.61.81.65,1.59,1.08,2.35,1.31.76.22,1.63.34,2.62.34h3.29c5.95,0,11.63-1.32,17.05-3.96,4.65,2.64,9.6,3.96,14.84,3.96h13.9l3.36-5.44c.94,1.03,1.62,1.76,2.04,2.18.42.43,1.04.96,1.85,1.61.81.65,1.59,1.08,2.35,1.31.76.22,1.63.34,2.62.34h13.96l.6-4.43c3.71,2.96,7.61,4.43,11.68,4.43l3.56-4.83c5.64,3.23,11.08,4.83,16.31,4.83l3.15-4.9c1.52,1.7,2.85,2.94,4,3.73,1.14.78,2.58,1.17,4.33,1.17h.94c2.02,0,3.66-.32,4.96-.98,1.3-.65,2.64-1.86,4.02-3.66l14.77,6.31,5.98-5.91c1.34,1.43,2.57,2.49,3.69,3.19s2.48,1.04,4.1,1.04h17.59v-50.35h-9.94v39.61h0ZM129.48,124.28c-3.27-1.52-5.84-3.78-7.72-6.78,1.88-2.11,3.78-3.15,5.71-3.15,1.57,0,2.8.46,3.69,1.38.9.91,1.34,2.07,1.34,3.46,0,1.93-1,3.63-3.02,5.1ZM251.11,128.92l-9.8-4.23c1.39-2.6,2.52-4.38,3.39-5.37.87-.99,1.8-1.48,2.79-1.48,1.21,0,2.26.57,3.15,1.71s1.34,2.61,1.34,4.4c0,1.66-.3,3.32-.87,4.96h0Z"/>
    <rect class="cls-1" x="291.53" y="86.56" width="9.4" height="50.35"/>
    <polygon class="cls-1" points="397.53 96.08 391.76 89.1 384.17 95.35 390.07 102.33 397.53 96.08"/>
    <path class="cls-1" d="M450.02,105.42l-9.27,2.42c1.3,5.68,2.42,11.79,3.36,18.32-4.16-.13-7.63-.63-10.4-1.48l1.68-14.77h-9.06l-1.94,16.17c-3.23-.13-5.93-.81-8.12-2.02l2.15-14.17h-9.19l-2.35,16.25h-5.77c-2.2,0-3.94-.47-5.23-1.41v-15.5h-9.4v16.92h-53.97v-39.61h-9.4v50.35h65.52l3.36-5.44c.94,1.03,1.62,1.76,2.05,2.18.42.43,1.04.96,1.85,1.61.81.65,1.59,1.08,2.35,1.31s1.63.34,2.62.34h13.49l.73-4.77c3.76,3.18,7.76,4.77,12.02,4.77l3.56-4.83c5.64,3.23,11.08,4.83,16.31,4.83l6.71-10.4c-.9-7.38-2.11-14.41-3.63-21.08h-.02Z"/>
  </g>
  <g>
    <polygon class="cls-2" points="14.96 218.97 14.96 218.97 31.75 218.97 31.75 192.05 25.71 192.05 25.71 212.13 14.96 212.13 14.96 212.13 14.96 212.13 6.04 212.13 6.04 168.62 0 168.62 0 218.97 14.96 218.97 14.96 218.97"/>
    <polygon class="cls-2" points="23.63 229.24 28.13 234.61 33.63 229.97 29.2 224.61 23.63 229.24"/>
    <polygon class="cls-2" points="13.63 229.24 18.06 234.61 23.63 229.97 19.19 224.61 13.63 229.24"/>
    <path class="cls-2" d="M95.15,193.9c-2.03-2.21-4.46-3.32-7.28-3.32-4.02,0-10.3,3.38-18.8,10.13v-6.65h-5.91v18.06h-14.44v-43.49h-6.04v50.34h53.77l4.43-6.58c.04-3.66-.39-7.11-1.31-10.34-.91-3.23-2.39-5.94-4.43-8.15h0ZM69.08,212.13v-5.64c8.06-5.99,13.87-9,17.46-9,1.84,0,3.39.71,4.67,2.11,1.27,1.41,2.21,3.15,2.82,5.23.6,2.08,1.02,4.51,1.25,7.28h-26.19Z"/>
    <path class="cls-2" d="M149.16,212.13h-7.25l-5.17.06c-.09-2.64-.42-5.21-1-7.69-.58-2.48-1.4-4.78-2.45-6.92-1.05-2.12-2.42-3.83-4.1-5.1-1.68-1.27-3.57-1.91-5.67-1.91-3,0-5.82,1.7-8.46,5.1-2.64,3.41-4.54,7.74-5.71,13.02,4.43,5.99,11.57,9.4,21.42,10.21-.45,3-1.42,5.08-2.92,6.25-1.5,1.16-3.64,1.75-6.41,1.75-3.45,0-6.71-.54-9.8-1.61l-.47.4.67,5.77c2.91,1.34,5.82,2.02,8.73,2.02,9.27,0,14.54-4.83,15.84-14.5h19v-50.34h-6.25v43.49h0ZM115.32,206.49c.81-2.64,1.9-4.78,3.29-6.44,1.39-1.66,2.73-2.48,4.02-2.48,2.51,0,4.45,1.41,5.84,4.23,1.39,2.82,2.21,6.26,2.48,10.34-7.11-.54-12.33-2.42-15.65-5.64h0Z"/>
    <rect class="cls-2" x="166.95" y="168.62" width="6.04" height="50.34"/>
    <path class="cls-2" d="M204.37,194.23c-2.08-2.44-4.55-3.66-7.42-3.66s-5.82,1.72-8.46,5.17c-2.64,3.45-4.54,7.81-5.71,13.09,4.47,6.04,11.59,9.51,21.34,10.4-.45,2.87-1.42,4.86-2.92,5.98-1.5,1.12-3.61,1.68-6.34,1.68-3.72,0-7.11-.54-10.21-1.61l-.47.4,1.08,5.84c2.78,1.3,5.68,1.94,8.73,1.94,10.79,0,16.17-6.62,16.17-19.87,0-3.72-.45-7.26-1.34-10.64-.9-3.38-2.38-6.29-4.46-8.73h0ZM188.76,206.61c.85-2.64,1.95-4.81,3.32-6.51,1.36-1.7,2.7-2.55,4-2.55,1.75,0,3.25.77,4.53,2.31,1.27,1.54,2.2,3.41,2.79,5.57.58,2.17.94,4.6,1.08,7.28-6.89-.49-12.12-2.53-15.71-6.11h0Z"/>
    <polygon class="cls-2" points="279.25 174.67 274.89 169.43 269.25 174.06 273.68 179.3 279.25 174.67"/>
    <path class="cls-2" d="M285.23,191.48c-.99-2.35-2.37-4.27-4.16-5.77-1.79-1.5-3.81-2.2-6.04-2.11-3.14.13-5.95,2.11-8.46,5.94-2.51,3.83-4.01,8.23-4.5,13.19,4.87,4.29,11.77,6.4,20.67,6.31,0,.81-.04,1.84-.13,3.09h-31.15c-5.1,0-8.64-.8-10.61-2.38-1.97-1.59-2.96-4.01-2.96-7.28,0-2.24.36-4.74,1.08-7.52l-.47-.34-4.7.67c-.94,3.41-1.41,6.29-1.41,8.66,0,10.03,5.91,15.04,17.72,15.04h36.72c.94-4.11,1.41-8.66,1.41-13.63,0-2.06-.26-4.29-.77-6.71-.52-2.42-1.26-4.8-2.25-7.15h0ZM267.64,199.84c.54-2.51,1.47-4.65,2.79-6.44,1.32-1.79,2.63-2.73,3.92-2.82,2.15-.13,3.92,1.04,5.34,3.52,1.41,2.48,2.34,5.52,2.79,9.1-6.8.09-11.75-1.03-14.84-3.36h0Z"/>
    <path class="cls-2" d="M346.91,187.46c-1.97-2.08-4.25-3.12-6.85-3.12-3.27,0-6.12,1.83-8.56,5.47-2.44,3.65-3.92,7.93-4.46,12.86,4.96,4.34,11.66,6.47,20.07,6.38,0,.81-.04,1.84-.13,3.09h-42.69v-43.49h-6.04v50.34h53.03c.99-4.29,1.48-8.97,1.48-14.03,0-3.4-.48-6.65-1.44-9.73-.96-3.09-2.43-5.67-4.4-7.75v-.02ZM332.61,199.84c.49-2.42,1.4-4.44,2.72-6.08,1.32-1.63,2.7-2.45,4.13-2.45,1.97,0,3.63,1.16,4.96,3.46,1.34,2.3,2.2,5.12,2.55,8.42-6.4.18-11.19-.94-14.36-3.36Z"/>
    <polygon class="cls-2" points="339.2 174.73 343.16 179.44 348.72 174.8 344.36 169.63 338.79 174.27 334.83 169.56 329.26 174.19 333.69 179.36 339.2 174.73"/>
    <path class="cls-2" d="M382.79,194.23c-2.08-2.44-4.55-3.66-7.42-3.66s-5.82,1.72-8.46,5.17c-2.64,3.45-4.54,7.81-5.71,13.09,4.47,6.04,11.59,9.51,21.34,10.4-.45,2.87-1.42,4.86-2.92,5.98-1.5,1.12-3.61,1.68-6.34,1.68-3.72,0-7.11-.54-10.21-1.61l-.47.4,1.08,5.84c2.78,1.3,5.68,1.94,8.73,1.94,10.79,0,16.17-6.62,16.17-19.87,0-3.72-.45-7.26-1.34-10.64-.9-3.38-2.38-6.29-4.46-8.73h0ZM367.18,206.61c.85-2.64,1.95-4.81,3.32-6.51,1.36-1.7,2.7-2.55,4-2.55,1.75,0,3.25.77,4.53,2.31,1.27,1.54,2.2,3.41,2.79,5.57.58,2.17.94,4.6,1.08,7.28-6.89-.49-12.12-2.53-15.71-6.11h0Z"/>
    <path class="cls-2" d="M408.6,177.29l-.54-3.42-.34-.13c-1.57.54-3.62.81-6.17.81-.9-1.03-1.34-2.33-1.34-3.9,0-.72.04-1.21.13-1.48.81-.13,1.54-.2,2.21-.2,1.34,0,2.73.09,4.16.27l.33-3.36c-1.34-.31-2.66-.47-3.96-.47-1.75,0-3.45.3-5.1.87-.81,1.52-1.21,3.11-1.21,4.77,0,1.16.42,2.3,1.27,3.42l-3.36-.13v3.76h6.51c2.86,0,5.32-.27,7.38-.81h.02Z"/>
    <path class="cls-2" d="M443.64,168.62v43.49h-7.79c-2.87,0-4.8-.75-5.81-2.25-1-1.5-1.51-4.13-1.51-7.89v-33.36h-5.98v37.46c-1.52,1.25-3.51,2.51-5.98,3.76-2.11-9.31-5.89-18.88-11.34-28.73l-5.57,3.29c5.68,9.98,9.69,19.09,12.02,27.32-4.47,1.43-9.62,2.48-15.44,3.15l-.47.67,2.48,6.25c10.61-1.34,19.1-4.78,25.51-10.34,1.75,5.01,5.3,7.52,10.67,7.52h15.44v-50.34h-6.25,0Z"/>
  </g>
  <g>
    <path class="cls-1" d="M741.38,150.91c-5.53,3.5-10.97,7.16-16.33,10.92-4.78,3.36-9.29,7.1-14.09,10.42-12.74,8.84-26.08,16.7-40.08,23.39-14.12,6.74-28.78,11.97-44,15.55-10.35,2.44-20.94,2.8-31.51,2.2-7.79-.45-15.58-1.34-23.26-2.7-6.98-1.24-13.36-4.27-19.12-8.56-3.81-2.84-8.09-1.9-10.84,1.91-3.59,4.96-6.94,10.14-10.99,14.7-4.23,4.77-9.7,7.7-16.42,6.6-2.17-.36-3.77-1.42-4.98-2.87v1.88c0,9.44,7.64,17.08,17.08,17.08h207.27c9.44,0,17.08-7.64,17.08-17.08v-79.12c-.26.22-.48.48-.75.7-2.68,2.1-6.16,3.14-9.07,4.98h0Z"/>
    <path class="cls-1" d="M518.91,127.07c1.16-2.54,1.94-5.25,2.97-7.85.19-.47.77-.8,1.17-1.18.24.13.49.27.73.4-.42,2.99-.83,5.99-1.27,8.97-.65,4.42-1.34,8.84-2.01,13.25-.79,5.13-1.6,10.25-2.37,15.39-.69,4.49-1.36,8.98-2.03,13.48-.56,3.85-1.3,7.7-1.63,11.57-.64,7.52-.35,14.83,7.03,19.48,4.72,2.98,10.31,2.69,14.7-.99,3.39-2.84,6.06-6.55,9-9.92,3.16-3.63,6.43-7.35,11.44-8,2.47-.32,5.19.6,7.7,1.31,4.9,1.39,9.66,3.28,14.61,4.46,5.37,1.28,11,1.61,16.46,2.06,4.58.39,9.18.63,13.77.47,6.09-.21,12.21-.82,18.24-1.7,6.96-1.01,13.91-2.33,20.75-3.96,12.1-2.88,23.86-6.9,35.23-11.93,6.51-2.88,12.92-5.99,19.27-9.23,10.8-5.52,20.63-12.59,30.67-19.32,5.85-3.92,11.85-7.63,17.84-11.34V17.08C751.21,7.64,743.56,0,734.13,0h-207.27C517.42,0,509.78,7.64,509.78,17.08v148.52c.47-3.23.97-6.46,1.52-9.68,1.7-9.83,3.4-19.68,7.62-28.86h0ZM545.94,149.96c2.55-5.04,5.19-10.06,8.02-14.96.39-.68,2.09-.99,3.1-.86,4.22.55,11.08,7.2,10.71,11.82-.15,3.62-2.06,6.54-3.97,9.4-1,1.5-2.41,2.72-3.58,4.11-1.22,1.46-2.68,1.42-4.09.55-3.06-1.88-6.06-3.87-9.06-5.85-1.6-1.06-1.9-2.68-1.12-4.22h-.02Z"/>
    <g>
      <path class="cls-2" d="M733.37,143.85c-10.04,6.73-19.88,13.8-30.67,19.32-6.34,3.24-12.75,6.35-19.27,9.23-11.38,5.04-23.14,9.05-35.23,11.93-6.85,1.63-13.79,2.95-20.75,3.96-6.3.91-12.68,1.55-19.05,1.72-5.66.15-11.36-.36-17.03-.82-4.16-.34-8.36-.77-12.41-1.74-4.94-1.18-9.7-3.08-14.61-4.46-2.51-.71-5.22-1.63-7.7-1.31-5.01.65-8.27,4.38-11.44,8-2.94,3.37-5.61,7.08-9,9.92-4.38,3.67-9.98,3.97-14.7.99-7.37-4.66-7.67-11.96-7.03-19.48.33-3.87,1.06-7.72,1.63-11.57.66-4.49,1.34-8.99,2.03-13.48.79-5.13,1.6-10.26,2.37-15.39.68-4.42,1.35-8.84,2.01-13.25.44-2.98.85-5.98,1.27-8.97-.24-.13-.49-.27-.73-.4-.4.39-.99.71-1.17,1.18-1.04,2.6-1.81,5.31-2.97,7.85-4.22,9.18-5.91,19.03-7.62,28.86-.56,3.22-1.05,6.44-1.52,9.68v56.86c1.2,1.44,2.81,2.51,4.98,2.87,6.72,1.1,12.2-1.83,16.42-6.6,4.05-4.56,7.4-9.75,10.99-14.7,2.76-3.81,7.03-4.74,10.84-1.91,5.76,4.29,12.14,7.33,19.12,8.56,7.68,1.36,15.48,2.24,23.26,2.7,10.56.61,21.15.24,31.51-2.2,15.22-3.58,29.88-8.82,44-15.55,14.01-6.68,27.34-14.53,40.08-23.39,4.79-3.33,9.31-7.06,14.09-10.42,5.36-3.76,10.8-7.42,16.33-10.92,2.91-1.85,6.39-2.89,9.07-4.98.27-.22.49-.47.75-.7v-12.72c-5.99,3.71-11.99,7.41-17.84,11.34h0Z"/>
      <path class="cls-2" d="M547.06,154.18c3,1.97,5.99,3.97,9.06,5.85,1.41.86,2.87.91,4.09-.55,1.16-1.39,2.57-2.62,3.58-4.11,1.91-2.86,3.83-5.78,3.97-9.4.37-4.62-6.49-11.27-10.71-11.82-1.01-.13-2.71.18-3.1.86-2.83,4.89-5.47,9.91-8.02,14.96-.78,1.54-.48,3.16,1.12,4.22h.02Z"/>
    </g>
  </g>
</svg>